<?xml version="1.0" encoding="UTF-8"?>
<svg id="Ebene_2" data-name="Ebene 2" xmlns="http://www.w3.org/2000/svg" viewBox="0 0 639.57 100.42">
  <defs>
    <style>
      .cls-1 {
        fill: #4b4a4a;
      }
    </style>
  </defs>
  <g id="Ebene_1-2" data-name="Ebene 1">
    <path class="cls-1" d="M238.35,29.95h-12.58c-.96,0-1.92.85-2.24,2.03l-2.45,10.45c-.11.64-.11,1.17.32,1.6.21.21.53.43.85.43h11.62c.75,0,3.41,0,4.69-.21,1.49-.21,2.88-.64,4.37-1.17,3.52-1.49,5.22-3.73,5.97-6.29,1.6-5.97-4.9-6.82-10.55-6.82M449.41,44.13c-4.05,0-7.25.32-9.49,1.92-3.52,2.45-3.52,4.05-5.12,10.02-1.49,5.44-1.6,7.04.96,9.27,2.66,2.34,7.25,2.34,13.64,2.34h2.77c5.22.11,9.49.11,12.58-1.81,3.62-2.24,4.16-4.8,4.9-8.21l.32-1.28.21-.85c.85-3.41,1.39-5.86-.64-8.1-2.45-2.66-4.26-3.3-15.24-3.3h-4.9ZM381.82,44.24h-14.07l-5.54,23.77h16.42c5.86,0,12.05-.64,13.86-7.14.32-1.17,1.39-6.18,1.39-6.29,1.39-5.12-.21-8.42-4.69-9.81-.96-.21-1.92-.43-2.88-.43-.96-.11-4.37-.11-4.48-.11M230.57,56.18h-10.98c-1.17,0-2.03.85-2.34,2.03l-2.45,10.45c-.11.64-.11,1.17.32,1.6.21.32.53.43.85.43h11.19s3.41,0,4.9-.11c1.49-.21,2.98-.53,4.37-1.17,3.52-1.49,5.44-3.62,6.08-6.29.64-2.45-.32-4.37-2.98-5.54-2.98-1.39-7.25-1.28-9.7-1.28h.75v-.11ZM562.93,62.15h-22.28c-4.16,0-5.65.32-7.14,1.07-1.39.85-2.24,2.03-2.56,3.41-.32,1.6.21,2.88,1.49,3.41,1.39.64,3.09.75,6.82.75h21.43c.85,0,1.92-1.07,2.13-2.34l.96-4.16c.21-.75.11-1.49-.32-1.81,0-.21-.21-.32-.53-.32M318.61,62.15h-22.28c-4.16,0-5.65.32-7.14,1.07-1.39.85-2.24,2.03-2.56,3.41-.32,1.6.21,2.88,1.49,3.41,1.39.64,3.09.75,6.82.75h21.43c.85,0,1.92-1.07,2.24-2.34l.96-4.16c.11-.75.11-1.49-.32-1.81-.11-.21-.32-.32-.64-.32M637.87,18.33c.43,0,1.07.21,1.28.53.43.53.53,1.39.32,2.34l-1.71,7.36c-.32,1.49-1.6,2.77-2.77,2.77h-17.16c-.85,0-1.71.85-2.03,2.34l-11.62,48.61h-21.21l11.62-48.71c.21-.75.21-1.39-.11-1.81-.21-.21-.64-.43-.85-.43h-7.25c-.43,0-.96-.21-1.17-.53-.43-.53-.53-1.39-.32-2.35l1.81-7.89c.32-1.49,1.49-2.24,2.77-2.24h48.39ZM517.52,18.33c.53,0,.96.21,1.28.53.43.53.64,1.39.32,2.34l-14.6,60.97h-20.15l14.6-61.08c.32-1.49,1.6-2.77,2.77-2.77h15.78ZM622.3,76.86l.43,2.13c.11.64.11,1.28.21,1.92.32-.53.64-1.28,1.07-1.92l1.39-2.13h1.6l-.75,5.33h-1.17l.32-2.13c.11-.75.21-1.49.43-2.24-.32.64-.75,1.39-1.17,2.03l-1.49,2.34h-.96l-.43-2.34c-.11-.64-.21-1.39-.21-2.13l-.21.75c-.11.53-.32,1.07-.43,1.6l-.64,2.13h-1.07l1.6-5.33h1.49ZM619.75,76.86l-.21.85h-1.81l-.96,4.58h-1.17l.96-4.58h-1.92l.21-.85h4.9ZM204.88,18.01h38.48c4.05,0,10.98.21,16.52,1.92,4.8,1.49,7.67,4.16,9.27,7.57,1.07,2.13,1.28,4.69.53,7.67-.96,3.73-3.09,7.04-6.4,9.7-3.41,2.88-5.86,4.37-5.86,4.37-.64.43-1.07.85-1.07,1.17,0,.21.11.32.32.43.85.43,10.13,5.65,10.13,13.22,1.07-2.45,2.66-4.69,4.8-6.72,2.98-2.77,6.5-4.58,10.45-5.54,3.52-.85,9.27-1.39,16.95-1.39h21.21c1.28,0,1.92-.32,2.34-1.81,1.17-3.84-.53-6.72-7.57-6.72h-35.82c-.53,0-1.07-.21-1.39-.53-.43-.53-.64-1.17-.43-2.34l1.39-5.97c.32-1.49,1.49-2.77,3.41-2.77h32.83c.96,0,8.1.11,10.13.21,2.24.11,4.48.53,6.61,1.07,10.23,2.98,13.96,9.59,10.98,21.53l-7.04,29.1h-43.38c-.43,0-10.55-.11-13.32-.43-2.77-.32-5.22-.96-7.04-2.13-4.8-2.56-6.82-6.4-6.08-11.62v.11c-1.28,2.98-3.2,5.54-6.18,7.67-3.3,2.45-5.97,3.73-11.94,5.12-4.58,1.07-15.46,1.07-15.99,1.07-1.17,0-2.88.11-3.94.11h-40.29l14.5-61.51c.43-1.39,1.71-2.56,2.88-2.56ZM526.8,30.38h32.41c.32,0,8.1.11,10.23.21,2.24.11,4.48.53,6.61,1.07,10.23,2.98,13.86,10.23,10.66,21.53l-6.82,29.1h-43.28c-.43,0-10.55-.11-13.32-.43-2.77-.32-5.22-.96-7.14-2.13-5.22-2.77-7.25-7.04-5.86-12.9.85-3.52,2.77-6.72,5.76-9.49,2.98-2.77,6.5-4.58,10.45-5.54,3.52-.85,9.27-1.39,16.95-1.39h21.75c1.28,0,1.92-.32,2.34-1.81,1.17-3.84-.53-6.72-7.57-6.72h-36.35c-.43,0-1.07-.21-1.39-.53-.43-.53-.64-1.17-.43-2.34l1.39-5.97c.64-1.49,1.71-2.66,3.62-2.66M356.24,18.44h15.46c.43,0,.96.21,1.17.53.43.53.64,1.39.43,2.34l-2.13,8.85h17.16c1.6,0,7.99.11,9.91.21,2.24.11,4.48.32,6.61,1.07,10.45,3.2,13.64,10.02,10.66,21.53,0,0-2.45,11.09-3.2,13.75-3.94,14.18-18.12,15.56-31.34,15.56h-42.11l14.6-61.08c.32-1.6,1.39-2.77,2.77-2.77M455.8,30.06h2.13c20.04.11,24.09,1.71,28.57,6.61,3.41,3.73,3.94,7.46,2.66,13.11,0,0-3.41,14.5-4.05,16.84-1.07,3.94-2.98,8.95-8.1,12.26-6.08,3.84-15.78,3.62-25.8,3.52h-12.15c-20.15,0-25.48-8.21-23.66-15.78,1.6-6.82,3.62-14.92,4.05-16.52l.11-.32c1.39-5.65,1.92-10.66,8.53-15.46,5.86-4.26,15.67-4.26,27.71-4.26M151.58,94.66l.32,2.03c.11.53.11,1.17.21,1.71.32-.53.64-1.17.96-1.71l1.28-2.03h1.49l-.75,5.01h-1.07l.32-2.03c.11-.64.21-1.39.43-2.13-.32.64-.75,1.28-1.17,1.92l-1.39,2.13h-.85l-.32-2.13c-.11-.64-.11-1.28-.21-1.92l-.21.64c-.11.43-.21.96-.43,1.39l-.53,2.03h-1.07l1.49-5.01c.11.11,1.49.11,1.49.11M144.65,94.66l-.21.75h1.71l-.96,4.26h1.17l.85-4.26h1.71l.21-.75h-4.48ZM50.63,52.23L0,100.41h118.43c1.07,0,19.29.64,25.8-12.47,6.18-12.47,15.24-30.7,17.7-35.71H50.63ZM122.9,0c-4.8,0-18.44.43-29.42,11.41-10.02,9.59-21.43,20.47-25.58,24.3h102.12L187.93,0h-65.02Z"/>
  </g>
</svg>