<?xml version="1.0" encoding="UTF-8"?>
<svg id="Ebene_2" data-name="Ebene 2" xmlns="http://www.w3.org/2000/svg" viewBox="0 0 1005.55 268.43">
  <defs>
    <style>
      .cls-1 {
        fill: #4a4a4a;
      }
    </style>
  </defs>
  <g id="Ebene_2-2" data-name="Ebene 2">
    <g id="svg4">
      <path id="path2" class="cls-1" d="M43.99,29.37c1.13,2.56,2.65,4.8,4.55,6.74,1.9,1.94,4.14,3.45,6.74,4.55,2.59,1.1,5.35,1.64,8.27,1.64s5.66-.55,8.22-1.64c2.56-1.1,4.8-2.61,6.74-4.55,1.93-1.93,3.45-4.18,4.55-6.74,1.1-2.56,1.64-5.3,1.64-8.22s-.55-5.66-1.64-8.22c-1.1-2.56-2.61-4.8-4.55-6.74-1.94-1.93-4.18-3.45-6.74-4.55-2.56-1.1-5.3-1.64-8.22-1.64s-5.68.55-8.27,1.64c-2.59,1.1-4.84,2.61-6.74,4.55s-3.42,4.18-4.55,6.74-1.7,5.3-1.7,8.22.56,5.66,1.7,8.22ZM1.64,152.3c1.1,2.56,2.61,4.8,4.55,6.74,1.93,1.94,4.18,3.45,6.74,4.55s5.3,1.64,8.22,1.64h84.91c2.92,0,5.68-.55,8.27-1.64,2.59-1.1,4.84-2.61,6.74-4.55,1.9-1.93,3.4-4.18,4.49-6.74,1.1-2.56,1.64-5.3,1.64-8.22v-46.68H29.58v-12.71h97.62v-8.44c0-2.92-.55-5.66-1.64-8.22-1.1-2.56-2.59-4.8-4.49-6.74-1.9-1.93-4.15-3.45-6.74-4.55s-5.35-1.64-8.27-1.64H21.15c-2.92,0-5.66.55-8.22,1.64-2.56,1.1-4.8,2.61-6.74,4.55-1.94,1.94-3.45,4.18-4.55,6.74-1.1,2.56-1.64,5.3-1.64,8.22v46.68h97.41v12.71H0v8.44C0,147,.55,149.74,1.64,152.3ZM181.25,225.9h24.32v4.98h-18.31v11.87h15.73v4.92h-15.73v14.94h19.34v4.98h-25.34v-41.69h-.01ZM214.74,241.54c-1.79-.26-3.11-.41-3.96-.47v-3.84h9.79v30.35h-5.83v-26.04h0ZM213.13,227.62c0-2.23,2.08-3.66,3.66-3.66,2.29,0,3.96,1.88,3.96,3.54,0,2.55-2.23,3.72-3.78,3.72-2.08,0-3.84-1.61-3.84-3.6h0ZM230.83,237.23h5.57l.12,4.25c1.85-2.9,5.1-4.86,9.55-4.86,7.24,0,9.84,4.89,9.84,9.9v21.06h-5.83v-19.39c0-4.57-1.9-6.59-5.8-6.59-5.48,0-7.62,5.27-7.62,8.35v17.64h-5.83v-30.35h0ZM279.61,253.31v-27.42h6.01v27.28c0,7.06,3.66,9.84,8.94,9.84s8.94-2.78,8.94-9.84v-27.28h6.06v27.42c0,10.2-6.24,15-15,15s-14.94-4.8-14.94-15h-.01ZM319.63,237.23h5.57l.12,4.25c1.85-2.9,5.1-4.86,9.55-4.86,7.24,0,9.84,4.89,9.84,9.9v21.06h-5.83v-19.39c0-4.57-1.9-6.59-5.8-6.59-5.48,0-7.62,5.27-7.62,8.35v17.64h-5.83v-30.35h0ZM355.4,259.17v-17.4h-4.75v-4.54h4.75v-6.8c1.49-.53,3.43-1.38,5.8-2.58v9.38h7.88v4.54h-7.88v16.76c0,3.52,1.17,4.98,4.34,4.98,1.61,0,3.16-.29,3.96-.56l1.03,4.34c-1.88.56-4.22.88-6.59.88-6.06,0-8.53-3.37-8.53-8.99h0ZM373.94,252.46c0-9.49,4.75-15.97,13.45-15.97,8.09,0,12.22,5.04,12.22,14.15,0,1.35-.03,2.52-.12,3.54h-19.37c.47,6.12,3.34,9.49,9.17,9.49,2.7,0,5.36-.41,7.27-.97l1.14,4.45c-2.55.79-5.36,1.14-9.26,1.14-9.23,0-14.5-6.15-14.5-15.85v.02h0ZM393.48,250v-1.38c0-5.01-1.93-7.85-6.24-7.85-4.54,0-6.88,3.4-7.24,9.23h13.48,0ZM407.72,237.23h5.57l.12,5.74c2.02-4.28,5.71-6.01,8.58-5.92,1,0,1.76.06,2.29.18v5.51c-.47-.12-1.17-.18-2.08-.18-5.83,0-8.64,4.8-8.64,8.58v16.44h-5.83v-30.35h-.01ZM429.99,237.23h5.57l.12,4.25c1.85-2.9,5.1-4.86,9.55-4.86,7.24,0,9.84,4.89,9.84,9.9v21.06h-5.83v-19.39c0-4.57-1.9-6.59-5.8-6.59-5.48,0-7.62,5.27-7.62,8.35v17.64h-5.83v-30.35h0ZM463.36,252.46c0-9.49,4.75-15.97,13.45-15.97,8.09,0,12.22,5.04,12.22,14.15,0,1.35-.03,2.52-.12,3.54h-19.37c.47,6.12,3.34,9.49,9.17,9.49,2.7,0,5.36-.41,7.27-.97l1.14,4.45c-2.55.79-5.36,1.14-9.26,1.14-9.23,0-14.5-6.15-14.5-15.85v.02h0ZM482.9,250v-1.38c0-5.01-1.93-7.85-6.24-7.85-4.54,0-6.88,3.4-7.24,9.23h13.48,0ZM497.14,223.49h5.83v17.75c1.76-2.78,4.8-4.63,9.4-4.63,7.24,0,9.84,4.89,9.84,9.9v21.06h-5.83v-19.39c0-4.57-1.9-6.59-5.8-6.59-5.48,0-7.62,5.27-7.62,8.35v17.64h-5.83v-44.09h0ZM531.89,237.23h5.57l.12,4.01c1.85-2.81,4.6-4.63,8.79-4.63s7.12,1.79,8.32,5.04c2.2-3.16,5.19-5.04,9.49-5.04,5.98,0,9.23,3.52,9.23,9.61v21.36h-5.83v-19.69c0-4.37-1.46-6.3-5.1-6.3-3.96,0-6.94,3.6-6.94,8.17v17.81h-5.83v-19.69c0-4.37-1.46-6.3-5.1-6.3-3.98,0-6.88,3.6-6.88,8.17v17.81h-5.83v-30.35.02h0ZM581.69,252.46c0-9.49,4.75-15.97,13.45-15.97,8.09,0,12.22,5.04,12.22,14.15,0,1.35-.03,2.52-.12,3.54h-19.37c.47,6.12,3.34,9.49,9.17,9.49,2.7,0,5.36-.41,7.27-.97l1.14,4.45c-2.55.79-5.36,1.14-9.26,1.14-9.23,0-14.5-6.15-14.5-15.85v.02ZM601.23,250v-1.38c0-5.01-1.93-7.85-6.24-7.85-4.54,0-6.88,3.4-7.24,9.23h13.48ZM615.47,237.23h5.57l.12,4.25c1.85-2.9,5.1-4.86,9.55-4.86,7.24,0,9.84,4.89,9.84,9.9v21.06h-5.83v-19.39c0-4.57-1.9-6.59-5.8-6.59-5.48,0-7.62,5.27-7.62,8.35v17.64h-5.83v-30.35h0ZM662.64,252.64c0-10.22,5.57-16.03,12.71-16.03,3.98,0,6.68,1.49,7.91,2.9v-16.03h5.83v44.09h-5.57l-.15-3.9c-2.02,3.13-4.69,4.48-8.76,4.48-6.94,0-11.98-4.63-11.98-15.53v.02h.01ZM683.26,253.78v-9.38c-1.85-1.82-3.78-2.87-6.59-2.87-4.57,0-7.73,3.98-7.73,11.1s2.34,10.75,7,10.75c5.27,0,7.32-4.66,7.32-9.61h0ZM697.56,252.46c0-9.49,4.75-15.97,13.45-15.97,8.09,0,12.22,5.04,12.22,14.15,0,1.35-.03,2.52-.12,3.54h-19.37c.47,6.12,3.34,9.49,9.17,9.49,2.7,0,5.36-.41,7.27-.97l1.14,4.45c-2.55.79-5.36,1.14-9.26,1.14-9.23,0-14.5-6.15-14.5-15.85v.02ZM717.1,250v-1.38c0-5.01-1.93-7.85-6.24-7.85-4.54,0-6.88,3.4-7.24,9.23h13.48ZM731.34,237.23h5.57l.12,5.74c2.02-4.28,5.71-6.01,8.58-5.92,1,0,1.76.06,2.29.18v5.51c-.47-.12-1.17-.18-2.08-.18-5.83,0-8.64,4.8-8.64,8.58v16.44h-5.83v-30.35h0ZM767.7,225.89h5.77c5.57,7.91,12.98,19.69,18.37,29.94v-29.94h5.8v41.69h-5.39c-5.83-11.28-11.95-22.32-18.72-32.99v32.99h-5.83v-41.69h0ZM806.96,246.75c0-13.83,6.77-21.71,17.34-21.71s17.4,7.88,17.4,21.71-6.86,21.68-17.4,21.68-17.34-7.82-17.34-21.68ZM835.23,246.75c0-10.78-3.9-16.73-10.93-16.73s-10.87,5.95-10.87,16.73,3.84,16.7,10.87,16.7,10.93-6.06,10.93-16.7h0ZM850.93,225.89h12.36c9.26,0,13.97,4.1,13.97,11.51,0,4.34-1.82,8.73-7.06,11.16l.12.12c4.78,5.48,8.88,12.57,11.69,18.9h-6.88c-2.72-5.39-7.21-13.07-11.28-17.29h-7.03v17.29h-5.89v-41.69h0ZM861.86,245.37c6.33,0,8.99-3.11,8.99-7.56,0-5.65-3.6-7-8.76-7h-5.27v14.56h5.04ZM889.28,225.89h12.3c11.87,0,18.96,7,18.96,20.86s-7.12,20.83-18.96,20.83h-12.3v-41.69h0ZM901.64,262.6c7.85,0,12.42-5.3,12.42-15.85s-4.57-15.88-12.42-15.88h-6.36v31.73h6.36ZM936.21,223.49h5.33l-11.84,44.09h-5.39l11.89-44.09h.01ZM947.05,225.89h6.01v36.71h17.64v4.98h-23.64v-41.69h-.01ZM977.28,225.89h13.27c10.4,0,12.19,6.59,12.19,10.2,0,4.89-2.87,7.68-5.42,8.7,5.77,1.58,8.23,5.16,8.23,10.43,0,6.8-4.63,12.36-14.47,12.36h-13.8v-41.69h0ZM988.27,243.09c6.8,0,8.29-3.57,8.29-6.74,0-4.22-3.31-5.54-7.73-5.54h-5.65v12.28h5.1,0ZM989.59,262.66c6.59,0,9.55-2.52,9.55-7.44s-3.19-7.27-10.14-7.27h-5.83v14.71h6.42ZM192.56,69.68h28.75c22.53,0,26.41,14.28,26.41,22.09,0,10.6-6.22,16.63-11.74,18.85,12.5,3.43,17.84,11.17,17.84,22.6,0,14.73-10.03,26.79-31.36,26.79h-29.9v-90.33ZM216.36,106.94c14.73,0,17.96-7.74,17.96-14.6,0-9.14-7.17-12-16.76-12h-12.25v26.6h11.05,0ZM219.22,149.34c14.28,0,20.69-5.46,20.69-16.12s-6.92-15.74-21.96-15.74h-12.63v31.87h13.9ZM273.81,69.68h13.01v79.54h38.21v10.79h-51.23v-90.33s.01,0,.01,0ZM331.13,155.82l3.68-10.47c4.38,2.29,15.68,5.14,23.49,5.14,16.95,0,19.93-8.06,19.93-14.92,0-7.24-5.59-11.3-11.93-13.77-9.33-3.81-15.87-5.33-22.98-10.03-7.81-5.4-9.71-12-9.71-18.73,0-15.81,12.31-24.95,31.99-24.95,10.54,0,18.98,2.79,21.33,3.36v11.49c-6.41-2.41-14.85-4.06-22.47-4.06-11.36,0-17.96,4.82-17.96,13.52s8.44,11.62,20.44,15.87c13.2,4.89,25.2,9.84,25.2,27.17s-12,26.15-32.25,26.15c-14.98,0-25.2-4.06-28.75-5.78h0ZM409.9,69.68h13.01v37.58l34.59-37.58h16l-38.59,41.58c5.46,4.38,11.17,9.71,17.08,16.12,5.9,6.35,10.98,12.38,15.11,18.09,4.19,5.65,7.55,10.54,10.16,14.54h-16.12c-3.87-5.52-8.06-10.98-12.57-16.5s-8.95-10.47-13.39-14.92c-4.44-4.51-8.51-8.32-12.25-11.49v42.91h-13.01v-90.33h-.02,0Z"/>
    </g>
  </g>
</svg>