<?xml version="1.0" encoding="UTF-8"?>
<svg id="Ebene_2" data-name="Ebene 2" xmlns="http://www.w3.org/2000/svg" viewBox="0 0 133.19 30.63">
  <defs>
    <style>
      .cls-1 {
        fill: none;
        stroke: #4a4a4a;
        stroke-miterlimit: 10;
        stroke-width: .5px;
      }

      .cls-2 {
        fill: #4a4a4a;
      }
    </style>
  </defs>
  <g id="Ebene_2-2" data-name="Ebene 2">
    <g id="Ebene_1-2" data-name="Ebene 1-2">
      <g>
        <path class="cls-2" d="M8.15.13v2.42h-1.4l-.07-1.02h-1.67v6.41l.97.19v1.09h-3.77v-1.09l.97-.19V1.54h-1.67l-.07,1.02H.04V.13h8.11Z"/>
        <path class="cls-2" d="M12.93.13c1.03,0,1.84.24,2.43.71s.88,1.13.88,1.96c0,.46-.12.86-.37,1.19-.25.34-.61.61-1.08.82.54.16.92.42,1.16.79.24.37.35.83.35,1.37v.46c0,.2.04.35.12.47s.21.18.39.2l.23.03v1.1h-.94c-.6,0-1.01-.16-1.26-.48-.24-.32-.36-.73-.36-1.24v-.52c0-.44-.12-.79-.35-1.04-.24-.25-.57-.38-1-.4h-1.49v2.4l.97.19v1.09h-3.77v-1.09l.97-.19V1.42l-.97-.19V.13h4.09ZM11.63,4.14h1.26c.51,0,.89-.11,1.14-.32.25-.22.38-.53.38-.94s-.13-.73-.38-.98-.62-.37-1.11-.37h-1.29v2.6h0Z"/>
        <path class="cls-2" d="M17.68,8.13l.65-.09L21.1.13h1.87l2.75,7.91.65.09v1.09h-3.1v-1.09l.63-.11-.4-1.25h-2.95l-.4,1.25.63.11v1.09h-3.1s0-1.09,0-1.09ZM20.98,5.43h2.09l-1.02-3.2h-.04l-1.02,3.2h0Z"/>
        <path class="cls-2" d="M35.83,2.5h-.04l-2.44,6.73h-1.22l-2.42-6.71h-.04l.17,4v1.43l.97.19v1.09h-3.77v-1.09l.97-.19V1.42l-.97-.19V.13h3.35l2.32,6.7h.04L35.09.13h3.36v1.1l-.97.19v6.53l.97.19v1.09h-3.77v-1.09l.97-.19v-1.43s.18-4.02.18-4.02Z"/>
        <path class="cls-2" d="M39.17,1.23V.13h3.77v1.1l-.97.19v6.53l.97.19v1.09h-3.77v-1.09l.97-.19V1.42l-.97-.19Z"/>
        <path class="cls-2" d="M51.74.13v2.42h-1.4l-.07-1.02h-1.67v6.41l.97.19v1.09h-3.77v-1.09l.97-.19V1.54h-1.67l-.07,1.02h-1.39V.13h8.11-.01Z"/>
        <path class="cls-2" d="M59.16.13v.91l-4.45,6.78h3.17l.15-1.1h1.39l-.14,2.5h-6.79v-.95l4.44-6.74h-2.89l-.14,1.1h-1.39l.14-2.51h6.53-.02Z"/>
        <path class="cls-2" d="M63.68,6.04h-3.52v-1.41h3.52v1.41Z"/>
        <path class="cls-2" d="M68.51.13c1.07,0,1.91.21,2.5.62.6.42.9,1.04.9,1.87,0,.42-.11.8-.33,1.13-.22.33-.55.58-.97.75.55.12.95.37,1.23.75.27.38.41.83.41,1.33,0,.87-.29,1.53-.86,1.98s-1.39.67-2.44.67h-4.47v-1.09l.97-.19V1.42l-.97-.19V.13h4.04-.01ZM67.26,3.94h1.31c.49,0,.86-.1,1.12-.3s.39-.49.39-.87c0-.42-.13-.73-.4-.93-.26-.2-.66-.3-1.18-.3h-1.25v2.4h.01ZM67.26,5.2v2.62h1.68c.48,0,.85-.1,1.11-.32.25-.21.38-.52.38-.93,0-.45-.11-.79-.33-1.02-.22-.24-.56-.35-1.02-.35h-1.82Z"/>
        <path class="cls-2" d="M81.23,4.75c0,1.33-.38,2.43-1.14,3.3s-1.76,1.31-2.99,1.31-2.22-.44-2.98-1.31-1.13-1.97-1.13-3.3v-.14c0-1.32.38-2.42,1.13-3.3s1.75-1.31,2.97-1.31,2.23.44,3,1.31c.77.87,1.15,1.97,1.15,3.3v.14h-.01ZM79.41,4.6c0-.94-.2-1.71-.59-2.29-.39-.59-.97-.88-1.74-.88s-1.34.29-1.71.87c-.37.58-.57,1.35-.57,2.3v.15c0,.96.19,1.73.57,2.31s.95.88,1.71.88,1.35-.29,1.74-.88.58-1.36.58-2.31v-.15h0Z"/>
        <path class="cls-2" d="M85.88.13c1.03,0,1.84.24,2.43.71.59.47.88,1.13.88,1.96,0,.46-.12.86-.37,1.19-.25.34-.61.61-1.08.82.54.16.92.42,1.16.79s.35.83.35,1.37v.46c0,.2.04.35.12.47s.21.18.39.2l.23.03v1.1h-.94c-.6,0-1.01-.16-1.26-.48-.24-.32-.36-.73-.36-1.24v-.52c0-.44-.12-.79-.35-1.04-.24-.25-.57-.38-1-.4h-1.49v2.4l.97.19v1.09h-3.77v-1.09l.97-.19V1.42l-.97-.19V.13h4.09ZM84.59,4.14h1.26c.51,0,.89-.11,1.14-.32.25-.22.38-.53.38-.94s-.13-.73-.38-.98-.62-.37-1.11-.37h-1.29v2.6h0Z"/>
        <path class="cls-2" d="M97.87,3.2h-1.36l-.19-1.21c-.18-.18-.4-.32-.68-.42-.27-.1-.59-.16-.96-.16-.79,0-1.4.29-1.83.86s-.64,1.32-.64,2.25v.32c0,.92.21,1.68.64,2.26.42.58,1.02.87,1.8.87.36,0,.69-.05.98-.16.3-.1.53-.25.69-.42l.19-1.21h1.36v1.8c-.37.42-.83.76-1.4,1.02s-1.2.38-1.91.38c-1.22,0-2.22-.42-3-1.27-.78-.85-1.17-1.93-1.17-3.25v-.31c0-1.32.39-2.41,1.16-3.25.77-.85,1.78-1.27,3-1.27.7,0,1.34.13,1.91.38.57.26,1.03.59,1.41,1.02v1.8-.03Z"/>
        <path class="cls-2" d="M98.68,1.23V.13h3.77v1.1l-.97.19v2.62h3.71V1.42l-.97-.19V.13h3.77v1.1l-.97.19v6.53l.97.19v1.09h-3.77v-1.09l.97-.19v-2.5h-3.71v2.5l.97.19v1.09h-3.77v-1.09l.97-.19V1.42l-.97-.19Z"/>
        <path class="cls-2" d="M114.59,5.23h-3.08v2.6h2.94l.08-1.09h1.39v2.49h-7.2v-1.09l.97-.19V1.42l-.97-.19V.13h7.18v2.49h-1.4l-.08-1.09h-2.91v2.29h3.08v1.41Z"/>
        <path class="cls-2" d="M120.98.13c1.03,0,1.84.24,2.43.71.59.47.88,1.13.88,1.96,0,.46-.12.86-.37,1.19s-.61.61-1.08.82c.54.16.92.42,1.16.79.24.37.35.83.35,1.37v.46c0,.2.04.35.12.47.08.11.21.18.39.2l.22.03v1.1h-.94c-.6,0-1.01-.16-1.26-.48-.24-.32-.36-.73-.36-1.24v-.52c0-.44-.12-.79-.35-1.04-.23-.25-.57-.38-1-.4h-1.49v2.4l.97.19v1.09h-3.77v-1.09l.97-.19V1.42l-.97-.19V.13h4.1ZM119.68,4.14h1.26c.51,0,.89-.11,1.14-.32.25-.22.38-.53.38-.94s-.13-.73-.38-.98-.62-.37-1.11-.37h-1.29v2.6h0Z"/>
        <path class="cls-2" d="M132.55,3.04h-1.37l-.24-1.25c-.16-.1-.39-.19-.69-.26-.3-.07-.63-.11-.97-.11-.5,0-.89.1-1.16.32s-.41.48-.41.82c0,.31.14.56.43.76s.78.41,1.48.63c1,.28,1.76.65,2.28,1.11s.78,1.06.78,1.81-.31,1.39-.92,1.84-1.43.67-2.44.67c-.72,0-1.37-.11-1.95-.34s-1.07-.55-1.45-.95v-1.9h1.41l.19,1.29c.18.15.43.27.75.37.31.1.67.15,1.05.15.5,0,.88-.1,1.14-.31.26-.2.39-.48.39-.82s-.12-.63-.37-.84-.68-.41-1.3-.6c-1.08-.31-1.9-.68-2.45-1.11-.55-.43-.83-1.02-.83-1.76s.31-1.34.94-1.81c.62-.47,1.41-.71,2.36-.72.7,0,1.34.11,1.91.32.58.21,1.06.5,1.45.85v1.86-.02Z"/>
      </g>
      <g>
        <path class="cls-2" d="M8.31,22.72h-1.71l-.3-1.56c-.2-.12-.49-.23-.87-.33-.38-.09-.78-.14-1.21-.14-.62,0-1.11.13-1.45.39s-.51.6-.51,1.02c0,.39.18.7.54.95.36.25.97.51,1.85.79,1.25.35,2.21.81,2.86,1.38.65.57.97,1.33.97,2.26s-.39,1.74-1.16,2.3c-.77.56-1.79.84-3.05.84-.9,0-1.71-.14-2.44-.43s-1.33-.68-1.82-1.19v-2.38h1.77l.24,1.62c.23.19.54.34.93.46.39.12.83.18,1.32.18.62,0,1.1-.13,1.43-.38s.49-.6.49-1.02-.16-.79-.46-1.05c-.31-.27-.85-.52-1.63-.75-1.35-.39-2.37-.85-3.06-1.39-.69-.54-1.04-1.27-1.04-2.2s.39-1.68,1.17-2.26,1.76-.89,2.95-.9c.88,0,1.67.13,2.39.4s1.32.62,1.81,1.06v2.33h-.01Z"/>
        <path class="cls-2" d="M14.77,19.09c1.3,0,2.33.33,3.08,1s1.13,1.55,1.13,2.63-.38,1.96-1.13,2.62-1.78.99-3.08.99h-1.92v2.52l1.22.23v1.37h-4.71v-1.37l1.21-.23v-8.16l-1.21-.23v-1.38h5.41,0ZM12.85,24.58h1.92c.64,0,1.12-.17,1.44-.52.33-.35.49-.79.49-1.32s-.16-1-.49-1.36-.81-.54-1.44-.54h-1.92v3.73h0Z"/>
        <path class="cls-2" d="M30.12,24.86c0,1.67-.48,3.04-1.43,4.13s-2.2,1.63-3.74,1.63-2.78-.54-3.72-1.63c-.95-1.09-1.42-2.47-1.42-4.13v-.17c0-1.66.47-3.03,1.41-4.12s2.18-1.64,3.72-1.64,2.79.55,3.75,1.64c.96,1.09,1.43,2.47,1.43,4.12v.17ZM27.84,24.67c0-1.18-.25-2.13-.73-2.87-.49-.73-1.21-1.1-2.17-1.1s-1.67.36-2.14,1.09-.71,1.69-.71,2.88v.19c0,1.2.24,2.16.71,2.89.48.73,1.19,1.1,2.14,1.1s1.69-.37,2.17-1.1.73-1.7.73-2.89c0,0,0-.19,0-.19Z"/>
        <path class="cls-2" d="M35.92,19.09c1.29,0,2.3.3,3.04.89.73.59,1.1,1.41,1.1,2.45,0,.57-.15,1.07-.46,1.49-.31.42-.76.76-1.35,1.02.67.2,1.15.53,1.45.99.29.46.44,1.03.44,1.71v.58c0,.25.05.44.15.58.1.14.26.22.49.25l.28.04v1.38h-1.18c-.75,0-1.27-.2-1.57-.6s-.45-.92-.45-1.55v-.65c0-.55-.15-.99-.44-1.3-.29-.31-.71-.48-1.25-.5h-1.87v3l1.22.23v1.37h-4.71v-1.37l1.21-.23v-8.16l-1.21-.23v-1.38h5.11,0ZM34.31,24.1h1.58c.64,0,1.11-.14,1.43-.41s.48-.66.48-1.17-.16-.92-.47-1.22c-.32-.3-.78-.46-1.39-.46h-1.62v3.26h-.01Z"/>
        <path class="cls-2" d="M51.49,19.09v3.03h-1.75l-.09-1.27h-2.09v8.02l1.22.23v1.37h-4.72v-1.37l1.22-.23v-8.02h-2.09l-.09,1.27h-1.74v-3.03h10.14,0Z"/>
        <path class="cls-2" d="M60.82,22.72h-1.71l-.3-1.56c-.2-.12-.49-.23-.87-.33-.38-.09-.78-.14-1.21-.14-.62,0-1.11.13-1.45.39s-.51.6-.51,1.02c0,.39.18.7.54.95s.97.51,1.85.79c1.25.35,2.21.81,2.86,1.38s.97,1.33.97,2.26-.39,1.74-1.16,2.3-1.79.84-3.05.84c-.9,0-1.71-.14-2.44-.43s-1.33-.68-1.82-1.19v-2.38h1.77l.24,1.62c.23.19.54.34.93.46.39.12.83.18,1.32.18.62,0,1.1-.13,1.43-.38s.49-.6.49-1.02-.16-.79-.46-1.05c-.31-.27-.85-.52-1.63-.75-1.35-.39-2.37-.85-3.06-1.39-.69-.54-1.04-1.27-1.04-2.2s.39-1.68,1.17-2.26,1.76-.89,2.95-.9c.88,0,1.67.13,2.39.4s1.32.62,1.81,1.06v2.33h-.01Z"/>
        <path class="cls-2" d="M71.91,19.09v3.03h-1.75l-.09-1.27h-2.09v8.02l1.22.23v1.37h-4.72v-1.37l1.22-.23v-8.02h-2.09l-.09,1.27h-1.74v-3.03h10.14-.01Z"/>
        <path class="cls-2" d="M72.76,20.46v-1.38h4.71v1.38l-1.22.23v8.16l1.22.23v1.37h-4.71v-1.37l1.22-.23v-8.16l-1.22-.23Z"/>
        <path class="cls-2" d="M78.38,29.09l1.21-.23v-8.16l-1.21-.23v-1.38h9.05v3.12h-1.75l-.1-1.36h-3.71v3.13h3.98v1.76h-3.98v3.12l1.22.23v1.37h-4.71s0-1.37,0-1.37Z"/>
        <path class="cls-2" d="M98.41,19.09v3.03h-1.75l-.09-1.27h-2.09v8.02l1.22.23v1.37h-4.72v-1.37l1.22-.23v-8.02h-2.09l-.09,1.27h-1.74v-3.03h10.14-.01Z"/>
        <path class="cls-2" d="M103.9,19.09v1.38l-1.22.23v5.94c0,.75.2,1.31.61,1.68.4.37.96.56,1.66.56s1.27-.18,1.68-.55c.41-.37.61-.93.61-1.69v-5.94l-1.21-.23v-1.38h4.71v1.38l-1.22.23v5.94c0,1.28-.42,2.26-1.26,2.95-.84.69-1.94,1.04-3.31,1.04s-2.46-.35-3.29-1.04c-.84-.69-1.25-1.68-1.25-2.95v-5.94l-1.21-.23v-1.38h4.71-.01Z"/>
        <path class="cls-2" d="M123.17,19.09v1.38l-1.22.23v9.77h-2.27l-4.59-7.66h-.05v6.05l1.22.23v1.37h-4.71v-1.37l1.21-.23v-8.16l-1.21-.23v-1.38h3.49l4.59,7.66h.05v-6.05l-1.22-.23v-1.38s4.71,0,4.71,0Z"/>
        <path class="cls-2" d="M133.19,29.19c-.37.36-.91.69-1.62.99s-1.6.44-2.69.44c-1.54,0-2.79-.51-3.75-1.54-.96-1.03-1.45-2.37-1.45-4.01v-.39c0-1.7.48-3.09,1.43-4.16s2.19-1.6,3.72-1.6c.89,0,1.7.14,2.44.43.74.28,1.35.67,1.84,1.15v2.29h-1.69l-.32-1.52c-.21-.18-.48-.32-.82-.43-.34-.11-.73-.16-1.18-.16-1,0-1.77.37-2.32,1.1s-.83,1.7-.83,2.88v.41c0,1.16.27,2.08.81,2.77s1.32,1.04,2.34,1.04c.46,0,.83-.04,1.11-.12s.51-.17.67-.27v-1.93l-1.62-.12v-1.6h3.91v4.37l.02-.02Z"/>
      </g>
      <line class="cls-1" x1="1.73" y1="13.69" x2="133.12" y2="13.69"/>
    </g>
  </g>
</svg>