<?xml version="1.0" encoding="UTF-8"?>
<svg id="Ebene_2" data-name="Ebene 2" xmlns="http://www.w3.org/2000/svg" viewBox="0 0 1545.98 1180.02">
  <defs>
    <style>
      .cls-1 {
        stroke: #006b31;
      }

      .cls-1, .cls-2, .cls-3, .cls-4, .cls-5 {
        fill: #4a4a4a;
      }

      .cls-1, .cls-3, .cls-4 {
        stroke-miterlimit: 22.93;
        stroke-width: .22px;
      }

      .cls-2 {
        fill-rule: evenodd;
      }

      .cls-3 {
        stroke: #6eaa38;
      }

      .cls-4 {
        stroke: #34a937;
      }
    </style>
  </defs>
  <g id="Ebene_2-2" data-name="Ebene 2">
    <g id="Ebene_1-2" data-name="Ebene 1-2">
      <path class="cls-5" d="M183.3,1142.12v35.35h-12.62v-80.8h55.68c8.29,0,14.76,2.01,19.45,5.99s7.02,9.52,7.02,16.61c0,5.73-1.85,10.71-5.57,14.92-3.69,4.21-8.51,6.8-14.47,7.74l22.56,35.54h-13.76l-22.98-35.35h-35.32,0ZM183.3,1130.27h43.05c4.37,0,7.7-.94,10-2.85s3.46-4.63,3.46-8.19-1.17-6.25-3.46-8.09c-2.3-1.88-5.63-2.82-10-2.82h-43.05v21.95h0Z"/>
      <path class="cls-5" d="M318.28,1179.99c-14.4,0-26.28-4.08-35.57-12.24-9.29-8.12-13.95-18.35-13.95-30.69s4.63-22.59,13.89-30.65c9.29-8.06,21.17-12.07,35.64-12.07s26.54,4.01,35.83,12.04c9.26,8.03,13.89,18.26,13.89,30.69s-4.66,22.63-13.95,30.75-21.2,12.17-35.77,12.17M318.28,1168.14c10.81,0,19.65-2.91,26.48-8.77,6.83-5.83,10.23-13.27,10.23-22.3s-3.43-16.38-10.29-22.27c-6.86-5.86-15.67-8.8-26.41-8.8s-19.52,2.91-26.32,8.77c-6.8,5.83-10.2,13.27-10.2,22.3s3.4,16.48,10.2,22.3c6.8,5.86,15.57,8.77,26.32,8.77h-.01Z"/>
      <path class="cls-5" d="M388.78,1177.47v-80.8h49.72c8.22,0,14.47,1.68,18.71,5.08,4.24,3.37,6.34,8.35,6.34,14.89,0,3.3-.65,6.21-1.97,8.77-1.33,2.56-3.27,4.63-5.79,6.21,4.5,2.52,7.9,5.6,10.16,9.26,2.3,3.63,3.43,7.74,3.43,12.27,0,7.54-2.52,13.47-7.54,17.8-5.05,4.34-12.01,6.51-20.88,6.51h-52.18,0ZM442.39,1139.21h-40.98v26.61h40.98c4.43,0,7.87-1.17,10.33-3.53,2.43-2.33,3.66-5.63,3.66-9.87s-1.23-7.41-3.66-9.74c-2.46-2.3-5.89-3.46-10.33-3.46h0ZM438.11,1108.32h-36.71v19.03h36.9c4.05,0,7.09-.81,9.16-2.43,2.04-1.59,3.08-3.98,3.08-7.15s-1.04-5.5-3.08-7.09c-2.07-1.59-5.18-2.36-9.35-2.36Z"/>
      <rect class="cls-5" x="494.44" y="1096.28" width="12.82" height="81.18"/>
      <polygon class="cls-5" points="535.42 1177.47 535.42 1096.48 542.05 1096.48 593.49 1153.38 593.49 1096.48 605.92 1096.48 605.92 1177.47 599.28 1177.47 547.85 1120.75 547.85 1177.47 535.42 1177.47"/>
      <polygon class="cls-5" points="698.53 1177.47 698.53 1096.67 711.16 1096.67 711.16 1132.6 754.08 1096.67 770.78 1096.67 736.79 1125.42 775.83 1177.47 761.62 1177.47 727.86 1132.8 711.16 1146.94 711.16 1177.47 698.53 1177.47"/>
      <path class="cls-5" d="M775.09,1177.47l41.21-80.99h7.96l41.53,80.99h-13.56l-10.52-20.59h-42.76l-10.46,20.59h-13.4,0ZM804.45,1146.2h31.66l-15.73-31.04-15.93,31.04Z"/>
      <polygon class="cls-5" points="890.16 1177.47 890.16 1107.74 855.98 1107.74 855.98 1096.48 936.97 1096.48 936.97 1107.74 902.79 1107.74 902.79 1177.47 890.16 1177.47"/>
      <polygon class="cls-5" points="939.07 1177.47 991.58 1108.32 943.73 1108.32 943.73 1096.48 1014.92 1096.48 961.96 1165.81 1014.43 1165.81 1014.43 1177.47 939.07 1177.47"/>
      <rect class="cls-5" x="1034.63" y="1096.28" width="12.82" height="81.18"/>
      <polygon class="cls-5" points="1075.61 1177.47 1075.61 1096.48 1082.25 1096.48 1133.68 1153.38 1133.68 1096.48 1146.11 1096.48 1146.11 1177.47 1139.48 1177.47 1088.04 1120.75 1088.04 1177.47 1075.61 1177.47"/>
      <path class="cls-5" d="M1166.86,1167.11l6.15-10.62c5.57,3.72,11.65,6.64,18.22,8.71,6.6,2.1,12.88,3.14,18.9,3.14,7.22,0,13.05-1.46,17.48-4.4,4.43-2.95,6.64-6.7,6.64-11.3s-2.04-8.03-6.09-10.29c-4.05-2.23-10.42-3.46-19.16-3.72-14.76-.19-24.89-1.91-30.4-5.11-5.5-3.24-8.25-8.58-8.25-16.02,0-6.96,3.01-12.56,9.06-16.8s14.18-6.34,24.37-6.34c6.96,0,13.69.97,20.26,2.95,6.54,1.94,12.85,4.86,18.94,8.71l-6.38,10.49c-5.05-3.4-10.49-6.02-16.31-7.9-5.83-1.85-11.39-2.78-16.7-2.78-6.15,0-11.1,1.07-14.83,3.2-3.72,2.17-5.6,4.95-5.6,8.42s1.88,6.15,5.63,7.67,10.29,2.27,19.58,2.27c12.92,0,22.63,2.17,29.2,6.54s9.87,10.84,9.87,19.45c0,7.64-3.33,13.98-10,19.07-6.67,5.05-15.31,7.57-25.93,7.57-7.87,0-15.63-1.13-23.4-3.37-7.74-2.23-14.83-5.41-21.27-9.52"/>
      <polygon class="cls-5" points="1270.22 1177.47 1270.22 1096.67 1282.84 1096.67 1282.84 1132.6 1325.76 1096.67 1342.47 1096.67 1308.48 1125.42 1347.52 1177.47 1333.31 1177.47 1299.55 1132.8 1282.84 1146.94 1282.84 1177.47 1270.22 1177.47"/>
      <rect class="cls-5" x="1362.51" y="1096.28" width="12.82" height="81.18"/>
      <path class="cls-2" d="M762.25,672.22s213.12-185.4,226.19-447.92c0,0-35.58,206.62-161.17,348.66,0,0-98.38-124.49-48.55-217.03,49.84-92.53,236.56-209.42,217.27-355.36,0,0,246.37,453.04-140.48,595.08,0,0-55.09,75.55-83.16,99.36,0,0-22.67-2.44-10.11-22.78h0Z"/>
      <path class="cls-4" d="M762.25,672.22s213.12-185.4,226.19-447.92c0,0-35.58,206.62-161.17,348.66,0,0-98.38-124.49-48.55-217.03,49.84-92.53,236.56-209.42,217.27-355.36,0,0,246.37,453.04-140.48,595.08,0,0-55.09,75.55-83.16,99.36,0,0-22.67-2.44-10.11-22.78h0Z"/>
      <path class="cls-2" d="M715.8,693.48s-91.1-221.14-296.91-304.52c0,0,155.26,85.76,235.08,225.18,0,0-125.42,43.68-185.94-21.71-60.51-65.38-104.02-246.46-225.5-271.69,0,0,426.72-70.08,437.04,277.24,0,0,45.57,64.85,57.08,93.8,0,0-7.97,17.36-20.85,1.71h0Z"/>
      <path class="cls-1" d="M715.8,693.48s-91.1-221.14-296.91-304.52c0,0,155.26,85.76,235.08,225.18,0,0-125.42,43.68-185.94-21.71-60.51-65.38-104.02-246.46-225.5-271.69,0,0,426.72-70.08,437.04,277.24,0,0,45.57,64.85,57.08,93.8,0,0-7.97,17.36-20.85,1.71h0Z"/>
      <path class="cls-2" d="M941.07,680.85s186.81-38.49,282.75-187.35c0,0-90.28,108.89-211.39,150.7,0,0-15.57-104.76,44.66-142.45,60.23-37.69,208.57-44.85,246.41-136.27,0,0-8.55,344.76-282.21,301.19,0,0-57.58,26.06-81.98,30.78,0,0-12.41-8.83,1.76-16.59h0Z"/>
      <path class="cls-3" d="M941.07,680.85s186.81-38.49,282.75-187.35c0,0-90.28,108.89-211.39,150.7,0,0-15.57-104.76,44.66-142.45,60.23-37.69,208.57-44.85,246.41-136.27,0,0-8.55,344.76-282.21,301.19,0,0-57.58,26.06-81.98,30.78,0,0-12.41-8.83,1.76-16.59h0Z"/>
      <path class="cls-5" d="M200.45,923.38v-34.73h-64.62v-27.25h94.07v71.21c-11.43,19.71-26.37,34.8-44.76,45.35-18.39,10.48-39.27,15.75-62.57,15.75-35.46,0-64.76-11.72-87.92-35.09C11.58,935.25,0,905.58,0,869.6s11.58-65.79,34.73-89.16c23.22-23.37,52.46-35.09,87.77-35.09,21.91,0,41.91,4.76,59.93,14.36,18.02,9.6,32.68,23.3,43.96,41.03l-24.62,17.58c-7.47-14.14-18.17-25.28-32.24-33.26-13.99-7.99-29.67-12.02-46.96-12.02-26.59,0-48.65,9.16-66.08,27.4-17.44,18.24-26.15,41.32-26.15,69.16s8.72,50.99,26.15,69.16c17.44,18.17,39.49,27.25,66.08,27.25,16.63,0,31.36-3.59,44.32-10.7,12.89-7.18,24.1-17.8,33.55-31.94"/>
      <path class="cls-5" d="M677.1,987.56l93.26-183.3h18.02l94,183.3h-30.7l-23.81-46.6h-96.78l-23.66,46.6h-30.33ZM743.55,916.79h71.65l-35.61-70.26-36.05,70.26h0Z"/>
      <path class="cls-5" d="M914.1,987.56v-236.93h140.15c23.3,0,40.95,4.98,52.9,14.95,11.94,9.96,17.95,24.62,17.95,44.1,0,9.45-1.83,17.88-5.57,25.35s-9.01,13.48-15.9,18.02c12.6,7.33,22.13,16.26,28.5,26.81,6.45,10.62,9.67,22.71,9.67,36.48,0,21.91-7.18,39.2-21.54,52.02-14.43,12.82-33.92,19.2-58.54,19.2h-147.63.01ZM943.56,960.3h123.96c13.48,0,24.1-3.96,31.87-11.87,7.77-7.99,11.65-18.83,11.65-32.53s-3.88-24.4-11.65-32.38c-7.77-7.99-18.39-12.02-31.87-12.02h-123.96v88.79h0ZM943.56,844.25h113.26c12.45,0,21.98-2.86,28.5-8.5,6.59-5.64,9.89-13.77,9.89-24.4s-3.15-19.49-9.52-25.13c-6.37-5.57-15.97-8.35-28.87-8.35h-113.26v66.38h0Z"/>
      <path class="cls-5" d="M237.89,987.56l93.26-183.3h18.02l94,183.3h-30.7l-23.81-46.6h-96.78l-23.66,46.6h-30.33,0ZM304.34,916.79h71.65l-35.61-70.26-36.05,70.26h0Z"/>
      <polygon class="cls-5" points="474.89 987.56 474.89 750.62 504.34 750.62 504.34 960.3 659.08 960.3 659.08 987.56 474.89 987.56"/>
      <path class="cls-5" d="M1139.54,987.56l93.26-183.3h18.02l94,183.3h-30.7l-23.81-46.6h-96.78l-23.66,46.6h-30.33ZM1205.99,916.79h71.65l-35.61-70.26-36.05,70.26h.01Z"/>
      <path class="cls-5" d="M1364.89,804.69h28.57v117.37c0,17.58,4.18,29.45,12.45,35.61,8.28,6.15,24.76,9.23,49.45,9.23s41.32-3.08,49.6-9.23c8.28-6.15,12.45-18.02,12.45-35.61v-117.37h28.57v124.84c0,22.49-7.11,38.68-21.32,48.72-14.29,10.04-37.44,15.02-69.67,15.02s-55.09-4.91-69.09-14.8c-13.99-9.89-21.03-26.15-21.03-48.94v-124.84h.02Z"/>
    </g>
  </g>
</svg>