<?xml version="1.0" encoding="UTF-8"?>
<svg id="Ebene_2" data-name="Ebene 2" xmlns="http://www.w3.org/2000/svg" viewBox="0 0 1288.87 565.22">
  <defs>
    <style>
      .cls-1 {
        fill: #fff;
      }

      .cls-2, .cls-3 {
        fill: #4a4a4a;
      }

      .cls-3 {
        stroke: #000;
        stroke-miterlimit: 10;
        stroke-width: .22px;
      }
    </style>
  </defs>
  <g id="Ebene_2-2" data-name="Ebene 2">
    <g id="Ebene_1-2" data-name="Ebene 1-2">
      <path class="cls-2" d="M0,546.77c2.93,1.93,8.72,3.47,14.01,3.47,12.94,0,19.22-7.29,19.22-15.73s-4.73-12.49-14.01-16.08c-7.57-2.92-10.91-5.43-10.91-10.53,0-3.75,2.84-8.21,10.34-8.21,4.96,0,8.63,1.63,10.43,2.6l1.94-5.75c-2.44-1.38-6.5-2.69-12.11-2.69-10.68,0-17.74,6.34-17.74,14.85,0,7.7,5.52,12.32,14.49,15.5,7.4,2.83,10.34,5.75,10.34,10.88,0,5.49-4.24,9.31-11.49,9.31-4.89,0-9.53-1.61-12.69-3.56l-1.8,5.93h-.02ZM72.85,532.23l5.86,17.2h7.57l-18.73-54.68h-8.54l-18.64,54.68h7.34l5.7-17.2h19.45-.01ZM54.85,526.72l5.37-15.82c1.06-3.31,1.96-6.64,2.77-9.89h.16c.81,3.15,1.64,6.42,2.84,9.98l5.37,15.73h-16.52,0ZM102.62,549.43v-23.36c0-9.08-.16-15.66-.56-22.56l.23-.07c2.77,5.91,6.43,12.16,10.27,18.23l17.42,27.75h7.15v-54.68h-6.67v22.88c0,8.53.16,15.18.81,22.47l-.16.09c-2.61-5.61-5.77-11.36-9.85-17.77l-17.58-27.66h-7.73v54.68h6.67ZM151.12,494.76v54.68h7.08v-54.68h-7.08ZM182.63,549.43h7.15v-48.68h16.77v-6h-40.63v6h16.71v48.68ZM236.49,532.23l5.86,17.2h7.57l-18.73-54.68h-8.54l-18.64,54.68h7.34l5.7-17.2h19.45-.01ZM218.5,526.72l5.37-15.82c1.06-3.31,1.96-6.64,2.77-9.89h.16c.81,3.15,1.64,6.42,2.84,9.98l5.37,15.73h-16.52.01ZM219.65,491.12c2.35,0,3.9-1.89,3.9-4.14s-1.64-4.07-3.83-4.07c-2.35,0-4.06,1.79-4.06,4.07s1.61,4.14,3.99,4.14ZM234.69,491.12c2.44,0,3.99-1.89,3.99-4.14s-1.64-4.07-3.9-4.07-3.99,1.79-3.99,4.07,1.55,4.14,3.9,4.14ZM259.6,549.43h7.08v-23.68h6.67c6.44.23,9.37,3.08,11.01,10.62,1.55,6.8,2.77,11.52,3.64,13.06h7.34c-1.15-2.12-2.44-7.38-4.24-15.01-1.29-5.68-3.81-9.56-8.05-11.01v-.26c5.79-1.95,10.34-6.74,10.34-13.95,0-4.21-1.55-7.96-4.32-10.37-3.41-3.08-8.3-4.46-15.87-4.46-4.87,0-10.01.39-13.59,1.13v53.94h-.01ZM266.68,500.43c1.13-.32,3.58-.64,6.99-.64,7.5.09,12.62,3.17,12.62,10.21,0,6.25-4.8,10.39-12.36,10.39h-7.24v-19.96h-.01ZM322.26,484.1v81.12h5.47v-81.12h-5.47ZM358.97,494.76v54.68h7.08v-25.64h26.53v25.64h7.18v-54.68h-7.18v22.88h-26.53v-22.88h-7.08ZM442.05,517.96h-21.32v-17.27h22.54v-5.93h-29.62v54.68h30.84v-5.93h-23.76v-19.71h21.32v-5.84ZM455.33,494.76v54.68h7.08v-54.68h-7.08ZM472.67,549.43h40.05v-5.93h-30.68v-.23l30.27-44.22v-4.3h-37.03v5.93h27.82v.23l-30.43,44.38v4.14h0ZM522.98,494.76v32.21c0,16.94,8.44,23.36,19.68,23.36,11.88,0,20.76-6.9,20.76-23.68v-31.89h-7.17v32.37c0,12.07-5.19,17.43-13.33,17.43-7.34,0-12.78-5.17-12.78-17.43v-32.37h-7.16ZM583.99,549.43v-23.36c0-9.08-.16-15.66-.56-22.56l.23-.07c2.77,5.91,6.43,12.16,10.27,18.23l17.42,27.75h7.15v-54.68h-6.67v22.88c0,8.53.16,15.18.81,22.47l-.16.09c-2.61-5.61-5.77-11.36-9.85-17.77l-17.58-27.66h-7.73v54.68h6.67,0ZM674.25,520.72h-18.06v5.68h11.14v16.3c-1.64.81-4.8,1.47-9.43,1.47-12.78,0-21.15-8.21-21.15-22.07s8.69-21.98,22.05-21.98c5.51,0,9.18,1.06,12.11,2.35l1.71-5.75c-2.35-1.13-7.31-2.51-13.66-2.51-18.41,0-29.62,11.91-29.71,28.21,0,8.53,2.93,15.82,7.66,20.38,5.35,5.1,12.21,7.22,20.51,7.22,7.4,0,13.65-1.86,16.84-3.01v-26.28h-.01ZM696.2,484.1v81.12h5.47v-81.12h-5.47ZM739.75,549.43l7.82-28.47c2.03-7.06,3.25-12.41,4.22-17.84h.16c.74,5.52,1.89,10.85,3.6,17.84l6.9,28.47h7.4l15.55-54.68h-7.24l-7.25,27.59c-1.7,6.81-3.25,12.9-4.38,18.9h-.16c-.81-5.77-2.29-12.26-3.83-18.74l-6.67-27.75h-7.41l-7.34,27.59c-1.87,7.06-3.58,13.55-4.47,18.97h-.16c-.97-5.27-2.44-12.07-4.06-18.9l-6.53-27.66h-7.48l13.91,54.68h7.42ZM817.58,532.23l5.86,17.2h7.57l-18.73-54.68h-8.54l-18.64,54.68h7.34l5.7-17.2h19.45-.01ZM799.59,526.72l5.37-15.82c1.06-3.31,1.96-6.64,2.77-9.89h.16c.81,3.15,1.64,6.42,2.84,9.98l5.38,15.73h-16.52ZM800.74,491.12c2.35,0,3.9-1.89,3.9-4.14s-1.64-4.07-3.83-4.07c-2.35,0-4.06,1.79-4.06,4.07s1.61,4.14,3.99,4.14ZM815.78,491.12c2.44,0,3.99-1.89,3.99-4.14s-1.64-4.07-3.9-4.07-3.99,1.79-3.99,4.07,1.55,4.14,3.9,4.14ZM840.69,549.43h7.08v-23.68h6.67c6.44.23,9.37,3.08,11.01,10.62,1.55,6.8,2.77,11.52,3.64,13.06h7.34c-1.15-2.12-2.44-7.38-4.24-15.01-1.29-5.68-3.81-9.56-8.05-11.01v-.26c5.79-1.95,10.34-6.74,10.34-13.95,0-4.21-1.55-7.96-4.32-10.37-3.41-3.08-8.3-4.46-15.87-4.46-4.87,0-10.01.39-13.59,1.13v53.94h-.01ZM847.77,500.43c1.13-.32,3.58-.64,6.99-.64,7.5.09,12.62,3.17,12.62,10.21,0,6.25-4.8,10.39-12.36,10.39h-7.24v-19.96h-.01ZM933.72,549.43h6.92l-3.41-54.68h-9.04l-9.76,26.44c-2.44,6.9-4.4,12.9-5.79,18.42h-.23c-1.38-5.68-3.28-11.68-5.54-18.42l-9.37-26.44h-9.04l-3.81,54.68h6.74l1.47-23.46c.49-8.18.9-17.34,1.06-24.17h.16c1.55,6.49,3.74,13.55,6.34,21.25l8.88,26.05h5.35l9.69-26.53c2.77-7.54,5.05-14.35,6.92-20.76h.25c-.09,6.83.39,15.98.81,23.62l1.38,24h.02ZM981.55,517.96h-21.32v-17.27h22.54v-5.93h-29.62v54.68h30.84v-5.93h-23.76v-19.71h21.32v-5.84ZM994.83,549.43h7.08v-21.91c1.64.41,3.58.51,5.7.51,6.92,0,13.01-2.05,16.77-6,2.77-2.85,4.22-6.74,4.22-11.68s-1.78-8.85-4.8-11.45c-3.25-2.92-8.37-4.53-15.39-4.53-5.7,0-10.17.48-13.59,1.03v54.03h.01ZM1001.91,500.53c1.22-.32,3.58-.57,6.67-.57,7.82,0,12.94,3.5,12.94,10.71s-5.21,11.68-13.75,11.68c-2.35,0-4.31-.16-5.86-.57v-21.24h0ZM1039.69,494.76v32.21c0,16.94,8.44,23.36,19.68,23.36,11.88,0,20.76-6.9,20.76-23.68v-31.89h-7.17v32.37c0,12.07-5.19,17.43-13.33,17.43-7.34,0-12.78-5.17-12.78-17.43v-32.37h-7.16ZM1141.65,549.43h6.92l-3.41-54.68h-9.05l-9.76,26.44c-2.44,6.9-4.4,12.9-5.79,18.42h-.23c-1.38-5.68-3.28-11.68-5.54-18.42l-9.37-26.44h-9.04l-3.81,54.68h6.74l1.47-23.46c.49-8.18.9-17.34,1.06-24.17h.16c1.55,6.49,3.74,13.55,6.34,21.25l8.88,26.05h5.35l9.69-26.53c2.77-7.54,5.05-14.35,6.92-20.76h.25c-.09,6.83.39,15.98.81,23.62l1.38,24h.03ZM1161.09,549.43h7.08v-21.91c1.64.41,3.58.51,5.7.51,6.92,0,13.01-2.05,16.77-6,2.77-2.85,4.22-6.74,4.22-11.68s-1.78-8.85-4.8-11.45c-3.25-2.92-8.37-4.53-15.39-4.53-5.7,0-10.17.48-13.59,1.03v54.03h.01ZM1168.17,500.53c1.22-.32,3.58-.57,6.67-.57,7.82,0,12.94,3.5,12.94,10.71s-5.21,11.68-13.75,11.68c-2.35,0-4.31-.16-5.86-.57v-21.24h0ZM1234.42,517.96h-21.32v-17.27h22.54v-5.93h-29.62v54.68h30.84v-5.93h-23.76v-19.71h21.32v-5.84ZM1254.36,549.43v-23.36c0-9.08-.16-15.66-.56-22.56l.23-.07c2.77,5.91,6.43,12.16,10.27,18.23l17.42,27.75h7.15v-54.68h-6.67v22.88c0,8.53.16,15.18.81,22.47l-.16.09c-2.61-5.61-5.77-11.36-9.85-17.77l-17.58-27.66h-7.73v54.68h6.67,0Z"/>
      <rect class="cls-2" x="111.71" y="109.96" width="78.28" height="12.48"/>
      <path class="cls-3" d="M191.51,126.42l.18,17.42c0,.34.94.53,1.32.63,67.22,16.86,115.25,77.71,117.02,150.12,1.26,51.78-29.56,88.54-54.45,117.92-.19.22-.26.54-.45.77-6.71,8.45-13.8,19.79-9.09,33.29H72.89c-.35,0-1.33.07-1.52.15,1.32-2.69,1.19-2.54,1.87-9.9.68-7.37-6.25-19.01-13.32-25.22-12.04-9.08-30.38-28.47-40.57-47.16C7.96,343.54.5,320.02.5,294.6c0-71.03,47.88-130.9,113.1-149.09.1-.03.03-.13.04-.31l.42-18.66,20.7-.04.07,13.43,35.96-.21.1-13.39,20.62.1h0Z"/>
      <path class="cls-1" d="M155.32,405.39c45.56,0,86.58-27.83,99.75-68.78,3.65-11.36,8.39-64.98,6.93-79.19-.86-8.47-29.03,40.77-28.15,35.49,10.48-63.37-23.4-75.54-35.1-90.58-3.5-4.49-.13,21.5-1.99,21.36-.45-.04-.81-1.11-1.4-1.51-8.93-6.01-34.28-50.15-39.86-60.33-1.44-2.63-2.31,9.91-6.29,19.38-3.91,9.29-10.58,16.04-12.48,16.04-2.76,0-.19-13.49-.98-13.39-10.56,1.36-30.04,25.56-30.13,36.48-.04,3.97-7.67-10.52-7.11-16.82.09-1.03-.94-1.1-1.11-.23-1.63,8.78-12.92,22.43-22.34,35.52-11.36,15.77-15.76,37.07-10.82,60.13.11.48.24-.65-.96-1.09-5.95-2.14-11.61-21.21-10.65-21.99.6-.5-4.33,14.44-3.64,20.44.09.77-.19,1.32-.19,1.6,0,58.91,47.61,107.46,106.52,107.46h0ZM104.96,266.37h3.86c1.62,0,2.95,1.37,2.95,3.03v87.61c0,1.67-1.33,3.03-2.95,3.03h-3.86c-1.62,0-2.95-1.36-2.95-3.03v-87.61c0-1.66,1.33-3.03,2.95-3.03h0ZM123.79,266.37h3.86c1.62,0,2.94,1.37,2.94,3.03v87.61c0,1.67-1.32,3.03-2.94,3.03h-3.86c-1.62,0-2.94-1.36-2.94-3.03v-87.61c0-1.66,1.32-3.03,2.94-3.03h0ZM142.63,266.37h3.86c1.62,0,2.95,1.37,2.95,3.03v87.61c0,1.67-1.33,3.03-2.95,3.03h-3.86c-1.62,0-2.95-1.36-2.95-3.03v-87.61c0-1.66,1.33-3.03,2.95-3.03h0ZM161.46,266.37h3.85c1.62,0,2.95,1.37,2.95,3.03v87.61c0,1.67-1.33,3.03-2.95,3.03h-3.85c-1.62,0-2.95-1.36-2.95-3.03v-87.61c0-1.66,1.33-3.03,2.95-3.03h0ZM180.3,266.37h3.85c1.62,0,2.94,1.37,2.94,3.03v87.61c0,1.67-1.32,3.03-2.94,3.03h-3.85c-1.63,0-2.95-1.36-2.95-3.03v-87.61c0-1.66,1.32-3.03,2.95-3.03h0ZM199.13,266.37h3.85c1.62,0,2.95,1.37,2.95,3.03v87.61c0,1.67-1.33,3.03-2.95,3.03h-3.85c-1.62,0-2.95-1.36-2.95-3.03v-87.61c0-1.66,1.33-3.03,2.95-3.03h0ZM96.7,246h.79c1.17,3.81,4.83,6.58,9.17,6.58s8-2.77,9.18-6.58h.8c1.17,3.81,4.84,6.58,9.18,6.58s8-2.77,9.18-6.58h.79c1.18,3.81,4.84,6.58,9.17,6.58s8-2.77,9.18-6.58h.8c1.18,3.81,4.84,6.58,9.18,6.58s8-2.77,9.18-6.58h.79c1.18,3.81,4.84,6.58,9.17,6.58s8.01-2.77,9.19-6.58h.78c1.18,3.81,4.84,6.58,9.18,6.58s8-2.77,9.18-6.58h.79c1.18,3.81,4.84,6.58,9.19,6.58.82,0,1.61-.1,2.37-.28v11.37c-4.09-.47-7.36.71-8.09,3.57v87.6c.94,4.45,4.52,4.82,8.09,5.09v11.25c-.76-.18-1.56-.28-2.37-.28-4.62,0-8.48,3.15-9.38,7.33h-.4c-.89-4.18-4.75-7.33-9.37-7.33s-8.48,3.15-9.37,7.33h-.4c-.9-4.18-4.76-7.33-9.38-7.33s-8.47,3.15-9.37,7.33h-.4c-.91-4.18-4.76-7.33-9.37-7.33s-8.48,3.15-9.37,7.33h-.4c-.9-4.18-4.76-7.33-9.38-7.33s-8.47,3.15-9.37,7.33h-.4c-.9-4.18-4.76-7.33-9.37-7.33s-8.48,3.15-9.38,7.33h-.4c-.89-4.18-4.75-7.33-9.37-7.33s-8.47,3.15-9.37,7.33h-.4c-.9-4.18-4.76-7.33-9.38-7.33-.62,0-1.23.06-1.83.17v-11.42c2.54-.44,4.7-1.49,5.4-4.8v-87.6c-.56-2.2-2.62-3.4-5.4-3.63v-11.2c.59.11,1.21.17,1.83.17,4.34,0,8.01-2.77,9.19-6.58h-.03Z"/>
      <g>
        <path class="cls-2" d="M212.36,246h-.79c-1.17,3.81-4.84,6.58-9.18,6.58s-8-2.77-9.18-6.58h-.78c-1.18,3.81-4.85,6.58-9.19,6.58s-8-2.77-9.17-6.58h-.79c-1.17,3.81-4.84,6.58-9.18,6.58s-8-2.77-9.18-6.58h-.8c-1.18,3.81-4.84,6.58-9.18,6.58s-8-2.77-9.17-6.58h-.79c-1.18,3.81-4.84,6.58-9.18,6.58s-8.01-2.77-9.18-6.58h-.8c-1.18,3.81-4.84,6.58-9.18,6.58s-8-2.77-9.17-6.58h-.79c-1.18,3.81-4.84,6.58-9.19,6.58-.62,0-1.23-.06-1.83-.17v11.2c2.78.23,4.84,1.43,5.4,3.63v87.6c-.7,3.31-2.87,4.36-5.4,4.8v11.42c.59-.11,1.21-.17,1.83-.17,4.62,0,8.48,3.15,9.38,7.33h.4c.9-4.18,4.75-7.33,9.37-7.33s8.48,3.15,9.37,7.33h.4c.9-4.18,4.76-7.33,9.38-7.33s8.47,3.15,9.37,7.33h.4c.9-4.18,4.76-7.33,9.37-7.33s8.48,3.15,9.38,7.33h.4c.89-4.18,4.75-7.33,9.37-7.33s8.47,3.15,9.37,7.33h.4c.9-4.18,4.76-7.33,9.37-7.33s8.48,3.15,9.38,7.33h.4c.89-4.18,4.75-7.33,9.37-7.33s8.48,3.15,9.37,7.33h.4c.9-4.18,4.76-7.33,9.38-7.33.82,0,1.61.1,2.37.28v-11.25c-3.57-.27-7.15-.64-8.09-5.09v-87.6c.73-2.86,4-4.04,8.09-3.57v-11.37c-.76.18-1.56.28-2.37.28-4.34,0-8.01-2.77-9.19-6.58h.03ZM111.77,357.02c0,1.67-1.33,3.03-2.95,3.03h-3.86c-1.62,0-2.95-1.36-2.95-3.03v-87.61c0-1.66,1.33-3.03,2.95-3.03h3.86c1.62,0,2.95,1.37,2.95,3.03v87.61h0ZM130.6,357.02c0,1.67-1.32,3.03-2.94,3.03h-3.86c-1.62,0-2.94-1.36-2.94-3.03v-87.61c0-1.66,1.32-3.03,2.94-3.03h3.86c1.62,0,2.94,1.37,2.94,3.03v87.61h0ZM149.44,357.02c0,1.67-1.33,3.03-2.95,3.03h-3.86c-1.62,0-2.95-1.36-2.95-3.03v-87.61c0-1.66,1.33-3.03,2.95-3.03h3.86c1.62,0,2.95,1.37,2.95,3.03v87.61h0ZM168.27,357.02c0,1.67-1.33,3.03-2.95,3.03h-3.85c-1.62,0-2.95-1.36-2.95-3.03v-87.61c0-1.66,1.33-3.03,2.95-3.03h3.85c1.62,0,2.95,1.37,2.95,3.03v87.61h0ZM187.1,357.02c0,1.67-1.32,3.03-2.94,3.03h-3.85c-1.63,0-2.95-1.36-2.95-3.03v-87.61c0-1.66,1.32-3.03,2.95-3.03h3.85c1.62,0,2.94,1.37,2.94,3.03v87.61h0ZM205.94,357.02c0,1.67-1.33,3.03-2.95,3.03h-3.85c-1.62,0-2.95-1.36-2.95-3.03v-87.61c0-1.66,1.33-3.03,2.95-3.03h3.85c1.62,0,2.95,1.37,2.95,3.03v87.61h0Z"/>
        <path class="cls-2" d="M310.03,294.6c-1.77-72.42-49.8-133.27-117.02-150.12-.38-.1-1.32-.29-1.32-.63l-.18-17.42-20.62-.1-.1,13.39-35.96.21-.07-13.43-20.7.04-.42,18.66c0,.18.06.28-.04.31C48.38,163.7.5,223.57.5,294.6c0,25.42,7.46,48.94,18.84,69.83,10.19,18.69,28.53,38.09,40.57,47.16,7.07,6.21,14,17.85,13.32,25.22-.68,7.36-.55,7.22-1.87,9.9.19-.08,1.17-.15,1.52-.15h173.16c-4.71-13.5,2.38-24.84,9.09-33.29.18-.22.25-.54.45-.77,24.89-29.38,55.71-66.14,54.45-117.92v.02ZM255.07,336.61c-13.17,40.95-54.19,68.78-99.75,68.78-58.91,0-106.52-48.56-106.52-107.46,0-.28.28-.83.19-1.6-.58-5.05,2.82-16.42,3.55-19.61-.04-.45-.02-.75.09-.84.1-.08.05.23-.09.84.33,3.82,5.41,19.24,10.73,21.16.49.18.75.47.89.73-4.82-22.92-.42-44.08,10.89-59.77,9.42-13.09,20.7-26.74,22.34-35.52.16-.86,1.19-.8,1.11.23-.56,6.3,7.07,20.79,7.11,16.82.1-10.93,19.58-35.12,30.13-36.48.79-.1-1.78,13.39.98,13.39,1.9,0,8.57-6.75,12.48-16.04,3.98-9.48,4.85-22.02,6.29-19.38,5.58,10.19,30.93,54.32,39.86,60.33.59.4.95,1.47,1.4,1.51,1.86.13-1.51-25.85,1.99-21.36,11.7,15.04,45.57,27.22,35.1,90.58-.88,5.27,27.29-43.96,28.15-35.49,1.46,14.22-3.27,67.83-6.93,79.19h.01Z"/>
        <path class="cls-2" d="M52.63,275.88c-.1.08-.13.38-.09.84.14-.6.18-.92.09-.84Z"/>
        <path class="cls-2" d="M64.17,298.6c.03.12.04.24.07.36.06.28.13,0-.07-.36Z"/>
      </g>
      <path class="cls-2" d="M593.68,427.98v-171.84h-104.16l-14.88,73.26h39.68v29.48c-5.72,1.84-11.06,2.77-15.26,2.77-29.38,0-52.66-30.87-52.66-73.71s21.75-73.25,55.33-73.25c17.93,0,32.81,6.91,46.92,21.65l43.49-78.32c-26.71-26.26-55.32-37.78-90.42-37.78-38.16,0-72.11,16.13-98.05,45.61-26.71,30.86-40.82,71.86-40.82,122.08s14.12,91.22,40.82,122.08c25.94,29.49,59.9,45.69,98.05,45.69,28.99,0,60.28-9.29,91.94-27.72"/>
      <polygon class="cls-2" points="628.78 447.79 779.86 447.79 796.27 357.5 712.72 357.5 712.72 325.24 762.69 325.24 762.69 243.24 712.72 243.24 712.72 213.3 791.31 213.3 775.67 128.07 628.78 128.07 628.78 447.79"/>
      <polygon class="cls-2" points="814.96 452.02 898.9 445.02 898.9 329.39 947.35 329.39 947.35 452.02 1031.29 446.41 1031.29 125.31 947.35 133.6 947.35 236.79 898.9 236.79 898.9 125.76 814.96 132.67 814.96 452.02"/>
      <polygon class="cls-2" points="1070.97 447.79 1266.35 447.79 1284.28 353.35 1154.9 353.35 1154.9 124.39 1070.97 132.21 1070.97 447.79"/>
      <path class="cls-2" d="M1135.8,181.31l-1.27-11.59h-13.48c-3.9,0-5.62-1.89-5.62-6.25v-.46l-10.9-2.58c-.06.57-.06,1.15-.06,1.66,0,4.59,1.55,7.34,5.05,8.66h-4.82l.92,10.55h30.18,0ZM1120.42,202.47c-.75.34-1.38.46-1.95.46-3.15,0-5.05-1.95-5.05-4.99,0-1.15.4-2.12,1.26-3.04l5.74,7.57h0ZM1131.66,184l-8.66,5.05c1.84,2.52,2.81,4.7,2.81,6.83,0,.86-.17,1.72-.52,2.7l-11.59-15.14c-6.02,3.27-9.01,8.03-9.01,14.05,0,9.81,6.48,16.35,15.6,16.35s15.73-6.54,15.73-16.35c0-5.16-1.39-9.46-4.37-13.48h.01ZM1120.31,228.97c2.75,0,4.7,1.84,4.7,4.59s-1.95,4.65-4.7,4.65-4.7-1.89-4.7-4.65,1.95-4.59,4.7-4.59ZM1093.4,217.39l1.03,11.59h13.02c-1.61,1.66-2.41,4.07-2.41,7.23,0,8.15,6.25,13.94,15.37,13.94s15.32-5.74,15.32-13.48c0-3.44-1.16-6.2-3.34-8.38h3.34l-.93-10.9h-41.42.02ZM1104.7,253.64l1.03,11.59h17.04c1.61,0,2.47.75,2.47,1.95s-.86,1.95-2.47,1.95h-18.07l1.03,11.47h19.39c7.17,0,10.68-2.58,10.68-8.26,0-3.44-1.39-6.02-4.2-8.03h4.02l-1.04-10.67h-29.89,0ZM1101.61,261.61l-5.22-5.16-5.16,5.16,5.16,5.16,5.22-5.16ZM1101.61,272.8l-5.22-5.16-5.16,5.16,5.16,5.16,5.22-5.16ZM1135.8,303.26l-1.27-11.59h-13.48c-3.9,0-5.62-1.89-5.62-6.25v-.46l-10.9-2.58c-.06.57-.06,1.15-.06,1.66,0,4.59,1.55,7.34,5.05,8.66h-4.82l.92,10.55h30.18,0ZM1120.19,327.87c-2.75,0-4.76-1.84-4.76-4.59s2.01-4.65,4.76-4.65,4.7,1.89,4.7,4.65-1.95,4.59-4.7,4.59ZM1118.13,339.4c11.7,0,17.91-5.79,17.91-15.83s-6.32-16.86-15.61-16.86-15.26,5.74-15.26,13.77c0,3.27.98,5.68,2.7,7.4h-14.46l1.09,11.53h23.63ZM1120.42,359.7c-.75.34-1.38.46-1.95.46-3.15,0-5.05-1.95-5.05-4.99,0-1.15.4-2.12,1.26-3.04l5.74,7.57ZM1131.66,341.23l-8.66,5.05c1.84,2.52,2.81,4.7,2.81,6.83,0,.86-.17,1.72-.52,2.7l-11.59-15.14c-6.02,3.27-9.01,8.03-9.01,14.05,0,9.81,6.48,16.35,15.6,16.35s15.73-6.54,15.73-16.35c0-5.16-1.39-9.46-4.37-13.48h.01ZM1132.64,374.44h-21.4v15.66l9.12,2.24v-5.97h3.67c.23.86.34,1.66.34,2.29,0,4.42-3.84,7.92-9.18,7.92s-9.12-3.27-9.12-8.32c0-2.7.86-4.93,2.7-7.06l-9.75-6.54c-3.27,4.02-4.7,8.32-4.7,13.59,0,5.74,2.01,10.84,5.68,14.74,3.84,4.02,8.95,6.14,15.2,6.14s11.36-2.12,15.2-6.14c3.67-3.9,5.69-9.01,5.69-14.74,0-4.36-1.16-9.06-3.45-13.82h0Z"/>
      <path class="cls-2" d="M652.87,74.16h9.21v-26.94c0-1.46.1-3.02.41-4.29,1.24-6.87,5.85-11.77,12.31-11.77,1.27,0,2.19.1,3.14.29v-8.63c-.83-.17-1.56-.29-2.61-.29-6.17,0-11.7,4.27-14.11,11.12h-.32l-.29-10.09h-8.17c.32,4.83.41,9.82.41,15.8v34.81h.02ZM605.9,44.03c.73-6.34,4.8-14.8,14.09-14.8,10.34,0,12.85,9.07,12.75,14.8h-26.84ZM597.02,49.88c0,15.16,9.29,25.45,24.84,25.45,7.95,0,13.7-1.78,16.82-3.22l-1.56-6.56c-3.46,1.46-7.41,2.61-14.11,2.61-9.19,0-17.02-5.12-17.21-17.55h35.4c.32-1.05.41-2.29.41-4.29,0-9.26-4.39-23.77-20.79-23.77-14.82,0-23.79,11.99-23.79,27.33h-.01ZM572.31,71.48c2.19,2.49,5.73,3.85,10.02,3.85,3.56,0,6.36-.63,8.14-1.37l-.41-6.97c-1.24.41-2.93.73-5.34.73-5.12,0-6.87-3.56-6.87-9.82v-27.33h13.16v-7.02h-13.16v-14.5l-9.07,2.39v12.12h-7.83v7.02h7.83v27.64c0,5.95,1.05,10.34,3.53,13.26h0ZM521.84,71.79c3.56,2.07,8.65,3.53,14.19,3.53,11.95,0,18.84-6.34,18.84-15.24,0-7.63-4.58-11.92-13.24-15.16-6.66-2.61-9.56-4.49-9.56-8.68,0-3.75,3-7,8.41-7,4.56,0,8.34,1.88,10.31,3.02l2.19-6.66c-2.71-1.63-7.09-3.1-12.31-3.1-10.8,0-17.38,6.61-17.38,14.77,0,6.07,4.29,11.09,13.33,14.43,6.75,2.51,9.36,4.8,9.36,9.19s-3.12,7.53-9.78,7.53c-4.56,0-9.36-1.88-12.07-3.53l-2.32,6.87.03.03ZM505.29,15.07c3.66,0,5.95-2.51,5.85-5.66,0-3.24-2.19-5.75-5.66-5.75s-5.75,2.63-5.75,5.75,2.19,5.66,5.56,5.66ZM500.9,74.16h9.07V23.55h-9.07v50.61ZM453.78,44.03c.73-6.34,4.8-14.8,14.09-14.8,10.34,0,12.85,9.07,12.75,14.8h-26.84ZM444.91,49.88c0,15.16,9.29,25.45,24.84,25.45,7.95,0,13.7-1.78,16.82-3.22l-1.56-6.56c-3.46,1.46-7.41,2.61-14.11,2.61-9.19,0-17.02-5.12-17.21-17.55h35.4c.32-1.05.41-2.29.41-4.29,0-9.26-4.39-23.77-20.79-23.77-14.82,0-23.79,11.99-23.79,27.33h-.01ZM362.58,74.16h8.68l1.88-30.16c.61-10.65,1.05-22.33,1.34-30.98h.22c1.97,8.24,4.71,17.31,8.14,27.23l11.17,33.47h7.19l12.21-33.69c3.34-9.39,6.58-18.89,8.97-27.01h.32c-.1,8.65.54,20.53,1.15,30.23l1.56,30.91h9l-4.39-70.35h-11.58l-12.53,34.03c-3.24,8.85-5.73,17.09-7.41,24.18h-.41c-1.78-7.29-4.07-15.53-7-24.09l-11.99-34.13h-11.58l-4.92,70.35h-.02Z"/>
      <path class="cls-2" d="M826.08,74.16h9.21v-26.94c0-1.46.1-3.02.41-4.29,1.24-6.87,5.85-11.77,12.31-11.77,1.27,0,2.19.1,3.14.29v-8.63c-.83-.17-1.56-.29-2.61-.29-6.17,0-11.7,4.27-14.11,11.12h-.32l-.29-10.09h-8.17c.32,4.83.41,9.82.41,15.8v34.81h.02ZM779.1,44.03c.73-6.34,4.8-14.8,14.09-14.8,10.34,0,12.85,9.07,12.75,14.8h-26.84ZM770.23,49.88c0,15.16,9.29,25.45,24.84,25.45,7.95,0,13.7-1.78,16.82-3.22l-1.56-6.56c-3.46,1.46-7.41,2.61-14.11,2.61-9.19,0-17.02-5.12-17.21-17.55h35.4c.32-1.05.41-2.29.41-4.29,0-9.26-4.39-23.77-20.79-23.77-14.82,0-23.79,11.99-23.79,27.33h-.01ZM720.64,49.24c0-11.07,5.66-19.4,15.16-19.4,6.9,0,11.92,4.68,13.26,10.43.32,1.34.41,2.8.41,3.95v8.78c0,1.46-.1,2.71-.41,3.97-1.78,6.87-7.31,11.04-13.48,11.04-9.92,0-14.94-8.56-14.94-18.77ZM711.33,49.66c0,15.33,9.41,25.67,21.75,25.67,8.17,0,14.33-4.17,17.04-9.8h.32l.41,8.63h8.12c-.22-3.46-.41-8.46-.41-12.94V0h-9.07v30.25h-.2c-2.32-4.07-7.53-7.73-15.26-7.73-12.34,0-22.79,10.34-22.7,27.13h0Z"/>
      <path class="cls-2" d="M1252.45,44.03c.73-6.34,4.8-14.8,14.09-14.8,10.34,0,12.85,9.07,12.75,14.8h-26.84ZM1243.58,49.88c0,15.16,9.29,25.45,24.84,25.45,7.95,0,13.7-1.78,16.82-3.22l-1.56-6.56c-3.46,1.46-7.41,2.61-14.11,2.61-9.19,0-17.02-5.12-17.21-17.55h35.4c.32-1.05.41-2.29.41-4.29,0-9.26-4.39-23.77-20.79-23.77-14.82,0-23.79,11.99-23.79,27.33h0ZM1218.86,71.48c2.19,2.49,5.73,3.85,10.02,3.85,3.56,0,6.36-.63,8.14-1.37l-.41-6.97c-1.24.41-2.93.73-5.34.73-5.12,0-6.87-3.56-6.87-9.82v-27.33h13.16v-7.02h-13.16v-14.5l-9.07,2.39v12.12h-7.83v7.02h7.83v27.64c0,5.95,1.05,10.34,3.53,13.26h0ZM1155.72,74.16h9.07v-30.37c0-1.56.32-3.12.73-4.27,1.68-5.22,6.29-9.39,12.38-9.39,8.61,0,11.75,6.78,11.75,15.02v29.01h9.07v-30.16c0-17.21-10.85-21.48-17.77-21.48-8.41,0-14.29,4.8-16.8,9.48h-.32l-.41-8.46h-8.12c.22,4.29.41,8.48.41,13.7v36.91h.01ZM1108.6,44.03c.73-6.34,4.8-14.8,14.09-14.8,10.34,0,12.85,9.07,12.75,14.8h-26.84ZM1099.72,49.88c0,15.16,9.29,25.45,24.84,25.45,7.95,0,13.7-1.78,16.82-3.22l-1.56-6.56c-3.46,1.46-7.41,2.61-14.11,2.61-9.19,0-17.02-5.12-17.21-17.55h35.4c.32-1.05.41-2.29.41-4.29,0-9.26-4.39-23.77-20.79-23.77-14.82,0-23.79,11.99-23.79,27.33h0ZM1016.25,74.16h8.92v-30.47c0-1.46.19-3.12.61-4.49,1.58-4.58,5.75-9.07,11.51-9.07,6.92,0,10.58,5.73,10.58,13.77v30.25h8.87v-31.2c0-1.66.41-3.24.83-4.71,1.58-4.36,5.66-8.12,10.9-8.12,7.41,0,10.97,5.73,10.97,15.53v28.5h8.92v-29.74c0-17.53-9.85-21.89-16.55-21.89-4.8,0-8.04,1.27-11.19,3.53-2.1,1.56-4.07,3.75-5.66,6.56h-.2c-2.19-5.83-7.44-10.09-14.33-10.09-8.46,0-13.19,4.49-15.99,9.26h-.22l-.41-8.24h-7.97c.22,4.29.41,8.48.41,13.7v36.91h0ZM969.13,44.03c.73-6.34,4.8-14.8,14.09-14.8,10.34,0,12.85,9.07,12.75,14.8h-26.84ZM960.26,49.88c0,15.16,9.29,25.45,24.84,25.45,7.95,0,13.7-1.78,16.82-3.22l-1.56-6.56c-3.46,1.46-7.41,2.61-14.11,2.61-9.19,0-17.02-5.12-17.21-17.55h35.4c.32-1.05.41-2.29.41-4.29,0-9.26-4.39-23.77-20.79-23.77-14.82,0-23.79,11.99-23.79,27.33h-.01ZM939.36,74.16h9.07V0h-9.07v74.16ZM888.32,74.16h39.71v-7.46h-30.5v-25.6h27.25v-7.46h-27.25V11.26h28.94V3.8h-38.15v70.35h0Z"/>
    </g>
  </g>
</svg>