<?xml version="1.0" encoding="UTF-8"?>
<svg id="Ebene_2" data-name="Ebene 2" xmlns="http://www.w3.org/2000/svg" xmlns:xlink="http://www.w3.org/1999/xlink" viewBox="0 0 282.76 69.01">
  <defs>
    <style>
      .cls-1, .cls-2, .cls-3, .cls-4, .cls-5 {
        fill: none;
      }

      .cls-6 {
        fill: #525252;
      }

      .cls-6, .cls-7, .cls-8 {
        fill-rule: evenodd;
      }

      .cls-2, .cls-4 {
        stroke-miterlimit: 22.93;
      }

      .cls-2, .cls-4, .cls-5 {
        stroke-width: .13px;
      }

      .cls-2, .cls-5 {
        stroke: #3b3b3b;
      }

      .cls-7 {
        fill: #fff;
      }

      .cls-3 {
        stroke-width: .88px;
      }

      .cls-3, .cls-4 {
        stroke: #242424;
      }

      .cls-3, .cls-5 {
        stroke-linecap: round;
        stroke-linejoin: round;
      }

      .cls-9 {
        fill: #919191;
      }

      .cls-10 {
        fill: #3d3d3d;
      }

      .cls-11 {
        clip-path: url(#clippath-1);
      }

      .cls-12 {
        clip-path: url(#clippath-3);
      }

      .cls-13 {
        clip-path: url(#clippath-4);
      }

      .cls-14 {
        clip-path: url(#clippath-2);
      }

      .cls-15, .cls-8 {
        fill: #242424;
      }

      .cls-16 {
        clip-path: url(#clippath);
      }
    </style>
    <clipPath id="clippath">
      <rect class="cls-1" width="282.76" height="69.01"/>
    </clipPath>
    <clipPath id="clippath-1">
      <rect class="cls-1" width="282.7" height="69.01"/>
    </clipPath>
    <clipPath id="clippath-2">
      <rect class="cls-1" width="282.76" height="69.01"/>
    </clipPath>
    <clipPath id="clippath-3">
      <rect class="cls-1" width="282.7" height="69.01"/>
    </clipPath>
    <clipPath id="clippath-4">
      <rect class="cls-1" width="282.76" height="69.01"/>
    </clipPath>
  </defs>
  <g id="Ebene_2-2" data-name="Ebene 2">
    <g id="Ebene_2-2" data-name="Ebene 2-2">
      <g id="Ebene_1-2" data-name="Ebene 1-2">
        <g class="cls-16">
          <path class="cls-6" d="M28.72,2.53c.6.95,0,2.05,1.05,2.36,2.4-.63,3.31.95,4.66,1.89.45,2.05-1.5,4.57.15,5.83.9.47,2.4.32,3.01,1.42,0,1.1,1.2,2.21,0,3.15-1.5,1.42-1.8,2.52-1.35,4.41,1.2,1.1,2.71,1.73,2.25,3.47-.15.47-.15,1.42-.45,2.36-.9.63-2.71.63-2.71,1.73-.9,1.42,1.2,3.15,1.2,5.04-.9,1.1-1.2,4.26-3.76,3.62-1.95.63.3,4.26-1.95,4.41-1.95,1.58-5.86.47-7.82,1.26-2.55-.16-5.11.16-6.76-2.05-.15-.47.15-2.52-1.2-2.36-3.16,1.1-3.91-2.21-4.96-3.78.45-1.58,1.35-2.36,1.95-4.1-.15-2.99-3.31-1.26-4.51-3.31.3-1.26-1.05-4.1,1.05-4.89.75-.47,1.95-.63,2.1-1.42,1.2-2.52-2.4-3.62-2.71-5.67.9-1.42.45-3.78,2.55-4.26l2.71-.32c.9-1.42-.45-3.31-.45-4.89,1.2-2.68,4.36-2.05,6.61-2.52,2.71-1.89,6.01-2.52,9.32-1.42"/>
        </g>
        <g class="cls-11">
          <path class="cls-2" d="M28.72,2.53c.6.95,0,2.05,1.05,2.36,2.4-.63,3.31.95,4.66,1.89.45,2.05-1.5,4.57.15,5.83.9.47,2.4.32,3.01,1.42,0,1.1,1.2,2.21,0,3.15-1.5,1.42-1.8,2.52-1.35,4.41,1.2,1.1,2.71,1.73,2.25,3.47-.15.47-.15,1.42-.45,2.36-.9.63-2.71.63-2.71,1.73-.9,1.42,1.2,3.15,1.2,5.04-.9,1.1-1.2,4.26-3.76,3.62-1.95.63.3,4.26-1.95,4.41-1.95,1.58-5.86.47-7.82,1.26-2.55-.16-5.11.16-6.76-2.05-.15-.47.15-2.52-1.2-2.36-3.16,1.1-3.91-2.21-4.96-3.78.45-1.58,1.35-2.36,1.95-4.1-.15-2.99-3.31-1.26-4.51-3.31.3-1.26-1.05-4.1,1.05-4.89.75-.47,1.95-.63,2.1-1.42,1.2-2.52-2.4-3.62-2.71-5.67.9-1.42.45-3.78,2.55-4.26l2.71-.32c.9-1.42-.45-3.31-.45-4.89,1.2-2.68,4.36-2.05,6.61-2.52,2.71-1.89,6.01-2.52,9.32-1.42,0,0,.02.04.02.04Z"/>
        </g>
        <g class="cls-14">
          <g>
            <path class="cls-7" d="M25.49,9.92c4.24,0,7.69,5.71,7.69,12.75s-3.44,12.75-7.69,12.75-7.69-5.71-7.69-12.75,3.44-12.75,7.69-12.75"/>
            <path class="cls-5" d="M25.49,9.92c4.24,0,7.69,5.71,7.69,12.75s-3.44,12.75-7.69,12.75-7.69-5.71-7.69-12.75,3.44-12.75,7.69-12.75Z"/>
            <rect class="cls-9" y=".03" width="46.93" height="46.15"/>
            <path class="cls-8" d="M28.83,2.12c.61.97,0,2.09,1.07,2.41,2.45-.64,3.37.97,4.75,1.93.46,2.09-1.53,4.66.15,5.95.92.48,2.45.32,3.07,1.45,0,1.13,1.23,2.25,0,3.22-1.53,1.45-1.84,2.57-1.38,4.5,1.23,1.13,2.76,1.77,2.3,3.54-.15.48-.15,1.45-.46,2.41-.92.64-2.76.64-2.76,1.77-.92,1.45,1.23,3.22,1.23,5.15-.92,1.12-1.23,4.34-3.83,3.7-1.99.64.31,4.34-1.99,4.5-1.99,1.61-5.98.48-7.98,1.29-2.61-.16-5.21.16-6.9-2.09-.15-.48.15-2.57-1.23-2.41-3.22,1.12-3.99-2.25-5.06-3.86.46-1.61,1.38-2.41,1.99-4.18-.15-3.06-3.37-1.29-4.6-3.38.31-1.29-1.07-4.18,1.07-4.98.77-.48,1.99-.64,2.15-1.45,1.23-2.57-2.45-3.7-2.76-5.79.92-1.45.46-3.86,2.61-4.34l2.76-.32c.92-1.45-.46-3.38-.46-4.98,1.23-2.73,4.45-2.09,6.75-2.57,2.76-1.93,6.14-2.57,9.51-1.45"/>
            <path class="cls-7" d="M28.07,2.92l.31,3.86c.46.64.77.96,1.53.8,1.07-.64,1.38-2.09,2.61-1.77.46.64,1.69,1.12,1.23,1.93-.15,1.29-.61,2.09-.77,3.7.31,2.25,2.61,1.61,3.99,2.57.15.64.77,1.93.31,2.57-.77.96-1.84,1.61-1.84,2.89-.46,2.09,1.23,3.06,2.3,4.02.31,1.12.31,2.73-.31,3.54-.77.32-2.45.32-2.45,1.77l-.31,2.09c1.07,1.93,1.84,3.05.31,5.15-.77,1.61-2.45-1.29-3.22.32-1.53,1.13,1.38,5.79-1.99,6.11-1.23-.64-1.69-4.66-3.99-3.05-.61,1.61-.77,2.09-1.23,3.7-.61.48-1.53-.16-2.3-.32-.15-.16-.31-.32-.31-.8-.15,0,.15-.81-.15-.81h.15c-.15-1.45.77-3.86-.92-3.86-1.07-1.93-2.61,2.25-3.99.64-.61-1.29-1.84-1.77-1.23-3.22.46-1.45,1.69-2.57,1.38-4.02-.46-2.09-2.3-2.25-3.68-2.73-.61-1.12-.77-3.54,0-4.82.92-.64,2.15-.8,2.45-1.77,1.53-2.41-1.53-3.7-2.3-5.31.46-1.29.92-3.38,1.69-4.5,1.23,0,2.15.8,3.22.64,2.3-2.41-.46-4.18,0-6.59.77-.64,1.23-1.77,2.45-1.77,1.23.8,1.23,3.7,3.22,2.89,1.84-1.29,0-6.11,3.68-4.02l.15.16h0Z"/>
          </g>
        </g>
        <g class="cls-12">
          <path class="cls-4" d="M28.07,2.92l.31,3.86c.46.64.77.96,1.53.8,1.07-.64,1.38-2.09,2.61-1.77.46.64,1.69,1.12,1.23,1.93-.15,1.29-.61,2.09-.77,3.7.31,2.25,2.61,1.61,3.99,2.57.15.64.77,1.93.31,2.57-.77.96-1.84,1.61-1.84,2.89-.46,2.09,1.23,3.06,2.3,4.02.31,1.12.31,2.73-.31,3.54-.77.32-2.45.32-2.45,1.77l-.31,2.09c1.07,1.93,1.84,3.05.31,5.15-.77,1.61-2.45-1.29-3.22.32-1.53,1.13,1.38,5.79-1.99,6.11-1.23-.64-1.69-4.66-3.99-3.05-.61,1.61-.77,2.09-1.23,3.7-.61.48-1.53-.16-2.3-.32-.15-.16-.31-.32-.31-.8-.15,0,.15-.81-.15-.81h.15c-.15-1.45.77-3.86-.92-3.86-1.07-1.93-2.61,2.25-3.99.64-.61-1.29-1.84-1.77-1.23-3.22.46-1.45,1.69-2.57,1.38-4.02-.46-2.09-2.3-2.25-3.68-2.73-.61-1.12-.77-3.54,0-4.82.92-.64,2.15-.8,2.45-1.77,1.53-2.41-1.53-3.7-2.3-5.31.46-1.29.92-3.38,1.69-4.5,1.23,0,2.15.8,3.22.64,2.3-2.41-.46-4.18,0-6.59.77-.64,1.23-1.77,2.45-1.77,1.23.8,1.23,3.7,3.22,2.89,1.84-1.29,0-6.11,3.68-4.02l.15.16h0Z"/>
        </g>
        <g class="cls-13">
          <g>
            <path class="cls-7" d="M17.79,4.53c-.46,1.29-1.84.97-3.07.8l-.15-.16c.77-.8,2.15-.64,3.22-.64"/>
            <path class="cls-4" d="M17.79,4.53c-.46,1.29-1.84.97-3.07.8l-.15-.16c.77-.8,2.15-.64,3.22-.64Z"/>
            <path class="cls-7" d="M13.65,12.57c-.46.8-.31,2.41-1.07,2.73-1.38,0-3.07.8-3.68-.32.46-1.13.31-2.57,1.99-2.73.77.16,2.45-.48,2.76.32"/>
            <path class="cls-4" d="M13.65,12.57c-.46.8-.31,2.41-1.07,2.73-1.38,0-3.07.8-3.68-.32.46-1.13.31-2.57,1.99-2.73.77.16,2.45-.48,2.76.32Z"/>
            <path class="cls-7" d="M11.96,24.31c0,.97.46,2.73-.31,3.54-1.23-.16-2.76.64-3.53-.32,0-1.13-.61-2.89.31-3.7,1.23,0,2.15-.16,3.22,0,0,0,.31.48.31.48Z"/>
            <path class="cls-4" d="M11.96,24.31c0,.97.46,2.73-.31,3.54-1.23-.16-2.76.64-3.53-.32,0-1.13-.61-2.89.31-3.7,1.23,0,2.15-.16,3.22,0,0,0,.31.48.31.48Z"/>
            <path class="cls-7" d="M15.95,37.98c.15.8-.46.48-.77.8-1.53,0-3.22-.16-3.83-2.09,0-.32-.15-.32,0-.64.77-.48,1.69,0,2.3-.48,1.38.16,1.53,1.29,2.3,2.41"/>
            <path class="cls-4" d="M15.95,37.98c.15.8-.46.48-.77.8-1.53,0-3.22-.16-3.83-2.09,0-.32-.15-.32,0-.64.77-.48,1.69,0,2.3-.48,1.38.16,1.53,1.29,2.3,2.41Z"/>
            <path class="cls-7" d="M25.49,10.29c4.12,0,7.46,5.54,7.46,12.38s-3.34,12.38-7.46,12.38-7.46-5.54-7.46-12.38,3.34-12.38,7.46-12.38"/>
            <ellipse class="cls-3" cx="25.49" cy="22.67" rx="7.46" ry="12.38"/>
            <path class="cls-8" d="M20.07,27.68c.34-1.88.67-3.75,1-5.59.33-1.83.65-3.64.98-5.43.22.02.45.04.67.06.31,1.82.61,3.61.91,5.39.3,1.76.6,3.51.89,5.24-.23.02-.46.03-.7.05-.08-.48-.17-.97-.25-1.45-.08-.49-.17-.98-.25-1.47-.66.02-1.34.04-2.03.06-.09.51-.18,1.02-.28,1.54-.09.52-.18,1.03-.27,1.55-.22.02-.45.03-.67.05M21.49,23.38c.55,0,1.1-.01,1.63-.02-.13-.77-.26-1.54-.4-2.32-.13-.78-.27-1.56-.4-2.35-.14.77-.28,1.55-.42,2.33s-.28,1.57-.42,2.35M25.16,27.31v-10.36c.39.04.77.07,1.15.11.4.04.68.16.85.36s.3.51.39.9c.09.4.13.89.13,1.47,0,.68-.06,1.27-.18,1.78s-.31.9-.58,1.18-.57.43-.89.43h-.26v4.08c-.2.02-.4.03-.61.04M25.77,22.08h.24c.38,0,.66-.21.82-.64s.24-.96.24-1.59c0-.34-.03-.63-.08-.88-.05-.24-.13-.44-.25-.6s-.32-.25-.62-.27c-.12,0-.24-.02-.36-.03v4.01h.01ZM31.18,26.61c-.32.26-.55.42-.7.47-.15.06-.3.09-.46.1-.45.04-.81-.14-1.07-.54-.27-.41-.47-1-.61-1.8-.07-.4-.12-.82-.16-1.27-.04-.45-.05-.92-.05-1.42,0-.76.04-1.45.12-2.06.08-.62.2-1.16.36-1.63.32-.93.79-1.37,1.42-1.3.37.04.76.22,1.15.54v1.23c-.37-.35-.62-.56-.76-.63s-.27-.11-.4-.12c-.45-.04-.78.33-.99,1.11-.1.39-.18.83-.23,1.31s-.08,1.01-.08,1.57c0,.7.05,1.36.13,1.97.09.6.24,1.1.44,1.49s.48.57.82.55c.08,0,.16-.02.24-.05.08-.03.18-.1.33-.22v-3.07h.51v3.78h-.01Z"/>
            <path class="cls-4" d="M20.07,27.68c.34-1.88.67-3.75,1-5.59.33-1.83.65-3.64.98-5.43.22.02.45.04.67.06.31,1.82.61,3.61.91,5.39.3,1.76.6,3.51.89,5.24-.23.02-.46.03-.7.05-.08-.48-.17-.97-.25-1.45-.08-.49-.17-.98-.25-1.47-.66.02-1.34.04-2.03.06-.09.51-.18,1.02-.28,1.54-.09.52-.18,1.03-.27,1.55-.22.02-.45.03-.67.05ZM21.49,23.38c.55,0,1.1-.01,1.63-.02-.13-.77-.26-1.54-.4-2.32-.13-.78-.27-1.56-.4-2.35-.14.77-.28,1.55-.42,2.33s-.28,1.57-.42,2.35h.01ZM25.16,27.31v-10.36c.39.04.77.07,1.15.11.4.04.68.16.85.36s.3.51.39.9c.09.4.13.89.13,1.47,0,.68-.06,1.27-.18,1.78s-.31.9-.58,1.18-.57.43-.89.43h-.26v4.08c-.2.02-.4.03-.61.04h0ZM25.77,22.08h.24c.38,0,.66-.21.82-.64s.24-.96.24-1.59c0-.34-.03-.63-.08-.88-.05-.24-.13-.44-.25-.6s-.32-.25-.62-.27c-.12,0-.24-.02-.36-.03v4.01h.01ZM31.18,26.61c-.32.26-.55.42-.7.47-.15.06-.3.09-.46.1-.45.04-.81-.14-1.07-.54-.27-.41-.47-1-.61-1.8-.07-.4-.12-.82-.16-1.27-.04-.45-.05-.92-.05-1.42,0-.76.04-1.45.12-2.06.08-.62.2-1.16.36-1.63.32-.93.79-1.37,1.42-1.3.37.04.76.22,1.15.54v1.23c-.37-.35-.62-.56-.76-.63s-.27-.11-.4-.12c-.45-.04-.78.33-.99,1.11-.1.39-.18.83-.23,1.31s-.08,1.01-.08,1.57c0,.7.05,1.36.13,1.97.09.6.24,1.1.44,1.49s.48.57.82.55c.08,0,.16-.02.24-.05.08-.03.18-.1.33-.22v-3.07h.51v3.78h-.01Z"/>
            <rect class="cls-10" x="54.4" width="228.3" height="46.18"/>
            <path class="cls-7" d="M225.87,17.1h-7.57l5.04,20.52h2.52l-1.26,3.42h7.57l6.31-13.68c3.78-6.84,1.26-10.26-2.52-10.26h-6.31v6.84c3.78,0,2.52,1.14,0,5.7,0,0-3.78-12.54-3.78-12.54Z"/>
            <path class="cls-4" d="M225.87,17.1h-7.57l5.04,20.52h2.52l-1.26,3.42h7.57l6.31-13.68c3.78-6.84,1.26-10.26-2.52-10.26h-6.31v6.84c3.78,0,2.52,1.14,0,5.7,0,0-3.78-12.54-3.78-12.54Z"/>
            <path class="cls-7" d="M190.54,17.1c4.34,0,6.51,3.62,6.51,7.24v13.28h-6.51l.04-11.99s-.04-1.74-3.3-1.74v13.74h-6.51l.03-12.9s.02-.84-1.71-.84-1.58.84-1.65.84l.07,12.9h-6.51v-20.52h19.54,0Z"/>
            <path class="cls-4" d="M190.54,17.1c4.34,0,6.51,3.62,6.51,7.24v13.28h-6.51l.04-11.99s-.04-1.74-3.3-1.74v13.74h-6.51l.03-12.9s.02-.84-1.71-.84-1.58.84-1.65.84l.07,12.9h-6.51v-20.52h19.54,0Z"/>
            <path class="cls-7" d="M139.95,23.89c0,4.02.05,9.71.05,13.74h-6.51v-20.52h9.23c5.43.11,7.06,2.59,7.05,8.56v11.97h-6.51v-11.99c0-1.75-3.31-1.75-3.31-1.75"/>
            <path class="cls-4" d="M139.95,23.89c0,4.02.05,9.71.05,13.74h-6.51v-20.52h9.23c5.43.11,7.06,2.59,7.05,8.56v11.97h-6.51v-11.99c0-1.75-3.31-1.75-3.31-1.75h0Z"/>
            <path class="cls-7" d="M96.86,5.13h-16.35c-9.81,0-14.72,8.55-14.72,15.39,0,8.55,4.9,17.1,14.72,17.1h16.35v-20.52h-9.81v11.97c-7.96,0-3.27,0-3.27,0-11.45,0-11.45-15.39,0-15.39h13.08s0-8.55,0-8.55Z"/>
            <path class="cls-4" d="M96.86,5.13h-16.35c-9.81,0-14.72,8.55-14.72,15.39,0,8.55,4.9,17.1,14.72,17.1h16.35v-20.52h-9.81v11.97c-7.96,0-3.27,0-3.27,0-11.45,0-11.45-15.39,0-15.39h13.08s0-8.55,0-8.55Z"/>
            <path class="cls-7" d="M216.9,17.1h-9.23c-12.3,0-12.3,20.52,0,20.52h9.23v-6.84h-9.23c-4.1,0-4.1-6.84,0-6.84h3.08l-3.08,3.42h6.15l3.08-3.42v-6.84Z"/>
            <path class="cls-4" d="M216.9,17.1h-9.23c-12.3,0-12.3,20.52,0,20.52h9.23v-6.84h-9.23c-4.1,0-4.1-6.84,0-6.84h3.08l-3.08,3.42h6.15l3.08-3.42v-6.84Z"/>
            <path class="cls-7" d="M108.71,17.1h-3.26c-3.26,0-6.44,2.8-6.44,7.63l-.07,5.65v7.24h6.51l-.03-11.99s0-1.75,3.21-1.75l.08-6.79h0Z"/>
            <path class="cls-4" d="M108.71,17.1h-3.26c-3.26,0-6.44,2.8-6.44,7.63l-.07,5.65v7.24h6.51l-.03-11.99s0-1.75,3.21-1.75l.08-6.79h0Z"/>
            <path class="cls-7" d="M117.02,17.1c-5.02,0-8.37,3.42-8.37,6.84v6.84c0,3.42,3.35,6.84,8.37,6.84h6.69c5.02,0,8.37-3.42,8.37-6.84v-6.84c0-3.42-3.35-6.84-8.37-6.84h-6.69"/>
            <path class="cls-4" d="M117.02,17.1c-5.02,0-8.37,3.42-8.37,6.84v6.84c0,3.42,3.35,6.84,8.37,6.84h6.69c5.02,0,8.37-3.42,8.37-6.84v-6.84c0-3.42-3.35-6.84-8.37-6.84,0,0-6.69,0-6.69,0Z"/>
            <path class="cls-8" d="M119.06,23.65c-1.96,0-3.26,1.24-3.26,2.48v2.48c0,1.24,1.3,2.48,3.26,2.48h2.61c1.96,0,3.26-1.24,3.26-2.48v-2.48c0-1.24-1.3-2.48-3.26-2.48h-2.61Z"/>
            <path class="cls-4" d="M119.06,23.65c-1.96,0-3.26,1.24-3.26,2.48v2.48c0,1.24,1.3,2.48,3.26,2.48h2.61c1.96,0,3.26-1.24,3.26-2.48v-2.48c0-1.24-1.3-2.48-3.26-2.48h-2.61Z"/>
            <path class="cls-7" d="M169.61,17.1h-9.23c-12.3,0-12.3,20.52,0,20.52h9.23v-6.84h-9.23c-4.1,0-4.1-6.84,0-6.84h3.08l-3.08,3.42h6.15l3.08-3.42v-6.84Z"/>
            <path class="cls-4" d="M169.61,17.1h-9.23c-12.3,0-12.3,20.52,0,20.52h9.23v-6.84h-9.23c-4.1,0-4.1-6.84,0-6.84h3.08l-3.08,3.42h6.15l3.08-3.42v-6.84Z"/>
            <path class="cls-7" d="M271.31,17.1l-3.24.05c-3.26,0-6.45,2.75-6.45,7.58l-.03,5.65v7.24h6.51l-.04-11.99s0-1.75,3.24-1.75v-6.79h.01Z"/>
            <path class="cls-4" d="M271.31,17.1l-3.24.05c-3.26,0-6.45,2.75-6.45,7.58l-.03,5.65v7.24h6.51l-.04-11.99s0-1.75,3.24-1.75v-6.79h.01Z"/>
            <path class="cls-7" d="M260.2,17.1h-9.23c-12.3,0-12.3,20.52,0,20.52h9.23v-6.84h-9.23c-4.1,0-4.1-6.84,0-6.84h3.08l-3.08,3.42h6.15l3.08-3.42v-6.84Z"/>
            <path class="cls-4" d="M260.2,17.1h-9.23c-12.3,0-12.3,20.52,0,20.52h9.23v-6.84h-9.23c-4.1,0-4.1-6.84,0-6.84h3.08l-3.08,3.42h6.15l3.08-3.42v-6.84Z"/>
            <polygon class="cls-15" points="54.39 68.67 54.39 54.73 60.93 54.73 60.93 56.12 55.93 56.12 55.93 60.7 60.58 60.7 60.58 62.09 55.93 62.09 55.93 68.67 54.39 68.67"/>
            <path class="cls-15" d="M70.21,61.4c0-.53.02-1.07.06-1.63.04-.55.11-1.08.22-1.6.11-.52.27-1,.48-1.45.21-.45.49-.84.83-1.18.34-.33.76-.6,1.26-.8.49-.2,1.09-.3,1.78-.3s1.27.1,1.76.3c.49.2.9.46,1.24.8.33.34.61.73.82,1.18s.37.94.48,1.45c.11.51.18,1.05.21,1.6s.05,1.09.05,1.63c0,.97-.05,1.9-.15,2.82-.1.91-.31,1.72-.62,2.43-.32.71-.78,1.28-1.38,1.71-.61.43-1.42.64-2.43.64s-1.83-.21-2.43-.64-1.06-1-1.38-1.71-.52-1.52-.62-2.43c-.1-.91-.15-1.85-.17-2.82M77.79,61.44c0-.78-.04-1.51-.12-2.18-.08-.67-.23-1.27-.46-1.77-.23-.51-.54-.91-.94-1.2s-.9-.44-1.51-.44-1.08.15-1.47.44c-.39.29-.69.69-.91,1.2-.22.51-.37,1.1-.45,1.77-.08.68-.12,1.4-.12,2.18,0,1,.04,1.89.11,2.66.08.77.22,1.41.43,1.93s.51.91.9,1.18.91.4,1.55.4,1.16-.13,1.55-.4c.39-.27.69-.66.9-1.18s.35-1.17.43-1.93c.07-.77.11-1.65.11-2.66M74.13,52.98h-1.47v-1.86h1.47v1.86ZM75.45,51.12h1.47v1.86h-1.47v-1.86Z"/>
            <path class="cls-15" d="M91.45,68.67h-1.54v-13.94h3.59c.73,0,1.39.06,1.98.17.59.11,1.09.32,1.5.61s.72.7.93,1.22c.21.51.3,1.18.28,1.98-.02.82-.27,1.5-.74,2.04-.47.55-1.12.87-1.93.99v.04c.45.04.82.11,1.12.21s.54.26.71.46c.18.2.32.45.41.77.09.32.17.7.23,1.16.02.52.06,1.04.11,1.55s.11,1.03.19,1.55c.01.06.03.14.06.24s.06.2.09.29c.04.09.09.17.15.24.06.07.14.1.24.1v.32h-1.8c-.09-.22-.16-.49-.22-.8-.06-.31-.11-.63-.15-.96s-.07-.65-.08-.97c-.02-.32-.03-.59-.03-.83,0-.35-.04-.68-.11-.99-.07-.32-.2-.59-.39-.83s-.43-.42-.73-.56c-.3-.13-.68-.2-1.14-.2h-2.7v6.13h-.03ZM91.45,61.14h2.43c.19,0,.43-.02.73-.07.3-.04.6-.15.9-.32s.55-.42.76-.76.31-.82.3-1.42c-.01-.6-.12-1.06-.33-1.39-.21-.33-.47-.58-.77-.73s-.62-.25-.96-.28c-.33-.03-.63-.05-.89-.05h-2.17v5.02h0Z"/>
            <path class="cls-15" d="M109.04,68.67v-13.94h3.83c1.09,0,1.96.2,2.61.6.65.4,1.14.93,1.48,1.59.33.66.55,1.4.64,2.24s.13,1.68.1,2.54c-.02.86-.1,1.7-.22,2.53s-.35,1.57-.68,2.23-.78,1.19-1.37,1.6c-.58.41-1.34.61-2.29.61h-4.11s.01,0,.01,0ZM110.58,67.28h2.47c.57,0,1.06-.11,1.46-.33s.73-.56.98-1.04.42-1.08.52-1.82c.1-.74.13-1.63.09-2.67-.02-.79-.08-1.51-.17-2.17-.09-.65-.24-1.21-.46-1.67s-.53-.82-.91-1.08-.89-.38-1.51-.38h-2.47v11.15h0Z"/>
            <polygon class="cls-15" points="128.09 68.67 128.09 54.73 135.06 54.73 135.06 56.12 129.63 56.12 129.63 60.74 134.73 60.74 134.73 62.13 129.63 62.13 129.63 67.28 135.1 67.28 135.1 68.67 128.09 68.67"/>
            <path class="cls-15" d="M147,68.67h-1.54v-13.94h3.59c.73,0,1.39.06,1.98.17.59.11,1.09.32,1.5.61s.72.7.93,1.22c.21.51.3,1.18.28,1.98-.02.82-.27,1.5-.74,2.04-.47.55-1.12.87-1.93.99v.04c.45.04.82.11,1.12.21.3.1.54.26.71.46.18.2.32.45.41.77s.17.7.23,1.16c.02.52.06,1.04.11,1.55s.11,1.03.19,1.55c0,.06.03.14.05.24s.06.2.09.29c.04.09.09.17.15.24s.14.1.24.1v.32h-1.8c-.09-.22-.16-.49-.22-.8-.06-.31-.11-.63-.15-.96s-.06-.65-.08-.97-.03-.59-.03-.83c0-.35-.04-.68-.11-.99-.07-.32-.2-.59-.39-.83s-.43-.42-.73-.56c-.3-.13-.68-.2-1.14-.2h-2.7v6.13h-.02ZM147,61.14h2.44c.18,0,.43-.02.73-.07.3-.04.6-.15.9-.32.3-.17.55-.42.76-.76.21-.34.31-.82.3-1.42s-.12-1.06-.34-1.39c-.21-.33-.47-.58-.77-.73-.3-.15-.62-.25-.96-.28-.33-.03-.63-.05-.89-.05h-2.18v5.02h.01Z"/>
            <path class="cls-15" d="M170.49,58.39c.02-.36,0-.69-.08-1s-.21-.58-.4-.81c-.19-.23-.42-.41-.72-.54-.29-.13-.63-.2-1.01-.2-.56,0-1.01.08-1.34.24-.34.16-.59.36-.75.6-.17.24-.28.51-.33.8s-.07.57-.07.85c0,.48.11.88.33,1.18s.55.54.99.72c.37.14.74.28,1.11.42s.73.28,1.11.42c.66.25,1.19.5,1.6.74.41.25.73.52.95.81s.37.62.45.98.12.77.12,1.23c0,1.33-.38,2.35-1.15,3.08-.77.73-1.83,1.1-3.18,1.1-.35,0-.7-.03-1.07-.09-.37-.06-.72-.17-1.06-.33s-.66-.38-.95-.67-.54-.66-.73-1.11c-.07-.17-.13-.37-.17-.59-.04-.22-.07-.44-.08-.67-.02-.23-.03-.46-.04-.68v-.61h1.54c-.02.52,0,.99.05,1.4s.18.77.37,1.06.46.51.82.67c.35.15.82.23,1.4.23.78,0,1.42-.2,1.91-.6.5-.4.74-1.01.74-1.83,0-.53-.05-.95-.16-1.24-.11-.29-.25-.52-.45-.69-.19-.17-.43-.3-.72-.4-.29-.1-.6-.22-.95-.35-.19-.07-.4-.15-.64-.24s-.49-.18-.73-.27c-.25-.09-.49-.19-.73-.28-.24-.09-.45-.19-.63-.29-.66-.33-1.1-.77-1.32-1.31s-.33-1.15-.33-1.85c0-.57.1-1.09.29-1.56.19-.47.46-.87.8-1.21.34-.33.75-.59,1.23-.77s1-.27,1.57-.27c1.28,0,2.27.33,2.99.99s1.04,1.64.97,2.96h-1.54v-.02h-.01Z"/>
            <polygon class="cls-15" points="186.4 61.72 189.68 54.73 191.39 54.73 187.17 63.26 187.17 68.67 185.62 68.67 185.62 63.26 181.44 54.73 183.15 54.73 186.4 61.72"/>
            <path class="cls-15" d="M206.85,58.39c.02-.36,0-.69-.08-1s-.21-.58-.4-.81c-.19-.23-.42-.41-.71-.54-.29-.13-.63-.2-1.01-.2-.56,0-1,.08-1.34.24-.33.16-.58.36-.75.6-.17.24-.28.51-.33.8s-.07.57-.07.85c0,.48.11.88.33,1.18s.55.54.99.72c.37.14.74.28,1.11.42s.73.28,1.11.42c.66.25,1.19.5,1.6.74.41.25.73.52.95.81s.38.62.46.98.12.77.12,1.23c0,1.33-.38,2.35-1.15,3.08-.77.73-1.83,1.1-3.18,1.1-.35,0-.7-.03-1.07-.09-.36-.06-.72-.17-1.06-.33s-.66-.38-.95-.67-.54-.66-.74-1.11c-.07-.17-.13-.37-.17-.59-.04-.22-.07-.44-.08-.67-.02-.23-.03-.46-.04-.68v-.61h1.54c-.02.52,0,.99.05,1.4s.18.77.37,1.06.46.51.82.67c.35.15.82.23,1.4.23.78,0,1.42-.2,1.91-.6.5-.4.74-1.01.74-1.83,0-.53-.05-.95-.16-1.24-.11-.29-.25-.52-.45-.69-.19-.17-.43-.3-.71-.4-.29-.1-.6-.22-.95-.35-.19-.07-.4-.15-.64-.24s-.49-.18-.73-.27c-.25-.09-.49-.19-.73-.28-.24-.09-.45-.19-.63-.29-.66-.33-1.1-.77-1.32-1.31s-.33-1.15-.33-1.85c0-.57.1-1.09.29-1.56.19-.47.46-.87.8-1.21.34-.33.75-.59,1.23-.77s1-.27,1.57-.27c1.28,0,2.27.33,2.99.99s1.04,1.64.97,2.96h-1.54l-.03-.02h0Z"/>
            <polygon class="cls-15" points="217.88 54.73 226.63 54.73 226.63 56.13 223.02 56.13 223.02 68.67 221.48 68.67 221.48 56.13 217.88 56.13 217.88 54.73"/>
            <polygon class="cls-15" points="236.11 68.67 236.11 54.73 243.08 54.73 243.08 56.12 237.65 56.12 237.65 60.74 242.75 60.74 242.75 62.13 237.65 62.13 237.65 67.28 243.12 67.28 243.12 68.67 236.11 68.67"/>
            <path class="cls-15" d="M262.21,54.73h2.71v13.94h-1.54v-11.49c0-.3,0-.59.02-.88.01-.29,0-.59-.02-.88h-.04c-.09.41-.16.76-.23,1.04-.07.29-.13.56-.2.84l-2.92,11.38h-1.84l-2.92-11.54-.18-.75c-.06-.25-.14-.57-.22-.96h-.04c0,.3,0,.6.02.9,0,.3.02.6.02.9v11.45h-1.54v-13.94h2.73l2.73,10.88c.08.3.13.6.18.92.04.32.08.7.12,1.14h.04c.05-.36.1-.71.15-1.05.05-.34.12-.68.21-1.03l2.77-10.86h0Z"/>
            <polygon class="cls-15" points="275.56 68.67 275.56 54.73 282.53 54.73 282.53 56.12 277.1 56.12 277.1 60.74 282.19 60.74 282.19 62.13 277.1 62.13 277.1 67.28 282.56 67.28 282.56 68.67 275.56 68.67"/>
          </g>
        </g>
      </g>
    </g>
  </g>
</svg>