<?xml version="1.0" encoding="UTF-8"?>
<svg id="Ebene_2" data-name="Ebene 2" xmlns="http://www.w3.org/2000/svg" viewBox="0 0 249.44 164.82">
  <defs>
    <style>
      .cls-1 {
        fill: #4a4a4a;
      }
    </style>
  </defs>
  <g id="Ebene_2-2" data-name="Ebene 2">
    <g id="svg270">
      <g id="layer1">
        <g id="g297">
          <path id="path278" class="cls-1" d="M52.13,98.41h-2.75v7.42h-8.45v-7.42h-2.75v18.36h2.75v-8.18h8.45v8.18h2.75v-18.36ZM60.97,109.95l1.47-4.2c.47-1.36,1.13-3.46,1.34-4.25.21.79.94,2.91,1.39,4.22l1.47,4.22h-5.67ZM65.27,98.41h-2.91l-6.61,18.36h2.86l1.52-4.35h7.35l1.55,4.35h2.94l-6.69-18.36h-.01ZM85.94,112.03c-.95,1.49-2.13,2.28-4.04,2.28-3.2,0-4.93-2.6-4.93-6.72s1.73-6.72,4.93-6.72c1.89,0,2.86.71,3.8,2.2l2.44-1.52c-1.26-2.23-3.25-3.44-6.24-3.44-4.75,0-7.77,3.91-7.77,9.47s3.02,9.47,7.77,9.47c2.78,0,5.01-1.26,6.32-3.52l-2.28-1.52s0,.02,0,.02ZM106.14,98.41h-2.75v7.42h-8.45v-7.42h-2.75v18.36h2.75v-8.18h8.45v8.18h2.75v-18.36ZM123.14,114.1h-9.47v-5.8h5.27v-2.67h-5.27v-4.54h9.08v-2.68h-11.83v18.36h12.23v-2.68h0ZM141.01,98.41h-2.68v9.47c0,1.02.03,3.65.03,4.33-.26-.47-1.05-1.84-1.52-2.6l-6.98-11.2h-2.81v18.36h2.68v-9.52c0-1.02-.03-3.57-.03-4.25.29.47.92,1.57,1.36,2.26l7.32,11.52h2.62v-18.36h0ZM156.28,106.86c1.34-.66,2.34-1.81,2.34-3.67,0-3.1-2.07-4.77-5.27-4.77h-7.56v18.36h7.29c4.01,0,6.3-1.92,6.3-5.64,0-2.55-1.65-3.88-3.1-4.28h0ZM153.32,105.68h-4.93v-4.75h4.93c1.84,0,2.54,1.05,2.54,2.41,0,1.21-.73,2.33-2.54,2.33h0ZM153.29,114.26h-4.91v-6.09h4.99c2.07,0,3.25,1.15,3.25,3.04s-.89,3.04-3.33,3.04h0ZM175.72,114.1h-9.47v-5.8h5.27v-2.67h-5.27v-4.54h9.08v-2.68h-11.83v18.36h12.23v-2.68h0ZM187.68,106.91h-5.35v-5.9h5.35c1.86,0,3.12,1.05,3.12,2.96s-1.29,2.94-3.12,2.94ZM187.68,98.41h-8.05v18.36h2.7v-7.27h4.15l3.65,7.27h3.18l-3.75-7.5c2.49-.63,4.04-2.44,4.04-5.38,0-3.78-2.7-5.48-5.9-5.48h-.02,0ZM211.27,107.46h-5.8v2.65h2.99v.08c0,2.15-1.18,4.12-4.17,4.12-3.2,0-4.96-2.6-4.96-6.72s1.76-6.72,4.96-6.72c1.89,0,2.89.68,3.83,2.18l2.41-1.49c-1.26-2.23-3.25-3.44-6.24-3.44-4.75,0-7.77,3.91-7.77,9.47s3.02,9.47,7.77,9.47c4.09,0,6.98-2.76,6.98-7.48v-2.12ZM7.69,127.96H0v18.37h2.7v-6.85h4.8c3.57,0,6.09-1.99,6.09-5.77s-2.52-5.75-5.9-5.75ZM7.64,136.88H2.7v-6.32h4.93c1.92,0,3.15,1.13,3.15,3.15s-1.05,3.17-3.15,3.17h0ZM24.09,127.67c-4.64,0-7.84,3.78-7.84,9.5s3.15,9.44,7.79,9.44,7.87-3.78,7.87-9.5-3.15-9.44-7.82-9.44ZM24.12,143.88c-2.94,0-5.06-2.6-5.06-6.77s2.05-6.72,4.96-6.72,5.09,2.6,5.09,6.77-2.07,6.72-4.98,6.72h-.01ZM41.83,135.51c-3.17-.94-4.01-1.57-4.01-2.86s.92-2.28,3.07-2.28c1.81,0,3.12.58,4.28,1.76l1.94-1.97c-1.63-1.57-3.52-2.49-6.01-2.49-3.38,0-6.06,1.94-6.06,5.12s1.86,4.25,5.75,5.4c3.07.92,4.15,1.63,4.15,3.04,0,1.78-1.23,2.68-3.8,2.68-1.73,0-3.54-.84-4.77-2.18l-1.97,1.91c1.55,1.81,3.86,2.96,6.53,2.96,4.7,0,6.79-2.26,6.79-5.56s-2.26-4.43-5.88-5.54h0ZM59.51,127.95h-7.69v18.37h2.7v-6.85h4.8c3.57,0,6.09-1.99,6.09-5.77s-2.52-5.75-5.9-5.75h0ZM59.46,136.87h-4.93v-6.32h4.93c1.92,0,3.15,1.13,3.15,3.15s-1.05,3.17-3.15,3.17h0ZM71.84,127.95h-2.75v18.37h2.75s0-18.37,0-18.37ZM87.69,141.57c-.95,1.5-2.13,2.28-4.04,2.28-3.2,0-4.93-2.6-4.93-6.72s1.73-6.72,4.93-6.72c1.89,0,2.86.71,3.8,2.2l2.44-1.52c-1.26-2.23-3.25-3.44-6.24-3.44-4.75,0-7.77,3.91-7.77,9.47s3.02,9.47,7.77,9.47c2.78,0,5.01-1.26,6.32-3.52l-2.28-1.52v.02h0ZM107.89,127.95h-2.76v7.42h-8.45v-7.42h-2.75v18.37h2.75v-8.19h8.45v8.19h2.76s0-18.37,0-18.37Z"/>
          <path id="path280" class="cls-1" d="M132.84,157.51c1.53-2.4,2.76-5.22,3.58-8.18l-.28-.08h-3.4c-.63,1.98-1.32,3.8-2.16,5.35l-10.89-14.17c-1.38-1.79-2.15-3.12-2.15-5.01,0-2.4,1.94-4.04,5.11-4.04.46,0,7.1.03,7.53.08v-3.51c-.42-.03-7.04-.05-7.48-.05-5.63,0-9.1,3.22-9.1,7.72,0,2.76,1.38,4.81,3.17,7.16l1.23,1.64c-5.06,2.56-8.03,5.47-8.03,10.79s2.91,9.61,10.79,9.61c3.84,0,7.06-1.64,9.67-4.3l2.86,3.73h4.71l-5.17-6.75h0ZM128.34,157.87c-1.94,2.2-4.4,3.48-7.47,3.48-4.6,0-7.06-2.76-7.06-6.24s1.79-6.04,6.24-8.08l8.28,10.84h0Z"/>
          <path id="path282" class="cls-1" d="M140.81,127.9h-7.69v18.37h2.7v-6.85h4.8c3.57,0,6.09-1.99,6.09-5.77s-2.52-5.75-5.9-5.75ZM140.76,136.82h-4.93v-6.32h4.93c1.91,0,3.15,1.13,3.15,3.15s-1.05,3.17-3.15,3.17h0ZM152.49,139.44l1.47-4.2c.47-1.36,1.13-3.46,1.34-4.25.21.79.94,2.91,1.39,4.22l1.47,4.22h-5.67ZM156.79,127.9h-2.91l-6.61,18.37h2.86l1.52-4.35h7.35l1.55,4.35h2.94l-6.69-18.37h-.01ZM175.15,136.4h-5.35v-5.9h5.35c1.86,0,3.12,1.05,3.12,2.96s-1.29,2.94-3.12,2.94h0ZM175.15,127.9h-8.05v18.37h2.7v-7.27h4.15l3.65,7.27h3.17l-3.75-7.5c2.49-.63,4.04-2.44,4.04-5.38,0-3.78-2.7-5.48-5.9-5.48h0ZM197,127.9h-13.46v2.7h5.35v15.66h2.76v-15.66h5.35v-2.7ZM214.58,127.9h-2.68v9.47c0,1.02.03,3.65.03,4.33-.26-.47-1.05-1.84-1.52-2.6l-6.98-11.2h-2.81v18.37h2.68v-9.52c0-1.02-.03-3.57-.03-4.25.29.47.92,1.57,1.36,2.26l7.32,11.52h2.62v-18.37h0ZM231.58,143.59h-9.47v-5.8h5.27v-2.68h-5.27v-4.54h9.08v-2.68h-11.83v18.37h12.23v-2.68h0ZM243.53,136.4h-5.35v-5.9h5.35c1.86,0,3.12,1.05,3.12,2.96s-1.29,2.94-3.12,2.94h0ZM243.53,127.9h-8.05v18.37h2.7v-7.27h4.15l3.65,7.27h3.17l-3.75-7.5c2.49-.63,4.04-2.44,4.04-5.38,0-3.78-2.7-5.48-5.9-5.48h0Z"/>
          <path id="path284" class="cls-1" d="M78.38,0v83.35h3.08V0h-3.08ZM168.82,0v83.35h3.09V0h-3.09Z"/>
          <path id="path286" class="cls-1" d="M69.81,40.44h-19.17V0h-12.5v83.35h12.5v-31.08h19.17s0-11.83,0-11.83ZM120.86,26.08c0-17.27-11.43-26.08-26.79-26.08h-4.05v11.79h3.81c8.69,0,14.29,5.12,14.29,14.29s-4.76,14.41-14.29,14.41h-3.81v11.79h3.21c16.19,0,27.62-9.05,27.62-26.19h.01ZM211.31,26.08c0-17.27-11.43-26.08-26.79-26.08h-4.05v11.79h3.81c8.69,0,14.29,5.12,14.29,14.29s-4.76,14.41-14.29,14.41h-3.81v11.79h3.21c16.19,0,27.62-9.05,27.62-26.19h.01ZM160.26,68.84c-1.79,1.76-4.33,2.9-7.86,2.9-8.56,0-11.49-7.03-11.49-13.83v-17.44h-11.49v17.91c0,14.89,9.38,24.97,22.98,24.97,2.85,0,5.47-.42,7.86-1.19v-13.32h0Z"/>
        </g>
      </g>
    </g>
  </g>
</svg>