<?xml version="1.0" encoding="UTF-8"?>
<svg id="Ebene_2" data-name="Ebene 2" xmlns="http://www.w3.org/2000/svg" viewBox="0 0 566.93 76.26">
  <defs>
    <style>
      .cls-1 {
        fill-rule: evenodd;
      }

      .cls-1, .cls-2 {
        fill: #4a4a4a;
      }
    </style>
  </defs>
  <g id="Ebene_2-2" data-name="Ebene 2">
    <g id="Ebene_1-2" data-name="Ebene 1-2">
      <path class="cls-1" d="M429.34,0h25.8c12.76,0,19.07,11.26,15.66,22.85-4.13,14.04-16.17,22.69-26.64,24.87l13.64,28.53h-26.64l-12.63-27.9h-37.54l20.45-20.45h33.88c3.82,0,8.14-1.36,8.36-4.77.22-3.39-2.96-3.18-4.95-3.18h-29.33L429.34,0Z"/>
      <path class="cls-2" d="M26.18,17.32h8.31c1.99,0,3.36.55,2.88,2.84-.4,1.91-1.58,2.84-3.91,2.84h-8.48l1.21-5.68h-.01ZM9.42,39.96h11.95l1.98-9.33h8.49c2.2,0,2.68,1.36,2.33,3.6-.54,3.52-.82,4.83-.59,5.72h13.06c-.57-.93-.89-2.2-.73-3.56l.9-6.61c.35-2.63-.77-4.15-2.44-4.66l.02-.08c3.69-1.02,5.53-4.07,6.13-6.91.71-3.31-.54-6.23-2.55-7.33-1.48-.81-3.49-1.1-6.92-1.1H15.85l-6.44,30.27h.01Z"/>
      <path class="cls-2" d="M48.29,39.96h12.72l2.01-3.48h12.46l.53,3.48h12.72l-6.46-30.27h-14.66l-19.32,30.27ZM74.42,29.1h-7.21l5.74-10.26h.08l1.38,10.26h.01Z"/>
      <polygon class="cls-2" points="98.32 39.96 110.27 39.96 115.09 17.32 126.15 17.32 127.77 9.69 93.69 9.69 92.07 17.32 103.13 17.32 98.32 39.96"/>
      <polygon class="cls-2" points="151.91 39.96 163.86 39.96 170.29 9.69 158.34 9.69 156.11 20.2 142.67 20.2 144.9 9.69 132.95 9.69 126.51 39.96 138.47 39.96 141.04 27.83 154.49 27.83 151.91 39.96"/>
      <polygon class="cls-2" points="172.13 39.96 182.98 39.96 187.58 18.34 187.66 18.34 189.43 39.96 198.5 39.96 209.46 18.34 209.54 18.34 204.94 39.96 215.8 39.96 222.23 9.69 205.4 9.69 196.7 27.28 196.61 27.28 195.39 9.69 178.57 9.69 172.13 39.96"/>
      <path class="cls-2" d="M219.74,39.96h12.72l2.01-3.48h12.46l.53,3.48h12.72l-6.46-30.27h-14.66l-19.32,30.27h0ZM245.87,29.1h-7.21l5.74-10.26h.08l1.38,10.26h0Z"/>
      <polygon class="cls-2" points="264.13 39.96 275.58 39.96 279.18 23 279.26 23 288.38 39.96 301.48 39.96 307.91 9.69 296.47 9.69 292.9 26.48 292.77 26.48 284.21 9.69 270.57 9.69 264.13 39.96"/>
      <polygon class="cls-2" points="309.75 39.96 321.19 39.96 324.8 23 324.88 23 334 39.96 347.1 39.96 353.53 9.69 342.09 9.69 338.52 26.48 338.39 26.48 329.83 9.69 316.18 9.69 309.75 39.96"/>
      <polygon class="cls-2" points="3.62 68.18 19.44 68.18 19.97 65.69 7.02 65.69 8.35 59.43 20.65 59.43 21.18 56.94 8.88 56.94 10.07 51.34 22.75 51.34 23.28 48.84 7.74 48.84 3.62 68.18"/>
      <polygon class="cls-2" points="25.62 68.18 40.25 68.18 40.77 65.69 29.02 65.69 32.6 48.84 29.73 48.84 25.62 68.18"/>
      <polygon class="cls-2" points="45.4 68.18 61.22 68.18 61.74 65.69 48.8 65.69 50.13 59.43 62.43 59.43 62.95 56.94 50.66 56.94 51.85 51.34 64.52 51.34 65.05 48.84 49.51 48.84 45.4 68.18"/>
      <polygon class="cls-2" points="81.7 68.18 85.65 68.18 78.36 56.86 89.24 48.84 85.18 48.84 72.31 58.57 74.38 48.84 71.51 48.84 67.4 68.18 70.27 68.18 71.61 61.87 75.79 58.76 81.7 68.18"/>
      <polygon class="cls-2" points="95.92 68.18 98.79 68.18 102.37 51.34 109.69 51.34 110.21 48.84 92.72 48.84 92.19 51.34 99.51 51.34 95.92 68.18"/>
      <path class="cls-2" d="M116.29,57.48l1.31-6.15h8.1c2.31,0,3.15,1.25,2.76,3.09-.29,1.35-1.33,3.06-4.14,3.06h-8.03ZM111.15,68.18h2.87l1.74-8.21h7.51c2.38,0,3.32,1.06,2.78,4.52-.36,2.33-.53,3.14-.19,3.68h3.03c-.49-.76-.41-1.65.19-5.25.37-2.28-.28-3.87-1.94-4.12v-.05c2.27-.68,3.77-2.41,4.27-4.77.52-2.46-.32-5.15-4.18-5.15h-11.97l-4.11,19.34h0Z"/>
      <path class="cls-2" d="M154.06,58.51c-1.09,5.12-5.1,7.66-9.52,7.66s-7.34-2.55-6.25-7.66c1.09-5.12,5.1-7.66,9.51-7.66s7.34,2.55,6.26,7.66M135.42,58.51c-1.06,4.96.82,10.16,8.59,10.16s11.85-5.2,12.91-10.16c1.05-4.96-.82-10.16-8.59-10.16s-11.85,5.2-12.91,10.16Z"/>
      <path class="cls-2" d="M164.21,65.69l1.35-6.36h8.02c2.93,0,3.46,1.57,3.14,3.09-.35,1.65-1.53,3.28-4.74,3.28h-7.77ZM166.09,56.83l1.17-5.5h7.66c2.36,0,3.09,1.03,2.71,2.79-.33,1.54-1.6,2.71-3.72,2.71h-7.83,0ZM160.81,68.18h11.43c4.2,0,6.72-2.82,7.3-5.58.6-2.79-.53-4.25-2.64-4.77v-.05c1.7-.57,3.2-1.73,3.7-4.09.65-3.03-.81-4.85-4.92-4.85h-10.75l-4.11,19.34h0Z"/>
      <path class="cls-2" d="M200,68.18h3.28l-4.64-19.34h-3.27l-12.86,19.34h3.09l3.67-5.63h9.48l1.27,5.63h-.02ZM198.21,60.06h-7.34l5.45-8.56,1.89,8.56Z"/>
      <path class="cls-2" d="M209.58,60.87c-1.1,5.17,1.21,7.8,7.09,7.8s9.3-2.63,10.41-7.8l2.55-12.03h-2.87l-2.63,12.38c-.74,3.49-3.38,4.96-6.93,4.96s-5.57-1.46-4.83-4.96l2.63-12.38h-2.87l-2.56,12.03h0Z"/>
      <path class="cls-2" d="M253.79,60.25h6.34c-1.03,3.44-4.29,5.93-8.5,5.93s-7.08-2.11-5.92-7.58c.88-4.12,3.92-7.75,9.04-7.75,3.66,0,5.36,1.41,5.69,4.09h3.03c-.08-5.34-4.34-6.58-8.32-6.58-5.01,0-10.77,3.01-12.36,10.48-.9,4.25.37,9.83,8.12,9.83,4.09,0,6.52-1.76,8.11-3.25l-.1,2.76h2.06l2.22-10.43h-8.88l-.53,2.49h0Z"/>
      <polygon class="cls-2" points="280.3 64.88 276.04 48.84 272.01 48.84 267.9 68.18 270.77 68.18 274.1 52.47 274.16 52.47 278.32 68.18 280.87 68.18 291.81 52.15 291.86 52.15 288.45 68.18 291.32 68.18 295.43 48.84 291.45 48.84 280.3 64.88"/>
      <path class="cls-2" d="M301.72,65.69l1.35-6.36h8.02c2.93,0,3.46,1.57,3.14,3.09-.35,1.65-1.53,3.28-4.74,3.28h-7.77ZM303.6,56.83l1.17-5.5h7.66c2.36,0,3.09,1.03,2.71,2.79-.33,1.54-1.6,2.71-3.72,2.71h-7.83,0ZM298.32,68.18h11.43c4.2,0,6.72-2.82,7.3-5.58.6-2.79-.53-4.25-2.64-4.77v-.05c1.7-.57,3.2-1.73,3.7-4.09.65-3.03-.81-4.85-4.92-4.85h-10.75l-4.11,19.34h0Z"/>
      <polygon class="cls-2" points="338.24 68.18 341.12 68.18 345.22 48.84 342.36 48.84 340.71 56.59 327.54 56.59 329.19 48.84 326.32 48.84 322.21 68.18 325.08 68.18 327.01 59.08 340.18 59.08 338.24 68.18"/>
      <polygon class="cls-1" points="422.43 1.71 15.85 1.71 16.21 0 426.56 0 350.3 76.26 0 76.26 .36 74.55 349.59 74.55 422.43 1.71"/>
      <polygon class="cls-1" points="464.54 74.55 551.08 74.55 550.72 76.26 460.41 76.26 536.67 0 566.93 0 566.57 1.71 537.38 1.71 464.54 74.55"/>
    </g>
  </g>
</svg>