<?xml version="1.0" encoding="UTF-8"?>
<svg id="Ebene_2" data-name="Ebene 2" xmlns="http://www.w3.org/2000/svg" viewBox="0 0 114.79 42.94">
  <defs>
    <style>
      .cls-1 {
        fill: #4a4a4a;
      }
    </style>
  </defs>
  <g id="Ebene_2-2" data-name="Ebene 2">
    <g id="Ebene_1-2" data-name="Ebene 1-2">
      <g>
        <path class="cls-1" d="M1.59,37.23c4.14,6.8,15.17,7.57,25.35,2.08v-4.99c-4.64,3.41-9.69,5.18-13.97,5.18-.27,0-.53,0-.8-.02-3.14-.17-5.8-1.35-7.44-3.59-1.23-1.67-1.74-3.75-1.63-6,.26-5.19,3.86-11.36,9.81-15.97,4.6-3.56,9.67-5.47,14.02-5.62v-1.17c-4.44.27-9.35,1.85-13.97,4.76C2.27,18.63-2.83,29.98,1.59,37.23M26.94,3.57c-4.09.3-8.34,1.22-12.56,2.82-3.1,1.17-5.99,2.63-8.6,4.31l-2.82,4.34c3.07-2.76,6.76-5.16,10.95-6.99,4.37-1.91,8.81-2.98,13.03-3.29v-1.19h0ZM26.94,0c-3.57.26-7.21.86-10.87,1.82l-1.04,1.6c.1-.03.19-.06.29-.09,3.91-1.16,7.81-1.86,11.62-2.14V0h0Z"/>
        <path class="cls-1" d="M114.25,36.64h-.35c-.37,0-.53-.18-.53-.57v-.24c0-.36.17-.54.53-.54h.35c.38,0,.54.16.54.54v.24c0,.4-.16.57-.54.57h0ZM107.15,36.64h-.35c-.47,0-.53-.3-.53-.57v-.24c0-.36.17-.54.53-.54h.35c.38,0,.54.16.54.54v.24c0,.4-.16.57-.54.57h0ZM103.4,36.64c-.97,0-2.13-.43-2.13-2.48,0-2.36,1.43-3.59,2.84-3.59s1.51.79,1.51,1.13c0,.79-.49,1.36-1.46,1.7-.72.25-1.52.3-1.87.31v.32c0,1.21.46,1.82,1.38,1.82.61,0,1-.18,1.22-.28.11-.05.18-.08.24-.08.09,0,.15.09.15.17v.41c0,.39-1.2.58-1.88.58h0ZM90,36.64c-.97,0-2.13-.43-2.13-2.48,0-2.36,1.43-3.59,2.84-3.59s1.51.79,1.51,1.13c0,.79-.49,1.36-1.46,1.7-.72.25-1.52.3-1.87.31v.32c0,1.21.46,1.82,1.38,1.82.61,0,1-.18,1.22-.28.11-.05.18-.08.24-.08.09,0,.15.09.15.17v.41c0,.39-1.2.58-1.88.58h0ZM84.77,36.64c-.47,0-1.44-.14-1.44-.58v-.38c0-.1.07-.2.18-.2.06,0,.12.04.21.08.19.1.5.28,1.08.28.64,0,1.04-.3,1.04-.77,0-.36-.24-.56-.64-.88h-.01l-.76-.62c-.39-.31-.76-.61-.76-1.34,0-.98.79-1.67,1.91-1.67.6,0,1.31.12,1.31.47v.52c0,.08-.06.17-.16.17-.09,0-.16-.04-.25-.1-.16-.1-.4-.26-1.01-.26-.4,0-.84.25-.84.64,0,.33.18.47.49.71h0l.91.73c.44.36.77.7.77,1.44,0,.84-.78,1.76-2.03,1.76h0ZM74.44,36.64c-.96,0-2.1-.41-2.1-2.38,0-2.55,1.42-3.69,2.82-3.69.66,0,1.35.18,1.35.49v.4c0,.07-.06.15-.16.15-.05,0-.11-.03-.18-.06-.16-.07-.39-.18-.86-.18-1.24,0-1.95,1.02-1.95,2.79,0,1.13.48,1.7,1.43,1.7.56,0,.92-.18,1.13-.29.09-.05.15-.08.2-.08.06,0,.15.02.15.17v.41c0,.34-1.1.58-1.83.58h0ZM67.41,36.64c-1.12,0-1.35-1.09-1.35-2.01,0-2.28,1.31-4.07,2.99-4.07.53,0,.88.19,1.08.3,0,0,.01,0,.02.01.04-.1.12-.2.21-.2h.42c.23,0,.23.15.23.26l-.25,5.35c0,.17-.1.25-.28.25h-.5c-.24,0-.24-.16-.24-.25h0l.11-2.25c-.23.65-1.05,2.61-2.44,2.61h0ZM62.9,36.64c-.47,0-1.44-.14-1.44-.58v-.38c0-.1.07-.2.18-.2.06,0,.12.04.21.08.19.11.5.28,1.08.28.64,0,1.04-.3,1.04-.77,0-.36-.24-.55-.64-.88h-.02l-.76-.62c-.39-.31-.76-.61-.76-1.34,0-.98.79-1.67,1.91-1.67.6,0,1.31.12,1.31.47v.52c0,.08-.06.17-.16.17-.09,0-.16-.04-.24-.1-.16-.1-.4-.26-1.01-.26-.4,0-.84.25-.84.64,0,.33.18.47.49.71h0l.91.73c.44.36.77.7.77,1.44,0,.84-.78,1.76-2.03,1.76h0ZM54.23,36.64c-.97,0-2.13-.43-2.13-2.48,0-2.36,1.43-3.59,2.84-3.59s1.52.79,1.52,1.13c0,.79-.49,1.36-1.46,1.7-.72.25-1.52.3-1.87.31v.32c0,1.21.46,1.82,1.38,1.82.61,0,1-.18,1.22-.28.11-.05.18-.08.24-.08.09,0,.15.09.15.17v.41c0,.39-1.2.58-1.88.58h-.01ZM47.14,36.64c-1.19,0-1.32-1.4-1.32-2,0-2.25,1.33-4.08,2.96-4.08.35,0,.68.08,1,.25l.12-2.22c0-.14.1-.23.27-.23h.5c.17,0,.25.07.25.23l-.4,7.69c0,.15-.11.25-.28.25h-.5c-.24,0-.24-.16-.24-.25h0l.11-2.29c-.23.67-1.05,2.65-2.47,2.65h0ZM42.79,36.64c-.97,0-2.13-.43-2.13-2.48,0-2.36,1.43-3.59,2.84-3.59s1.51.79,1.51,1.13c0,.79-.49,1.36-1.46,1.7-.72.25-1.52.3-1.87.31v.32c0,1.21.46,1.82,1.38,1.82.61,0,1-.18,1.22-.28.11-.05.18-.08.24-.08.09,0,.15.09.15.17v.41c0,.39-1.2.58-1.88.58h0ZM111.31,36.58h-.52c-.15,0-.28-.13-.31-.25h0l-1.79-6.63c0-.1.12-.19.23-.19h.57c.12,0,.25.1.27.21l1.26,5.09c.06.27.11.59.13.8.07-.22.16-.49.3-.82l2.06-5.14c.03-.08.13-.15.23-.15h.51c.13,0,.23.08.23.17v.02l-2.84,6.65c-.07.14-.2.22-.33.22h0v.02ZM97.49,36.53h-.49c-.26,0-.26-.14-.26-.25l.2-4.02c.02-.32,0-.55-.1-.66-.05-.05-.12-.08-.21-.08-.66,0-2.22,2.65-2.27,4.15l-.02.61c0,.11-.05.25-.31.25h-.46c-.22,0-.25-.12-.25-.25h0l.27-5.36c0-.16.1-.25.28-.25h.47c.25,0,.25.13.25.25l-.11,2.12c.26-.86,1.15-2.48,2.45-2.48,1.02,0,1.02.96,1.02,1.59l-.21,4.13c0,.16-.1.25-.26.25h.01ZM81.73,36.53h-.49c-.26,0-.26-.14-.26-.25l.2-4.02c.02-.32,0-.55-.1-.66-.05-.05-.12-.08-.21-.08-.66,0-2.22,2.65-2.27,4.15l-.02.61c0,.11-.05.25-.31.25h-.46c-.22,0-.25-.12-.25-.25h0l.41-7.69c0-.14.1-.23.27-.23h.46c.2,0,.28.07.28.23l-.25,4.44c.27-.86,1.15-2.47,2.45-2.47,1.02,0,1.02.96,1.02,1.59l-.21,4.13c0,.16-.1.25-.26.25h0ZM58.19,36.53h-.49c-.22,0-.24-.12-.24-.25h0l.27-5.36c0-.11.05-.25.27-.25h.48c.24,0,.26.12.26.25l-.1,1.92c.2-.81.7-2.28,1.99-2.28.42,0,.62.12.62.38l-.03.58c0,.11-.08.21-.17.21-.08,0-.15-.04-.23-.08-.11-.06-.24-.13-.43-.13-1.01,0-1.86,3.44-1.89,4.15l-.02.6c0,.16-.1.25-.28.25h-.01ZM38.79,36.53h-.46c-.24,0-.26-.13-.26-.25h0l.27-5.36c0-.16.1-.25.29-.25h.46c.24,0,.26.13.26.25l-.27,5.36c0,.09-.04.25-.29.25h0ZM35.96,36.53h-.66c-.24,0-.46-.42-.76-.99-.07-.14-.15-.28-.23-.43l-1.82-3.31c-.23-.42-.34-.67-.41-.94l-.27,5.42c0,.16-.1.25-.27.25h-.42c-.24,0-.24-.13-.24-.25h0l.34-6.52c0-.16.08-.24.26-.24h.63c.19,0,.27.05.6.62l2.23,4.07c.2.38.34.69.42.96l.27-5.41c0-.16.09-.24.27-.24h.42c.23,0,.23.12.23.24l-.33,6.52c0,.16-.09.25-.26.25h0ZM69.19,31.25c-1.23,0-2.12,1.4-2.12,3.33,0,.8.17,1.21.51,1.21,1.13,0,2.38-3.52,2.5-4.3-.17-.09-.44-.23-.89-.23h0ZM48.9,31.25c-1.17,0-2.06,1.41-2.06,3.28,0,.57.08,1.26.48,1.26,1.18,0,2.25-3.19,2.42-4.35-.14-.06-.49-.19-.83-.19h0ZM90.63,31.25c-1.12,0-1.57,1.25-1.66,1.76h.04c.54-.04,2.19-.16,2.19-1.16,0-.38-.2-.6-.57-.6h0ZM104.03,31.25c-1.12,0-1.57,1.25-1.66,1.76h.04c.54-.04,2.19-.16,2.19-1.16,0-.38-.2-.6-.58-.6h.01ZM43.42,31.25c-1.12,0-1.57,1.25-1.66,1.76h.04c.54-.04,2.19-.16,2.19-1.16,0-.38-.2-.6-.57-.6h0ZM54.86,31.25c-1.12,0-1.57,1.25-1.66,1.76h.04c.54-.04,2.19-.16,2.19-1.16,0-.38-.2-.6-.58-.6h.01ZM38.9,29.6c-.51,0-.56-.12-.56-.62s.22-.61.61-.61c.55,0,.61.13.61.63,0,.57-.25.61-.67.61h0Z"/>
        <path class="cls-1" d="M106.01,17.91c-1.54,0-2.58,1.91-2.9,2.92l.12-2.49c0-.14,0-.3-.3-.3h-.56c-.22,0-.33.1-.33.29l-.33,6.33h0c0,.16.04.3.3.3h.54c.3,0,.36-.16.36-.29l.03-.72c.05-1.78,1.9-4.9,2.68-4.9.11,0,.19.03.25.09.13.13.14.41.12.78l-.23,4.75c0,.13,0,.3.31.3h.58c.19,0,.31-.11.31-.29l.25-4.88c0-.75,0-1.88-1.2-1.88h0Z"/>
        <path class="cls-1" d="M99.73,18.04h-.58c-.24,0-.35.09-.35.29l-.04.71c-.09,1.5-1.7,4.91-2.72,4.91-.29,0-.34-.31-.34-.87l.27-4.75c0-.16-.03-.3-.31-.3h-.58c-.2,0-.31.11-.31.29l-.33,5.44c0,.61.29,1.32,1.12,1.32,1.8,0,2.78-2.45,3.06-3.28l-.14,2.86h0c0,.11,0,.3.31.3h.58c.19,0,.31-.11.31-.29l.32-6.33c0-.13,0-.3-.27-.3h0Z"/>
        <path class="cls-1" d="M91.66,20.57c.53-.29,1.31-.88,1.31-1.85,0-1.38-.79-2.05-2.41-2.05h-1.91c-.21,0-.32.1-.32.27l-.4,7.72h0c0,.16.04.3.3.3h1.86c1.75,0,2.97-.96,2.97-2.34,0-1.01-.48-1.72-1.39-2.05h0ZM89.29,20.2l.15-2.75h1.09c.87,0,1.35.47,1.35,1.32,0,.72-.57,1.48-1.62,1.48h-.96v-.05h0ZM90.09,24.08h-.9l.15-2.98h.84c1.06,0,1.6.51,1.6,1.52,0,.87-.68,1.46-1.69,1.46h0Z"/>
        <path class="cls-1" d="M114.33,15.31h-.58c-.2,0-.32.1-.32.27l-.14,2.62c-.38-.19-.77-.29-1.18-.29-1.93,0-3.49,2.16-3.49,4.82,0,2.13,1.09,2.36,1.56,2.36,1.67,0,2.64-2.35,2.92-3.13l-.13,2.71h0c0,.11,0,.3.28.3h.58c.21,0,.33-.11.33-.29l.47-9.09c0-.19-.09-.27-.3-.27h0ZM110.37,24.08c-.46,0-.56-.81-.56-1.48,0-2.21,1.05-3.88,2.43-3.88.45,0,.87.17.99.23-.2,1.36-1.46,5.13-2.86,5.13h0Z"/>
        <path class="cls-1" d="M85.93,23.67c0-.1-.06-.2-.17-.2-.09,0-.51.27-1.15.27-.75,0-1.01-.31-1.01-1.04l.18-3.31h2.12c.18,0,.26-.08.26-.24l.05-.84c0-.13,0-.26-.24-.26h-2.12l.08-1.33c0-.15,0-.27-.23-.27h-1.28c-.19,0-.28.09-.28.27l-.08,1.33h-.65c-.15,0-.24.09-.24.26l-.05.84c0,.15.03.24.23.24h.65l-.2,3.95c0,1.28.72,1.8,2.03,1.8.96,0,2.06-.27,2.06-.68l.05-.79h-.01ZM75.69,24.77c0,.14.01.24.26.24h1.34c.13,0,.19-.09.19-.24l.05-.97c.03-.6.9-4.09,2.32-4.09.41,0,.56.26.75.26.12,0,.19-.14.19-.27l.08-1.37c0-.35-.27-.41-.79-.41-1.56,0-2.26,2.24-2.37,2.89l-.03-.03.15-2.53c0-.15-.03-.2-.19-.2h-1.34c-.15,0-.26.04-.26.2l-.36,6.52h0ZM70.4,22.04c0-.79.1-2.79,1.34-2.79.91,0,1.04.97,1.04,1.88,0,1.69-.44,2.66-1.33,2.66s-1.05-.88-1.05-1.75M71.27,25.14c1.83,0,3.43-1.3,3.43-4.04,0-2.11-1.11-3.19-2.85-3.19s-3.36,1.25-3.36,4.11c0,2.05,1.1,3.12,2.79,3.12M63.13,23.79c0-1.11,1.47-4.1,2.34-4.1.36,0,.49.41.49.97,0,2.06-.79,3.19-2.19,3.19-.32,0-.51-.04-.64-.06M61.11,27.58c0,.14,0,.24.25.24h1.34c.13,0,.19-.09.19-.24l.14-2.71c.13.08.54.27,1.24.27,1.83,0,3.47-1.89,3.47-4.82,0-1.34-.4-2.41-1.69-2.41-1.54,0-2.54,1.97-2.77,2.72l-.03-.03.14-2.37c0-.15-.03-.2-.19-.2h-1.34c-.15,0-.26.04-.26.2l-.51,9.34h.02ZM57.92,19.56c-.28-.23-.54-.45-.54-.83,0-.54.47-.82,1.15-.82,1.15,0,1.53.56,1.78.56.1,0,.17-.09.17-.18l.05-1.16c0-.36-1.44-.56-2.05-.56-1.52,0-3.02.72-3.02,2.35,0,1.16.46,1.54,1.33,2.23l1.25,1c.35.28.42.42.42.61,0,.73-.51.97-1.31.97-1.11,0-1.85-.55-2.05-.55-.09,0-.17.08-.17.22l-.05,1.16c.33.43,1.73.58,2.38.58,1.73,0,3.11-.95,3.11-2.55,0-1.05-.49-1.47-1.25-2.07l-1.22-.96h.02Z"/>
        <path class="cls-1" d="M50.55,25.09c-.55,0-1.7-.17-1.7-.69v-.46c0-.11.08-.23.22-.23.07,0,.14.04.24.1.22.12.59.33,1.28.33.76,0,1.23-.35,1.23-.91,0-.42-.28-.65-.75-1.04l-.02-.02-.9-.71c-.46-.37-.9-.72-.9-1.59,0-1.16.93-1.97,2.26-1.97.71,0,1.54.15,1.54.56v.61c0,.1-.07.21-.19.21-.11,0-.19-.05-.29-.12-.19-.12-.48-.31-1.19-.31-.48,0-.99.29-.99.76,0,.39.22.56.58.84h0l1.08.86c.52.43.91.82.91,1.7,0,1-.92,2.08-2.4,2.08h0ZM45.37,25.09c-1.15,0-2.52-.51-2.52-2.94,0-1.28.36-2.37,1.04-3.15.62-.71,1.44-1.1,2.31-1.1,1.62,0,1.79.93,1.79,1.34,0,2.15-3.17,2.36-3.94,2.38v.38c0,1.43.55,2.15,1.63,2.15.73,0,1.18-.21,1.45-.33.13-.06.21-.1.28-.1.11,0,.18.11.18.21v.48c0,.48-1.47.69-2.22.69h0ZM36.99,25.09c-.47,0-1.56-.23-1.56-2.36,0-2.66,1.57-4.82,3.49-4.82.41,0,.8.1,1.18.29l.14-2.62c0-.1.04-.27.32-.27h.58c.2,0,.3.08.3.27l-.47,9.09c0,.18-.13.29-.34.29h-.58c-.28,0-.28-.19-.28-.3h0l.13-2.71c-.28.79-1.24,3.13-2.92,3.13h0ZM22.57,25.09c-.73,0-1.6-.41-1.6-2.38,0-2.7,1.55-4.81,3.53-4.81.64,0,1.04.22,1.28.36h.02c.04-.1.14-.23.25-.23h.49c.27,0,.27.18.27.31l-.3,6.32c0,.19-.11.29-.34.29h-.58c-.28,0-.28-.19-.28-.3h0l.13-2.65c-.28.77-1.24,3.08-2.88,3.08h0ZM33.48,24.96h-.58c-.31,0-.31-.16-.31-.3l.23-4.75c0-.3.02-.63-.12-.78-.06-.06-.14-.09-.25-.09-.79,0-2.63,3.13-2.68,4.9l-.03.72c0,.13-.06.29-.36.29h-.54c-.26,0-.3-.14-.3-.3h0l.33-6.33c0-.19.11-.29.34-.29h.56c.3,0,.3.16.3.3l-.12,2.49c.31-1.01,1.36-2.92,2.9-2.92,1.2,0,1.2,1.13,1.2,1.88l-.25,4.88c0,.18-.12.29-.31.29h0ZM19.94,24.96h-3.91c-.27,0-.31-.14-.31-.3h0l.4-7.71c0-.25.19-.28.34-.28h.62c.26,0,.28.13.28.28l-.36,7.13h2.98c.26,0,.28.13.28.28v.3c0,.19-.12.3-.32.3h0ZM39.07,18.72c-1.39,0-2.43,1.67-2.43,3.88,0,.68.1,1.48.56,1.48,1.4,0,2.66-3.77,2.86-5.14-.16-.07-.57-.23-.99-.23h0ZM24.68,18.72c-1.45,0-2.5,1.65-2.5,3.93,0,.95.2,1.43.6,1.43,1.34,0,2.81-4.16,2.95-5.08-.2-.11-.52-.28-1.05-.28h0ZM46.12,18.72c-1.33,0-1.86,1.48-1.96,2.08h.04c.64-.05,2.59-.19,2.59-1.37,0-.45-.24-.71-.68-.71h0Z"/>
      </g>
    </g>
  </g>
</svg>