<?xml version="1.0" encoding="UTF-8"?>
<svg id="Ebene_2" data-name="Ebene 2" xmlns="http://www.w3.org/2000/svg" viewBox="0 0 292.27 123.17">
  <defs>
    <style>
      .cls-1 {
        fill: #19416a;
      }
    </style>
  </defs>
  <g id="Ebene_2-2" data-name="Ebene 2">
    <g id="Ebene_2-2" data-name="Ebene 2-2">
      <g id="Ebene_2-2-2" data-name="Ebene 2-2">
        <g id="Ebene_1-2" data-name="Ebene 1-2">
          <g>
            <g>
              <path class="cls-1" d="M283.68,3.28c-4.42-3.07-10.06-4.01-16.32-2.72-3.25.67-6.57,1.93-9.87,3.67,2.43,1.44,4.21,3.91,4.67,6.91.04.29.07.57.09.85,2.36-1.2,4.7-2.06,6.95-2.53,3.81-.79,6.93-.35,9.28,1.28,3.6,2.49,5.25,8,4.54,15.09-.81,8.16-4.5,17.3-10.37,25.77-7.72,11.11-19.32,19.42-28.24,21.26-3.81.78-6.93.36-9.28-1.28-3.6-2.49-3.99-8.25-3.29-15.35.81-8.16,4.5-17.31,10.38-25.77,2.2-3.17,4.62-6.08,7.15-8.67-2.98-1.03-5.37-3.48-6.22-6.66-2.99,3.03-5.83,6.42-8.41,10.15-6.75,9.71-10.99,20.39-11.96,30.06-.84,8.43-.38,15.66,3.58,20.44l-25.93,47.39c.1-.19,34.97-41.54,34.97-41.54,3.28.91,6.94.96,10.84.16,11.29-2.33,24.73-11.83,33.88-24.98,14.71-21.18,16.27-44.69,3.56-53.53"/>
              <path class="cls-1" d="M260.78,11.35c.69,4.55-2.44,8.8-6.98,9.48-4.55.69-8.8-2.44-9.49-6.99s2.44-8.8,6.99-9.49c4.55-.69,8.8,2.44,9.48,6.99"/>
            </g>
            <path class="cls-1" d="M209.58,57.23c-1.1-1.51-2.61-2.61-4.55-3.29,1.67-.94,3.01-2.25,4-3.92.99-1.67,1.49-3.56,1.49-5.65v-5.49c0-10.3-6.07-15.46-18.2-15.46h-43.47v51.63h-1.49c-2.4,0-4-.52-5.9-1.53-1.91-1.02-3.78-2.27-5.14-4.12-6.64-8.97-17.56-28.56-24.35-37.43-2.39-3.12-5.36-5.09-8.24-6.48s-7.03-2.07-10.75-2.07H0l46.28,11.14v51.63h11.69v-51.63h21.56v51.63h11.38v-51.63h1.49c2.35.06,4.47.59,6.35,1.61s3.72,2.25,5.1,4.04c6.72,8.75,17.45,28.15,23.88,37.12,2.32,3.23,5.38,5.27,8.44,6.71s6.79,2.16,11.18,2.16h44.96c12.61,0,18.91-5.15,18.91-15.46v-8.16c0-2.04-.55-3.82-1.65-5.34M192.32,34.55c2.51,0,4.32.51,5.41,1.53,1.1,1.02,1.65,2.58,1.65,4.67v4.47c0,1.1-.34,2.07-1.02,2.9-.68.84-1.67,1.25-2.98,1.25h-35.07v-14.83h32.01ZM199.54,69.23c0,2.3-.8,3.84-2.39,4.63-1.6.79-3.83,1.18-6.71,1.18h-30.13v-15.62h35.07c1.36,0,2.39.34,3.1,1.02s1.06,1.54,1.06,2.59v6.2h0Z"/>
          </g>
        </g>
      </g>
    </g>
  </g>
</svg>