<?xml version="1.0" encoding="UTF-8"?>
<svg id="Ebene_2" data-name="Ebene 2" xmlns="http://www.w3.org/2000/svg" viewBox="0 0 292.27 139.84">
  <defs>
    <style>
      .cls-1 {
        fill: #1d1d1d;
      }

      .cls-2 {
        fill: #4a4a4a;
      }

      .cls-3 {
        fill: #c2c2c2;
      }
    </style>
  </defs>
  <g id="Ebene_2-2" data-name="Ebene 2">
    <g id="Ebene_1-2" data-name="Ebene 1-2">
      <g>
        <g>
          <path class="cls-1" d="M283.68,3.28c-4.42-3.07-10.06-4.01-16.32-2.72-3.25.67-6.57,1.93-9.87,3.67,2.43,1.44,4.21,3.91,4.67,6.91.04.29.07.57.09.85,2.36-1.2,4.7-2.06,6.95-2.53,3.81-.79,6.93-.35,9.28,1.28,3.6,2.49,5.25,8,4.54,15.09-.81,8.16-4.5,17.3-10.37,25.77-7.72,11.11-19.32,19.42-28.24,21.26-3.81.78-6.93.36-9.28-1.28-3.6-2.49-3.99-8.25-3.29-15.35.81-8.16,4.5-17.31,10.38-25.77,2.2-3.17,4.62-6.08,7.15-8.67-2.98-1.03-5.37-3.48-6.22-6.66-2.99,3.03-5.83,6.42-8.41,10.15-6.75,9.71-10.99,20.39-11.96,30.06-.84,8.43-.38,15.66,3.58,20.44l-25.93,47.39c.1-.19,34.97-41.54,34.97-41.54,3.28.91,6.94.96,10.84.16,11.29-2.33,24.73-11.83,33.88-24.98,14.71-21.18,16.27-44.69,3.56-53.53"/>
          <path class="cls-3" d="M262.16,11.14c.81,5.31-2.85,10.27-8.15,11.07-5.31.81-10.27-2.85-11.08-8.16s2.85-10.27,8.16-11.08c5.31-.8,10.27,2.85,11.07,8.16"/>
        </g>
        <polygon class="cls-1" points="49.7 120.09 49.7 109.9 45.47 109.9 45.47 108.26 56.4 108.26 56.4 109.9 52.17 109.9 52.17 120.09 49.7 120.09"/>
        <polygon class="cls-1" points="58.06 120.09 58.06 108.26 65.64 108.26 65.64 109.9 60.52 109.9 60.52 113.19 64.75 113.19 64.75 114.82 60.52 114.82 60.52 118.42 66.01 118.42 66.01 120.09 58.06 120.09"/>
        <polygon class="cls-1" points="67.89 120.09 67.89 108.26 70.06 108.26 75.53 116.35 75.53 108.26 77.51 108.26 77.51 120.09 75.3 120.09 69.87 112.01 69.87 120.09 67.89 120.09"/>
        <polygon class="cls-1" points="80.47 120.09 80.47 108.26 82.64 108.26 88.12 116.35 88.12 108.26 90.09 108.26 90.09 120.09 87.88 120.09 82.45 112.01 82.45 120.09 80.47 120.09"/>
        <rect class="cls-1" x="93.06" y="108.26" width="2.46" height="11.83"/>
        <path class="cls-1" d="M97.82,119.99v-2.03c.92.39,1.61.62,2.07.69.46.08.88.11,1.26.11.69,0,1.21-.15,1.55-.46.34-.31.51-.68.51-1.11,0-.33-.1-.63-.29-.9-.19-.26-.66-.6-1.4-1.02l-.8-.44c-1.14-.63-1.91-1.22-2.31-1.76-.41-.54-.61-1.16-.61-1.87,0-.89.34-1.65,1.02-2.29.68-.63,1.66-.95,2.94-.95.95,0,2.03.13,3.22.41v1.89c-1.22-.45-2.19-.68-2.91-.68-.6,0-1.05.13-1.36.39s-.47.57-.47.93c0,.28.1.54.29.78.18.24.65.57,1.39.99l.85.47c1.31.73,2.14,1.37,2.5,1.9.36.54.53,1.15.53,1.83,0,.97-.37,1.8-1.11,2.48-.74.69-1.92,1.03-3.53,1.03-.96,0-2.07-.13-3.34-.4"/>
        <polygon class="cls-1" points="110.94 120.09 106.56 108.26 109.19 108.26 112.58 117.42 115.87 108.26 117.64 108.26 113.4 120.09 110.94 120.09"/>
        <polygon class="cls-1" points="119.28 120.09 119.28 108.26 126.86 108.26 126.86 109.9 121.74 109.9 121.74 113.19 125.97 113.19 125.97 114.82 121.74 114.82 121.74 118.42 127.23 118.42 127.23 120.09 119.28 120.09"/>
        <path class="cls-1" d="M129.11,120.09v-11.83h4.43c.91,0,1.6.11,2.07.34.47.23.85.57,1.12,1.03.27.46.41.98.41,1.56,0,.69-.2,1.35-.6,1.96-.4.62-.97,1.09-1.7,1.41l3.87,5.52h-3l-2.94-4.84h-1.35v4.84h-2.32.01ZM131.43,113.64h.57c1.02,0,1.72-.22,2.11-.66s.58-.94.58-1.5c0-.48-.16-.87-.47-1.15-.32-.29-.96-.43-1.92-.43h-.86v3.75h-.01Z"/>
        <path class="cls-1" d="M140.41,120.1v-11.83h4c.96,0,1.68.11,2.14.32s.83.53,1.09.96c.26.42.39.87.39,1.35,0,.6-.21,1.17-.62,1.71-.41.54-1.15.98-2.21,1.31.85.21,1.49.47,1.94.78s.79.68,1.02,1.1c.23.43.35.88.35,1.38,0,.53-.14,1.03-.41,1.49s-.65.82-1.12,1.06c-.48.25-1.21.37-2.2.37h-4.37ZM142.77,113.19h.53c.75,0,1.3-.18,1.67-.56.37-.37.55-.82.55-1.36,0-.28-.06-.53-.16-.73-.11-.21-.3-.37-.57-.48-.27-.12-.8-.17-1.57-.17h-.44v3.3h0ZM142.77,118.42h.47c.85,0,1.44-.06,1.75-.17s.54-.29.7-.54.23-.53.23-.83c0-.59-.26-1.08-.77-1.49-.51-.41-1.17-.61-1.96-.61h-.42v3.65h0Z"/>
        <path class="cls-1" d="M149.42,120.09l4.61-11.83h2.47l4.6,11.83h-2.53l-1.23-3.16h-4.9l-1.23,3.16h-1.79ZM153.06,115.36h3.67l-1.83-4.72-1.84,4.72Z"/>
        <polygon class="cls-1" points="162.77 120.09 162.77 108.26 164.95 108.26 170.42 116.35 170.42 108.26 172.39 108.26 172.39 120.09 170.18 120.09 164.75 112.01 164.75 120.09 162.77 120.09"/>
        <path class="cls-1" d="M175.36,120.1v-11.83h5.09c1.36,0,2.43.22,3.19.66.76.44,1.36,1.08,1.81,1.93s.68,1.88.68,3.08-.21,2.23-.64,3.16-1.05,1.66-1.87,2.2c-.82.54-1.95.81-3.37.81h-4.89ZM177.82,118.42h1.84c.96,0,1.69-.15,2.2-.45.51-.3.91-.8,1.21-1.52.3-.71.44-1.5.44-2.38s-.14-1.58-.43-2.22-.69-1.13-1.2-1.47c-.51-.33-1.37-.5-2.58-.5h-1.49v8.53h0Z"/>
        <polygon class="cls-1" points="46.76 139.54 46.76 127.71 48.93 127.71 54.4 135.79 54.4 127.71 56.38 127.71 56.38 139.54 54.17 139.54 48.74 131.46 48.74 139.54 46.76 139.54"/>
        <rect class="cls-1" x="59.34" y="127.71" width="2.46" height="11.83"/>
        <polygon class="cls-1" points="64.77 139.54 64.77 127.71 72.35 127.71 72.35 129.34 67.24 129.34 67.24 132.63 71.46 132.63 71.46 134.27 67.24 134.27 67.24 137.86 72.73 137.86 72.73 139.54 64.77 139.54"/>
        <path class="cls-1" d="M74.61,139.54v-11.83h5.09c1.36,0,2.43.22,3.19.66s1.37,1.08,1.81,1.93c.45.85.68,1.88.68,3.08s-.21,2.23-.64,3.16c-.43.93-1.05,1.66-1.87,2.2s-1.94.81-3.37.81h-4.89ZM77.07,137.86h1.84c.96,0,1.69-.15,2.2-.45.51-.3.91-.8,1.21-1.52.3-.71.44-1.5.44-2.38s-.14-1.58-.43-2.22-.69-1.13-1.2-1.47c-.51-.33-1.37-.5-2.58-.5h-1.49v8.53h.01Z"/>
        <polygon class="cls-1" points="87.59 139.54 87.59 127.71 95.17 127.71 95.17 129.34 90.05 129.34 90.05 132.63 94.28 132.63 94.28 134.27 90.05 134.27 90.05 137.86 95.54 137.86 95.54 139.54 87.59 139.54"/>
        <path class="cls-1" d="M97.42,139.54v-11.83h4.43c.91,0,1.6.11,2.07.34s.85.57,1.12,1.03c.27.46.41.98.41,1.56,0,.69-.2,1.35-.6,1.96-.4.62-.97,1.09-1.7,1.41l3.87,5.52h-3l-2.94-4.84h-1.35v4.84h-2.32,0ZM99.74,133.08h.57c1.02,0,1.72-.22,2.11-.66s.58-.94.58-1.5c0-.48-.16-.87-.47-1.15-.31-.29-.96-.43-1.92-.43h-.86v3.75h-.01Z"/>
        <path class="cls-1" d="M108.05,139.44v-2.03c.92.39,1.61.62,2.07.69.46.08.88.11,1.26.11.69,0,1.21-.15,1.55-.46.34-.31.51-.68.51-1.11,0-.33-.1-.63-.29-.9-.19-.26-.66-.6-1.4-1.02l-.8-.44c-1.14-.63-1.91-1.22-2.31-1.76-.41-.54-.61-1.16-.61-1.87,0-.89.34-1.65,1.02-2.29.68-.63,1.66-.95,2.94-.95.95,0,2.03.13,3.22.41v1.89c-1.22-.45-2.19-.68-2.91-.68-.6,0-1.05.13-1.36.39s-.47.57-.47.93c0,.28.1.54.29.78.18.24.65.57,1.39.99l.85.47c1.31.73,2.14,1.37,2.5,1.9.36.54.53,1.15.53,1.83,0,.97-.37,1.8-1.11,2.48-.74.69-1.92,1.03-3.53,1.03-.96,0-2.07-.13-3.34-.4"/>
        <path class="cls-1" d="M116.77,139.54l4.61-11.83h2.47l4.6,11.83h-2.53l-1.23-3.16h-4.9l-1.23,3.16s-1.79,0-1.79,0ZM120.41,134.81h3.67l-1.83-4.72-1.84,4.72Z"/>
        <path class="cls-1" d="M139.65,139.08c-.52.23-.97.38-1.35.47-.38.08-.82.15-1.31.21-.49.05-.97.08-1.44.08-2.07,0-3.61-.58-4.63-1.75s-1.53-2.66-1.53-4.46.51-3.31,1.52-4.47c1.02-1.16,2.61-1.74,4.78-1.74,1.29,0,2.56.15,3.84.46v1.93c-.61-.21-1.12-.37-1.5-.47-.39-.1-.76-.17-1.11-.22s-.7-.07-1.04-.07c-1.36,0-2.34.44-2.96,1.31-.61.87-.92,1.96-.92,3.25s.35,2.45,1.04,3.29c.7.84,1.73,1.26,3.11,1.26,1.14,0,2.31-.29,3.49-.87v1.81-.02Z"/>
        <polygon class="cls-1" points="141.79 139.54 141.79 127.71 144.25 127.71 144.25 132.52 149.14 132.52 149.14 127.71 151.6 127.71 151.6 139.54 149.14 139.54 149.14 134.15 144.25 134.15 144.25 139.54 141.79 139.54"/>
        <path class="cls-1" d="M153.9,139.44v-2.03c.92.39,1.61.62,2.07.69.46.08.88.11,1.26.11.69,0,1.21-.15,1.55-.46.34-.31.51-.68.51-1.11,0-.33-.1-.63-.29-.9-.19-.26-.66-.6-1.4-1.02l-.8-.44c-1.14-.63-1.91-1.22-2.31-1.76-.41-.54-.61-1.16-.61-1.87,0-.89.34-1.65,1.02-2.29.68-.63,1.66-.95,2.93-.95.95,0,2.03.13,3.22.41v1.89c-1.22-.45-2.19-.68-2.91-.68-.59,0-1.05.13-1.36.39s-.47.57-.47.93c0,.28.09.54.28.78s.65.57,1.39.99l.86.47c1.31.73,2.14,1.37,2.5,1.9.36.54.53,1.15.53,1.83,0,.97-.37,1.8-1.11,2.48-.74.69-1.92,1.03-3.53,1.03-.96,0-2.07-.13-3.34-.4"/>
        <polygon class="cls-1" points="163.92 139.54 163.92 127.71 171.5 127.71 171.5 129.34 166.38 129.34 166.38 132.63 170.61 132.63 170.61 134.27 166.38 134.27 166.38 137.86 171.87 137.86 171.87 139.54 163.92 139.54"/>
        <polygon class="cls-1" points="173.75 139.54 173.75 127.71 175.92 127.71 181.39 135.79 181.39 127.71 183.37 127.71 183.37 139.54 181.16 139.54 175.72 131.46 175.72 139.54 173.75 139.54"/>
        <rect class="cls-1" x="185.54" y="133.77" width="3.55" height="1.48"/>
        <path class="cls-1" d="M191.27,139.54v-11.83h4c.96,0,1.68.11,2.14.32s.83.53,1.09.96c.26.42.39.87.39,1.35,0,.6-.21,1.17-.62,1.71-.41.54-1.15.98-2.21,1.31.85.21,1.49.47,1.94.78s.79.68,1.02,1.1c.23.43.35.88.35,1.38,0,.53-.14,1.03-.41,1.49s-.65.82-1.12,1.06c-.48.25-1.21.37-2.2.37h-4.37ZM193.63,132.63h.53c.75,0,1.3-.18,1.67-.56.37-.37.55-.82.55-1.36,0-.28-.05-.53-.16-.73-.11-.21-.3-.37-.57-.48-.27-.12-.8-.17-1.57-.17h-.44v3.3h0ZM193.63,137.86h.47c.86,0,1.44-.06,1.75-.17s.54-.29.7-.54.24-.53.24-.83c0-.59-.26-1.08-.77-1.49-.52-.41-1.17-.61-1.96-.61h-.42v3.65h0Z"/>
        <path class="cls-1" d="M201.58,139.54v-11.83h4.43c.91,0,1.6.11,2.07.34s.85.57,1.12,1.03c.27.46.41.98.41,1.56,0,.69-.2,1.35-.6,1.96-.4.62-.96,1.09-1.7,1.41l3.87,5.52h-3l-2.94-4.84h-1.35v4.84h-2.32.01ZM203.9,133.08h.57c1.02,0,1.72-.22,2.11-.66s.58-.94.58-1.5c0-.48-.16-.87-.47-1.15-.31-.29-.96-.43-1.92-.43h-.86v3.75h-.01Z"/>
        <polygon class="cls-1" points="212.87 139.54 212.87 127.71 220.45 127.71 220.45 129.34 215.34 129.34 215.34 132.63 219.57 132.63 219.57 134.27 215.34 134.27 215.34 137.86 220.83 137.86 220.83 139.54 212.87 139.54"/>
        <polygon class="cls-1" points="222.71 139.54 222.71 127.71 225.96 127.71 228.82 136.03 231.76 127.71 234.62 127.71 234.62 139.54 232.35 139.54 232.35 130.61 229.46 138.75 227.48 138.75 224.64 130.49 224.64 139.54 222.71 139.54"/>
        <polygon class="cls-1" points="237.57 139.54 237.57 127.71 245.15 127.71 245.15 129.34 240.03 129.34 240.03 132.63 244.26 132.63 244.26 134.27 240.03 134.27 240.03 137.86 245.52 137.86 245.52 139.54 237.57 139.54"/>
        <polygon class="cls-1" points="247.4 139.54 247.4 127.71 249.57 127.71 255.04 135.79 255.04 127.71 257.02 127.71 257.02 139.54 254.81 139.54 249.38 131.46 249.38 139.54 247.4 139.54"/>
        <path class="cls-1" d="M270.68,139.25c-1.12.33-2.18.5-3.18.5s-1.78-.18-2.49-.53c-.71-.36-1.26-.91-1.64-1.66s-.58-1.57-.58-2.46c0-.82.16-1.58.49-2.28s.8-1.24,1.42-1.65c.62-.4,1.39-.6,2.3-.6,1.12,0,2.01.36,2.68,1.07.67.71,1,2.04,1,3.99h-5.4c.05.59.19,1.06.4,1.4s.5.61.87.81.85.3,1.47.3c.79,0,1.67-.18,2.66-.55v1.66ZM265.25,134.29h3.11c0-.8-.13-1.38-.4-1.73s-.61-.52-1.03-.52c-.46,0-.83.19-1.13.57-.29.38-.48.94-.55,1.68"/>
        <rect class="cls-1" x="272.43" y="136.98" width="2.57" height="2.57"/>
        <polygon class="cls-1" points="280.31 139.54 275.93 127.71 278.56 127.71 281.96 136.86 285.25 127.71 287.01 127.71 282.77 139.54 280.31 139.54"/>
        <rect class="cls-1" x="286.61" y="136.98" width="2.57" height="2.57"/>
        <path class="cls-2" d="M209.58,57.23c-1.1-1.51-2.61-2.61-4.55-3.29,1.67-.94,3.01-2.25,4-3.92.99-1.67,1.49-3.56,1.49-5.65v-5.49c0-10.3-6.07-15.46-18.2-15.46h-43.47v51.63h-1.49c-2.4,0-4-.52-5.9-1.53-1.91-1.02-3.78-2.27-5.14-4.12-6.64-8.97-17.56-28.56-24.35-37.43-2.39-3.12-5.36-5.09-8.24-6.48s-7.03-2.07-10.75-2.07H0l46.28,11.14v51.63h11.69v-51.63h21.56v51.63h11.38v-51.63h1.49c2.35.06,4.47.59,6.35,1.61s3.72,2.25,5.1,4.04c6.72,8.75,17.45,28.15,23.88,37.12,2.32,3.23,5.38,5.27,8.44,6.71s6.79,2.16,11.18,2.16h44.96c12.61,0,18.91-5.15,18.91-15.46v-8.16c0-2.04-.55-3.82-1.65-5.34M192.32,34.55c2.51,0,4.32.51,5.41,1.53,1.1,1.02,1.65,2.58,1.65,4.67v4.47c0,1.1-.34,2.07-1.02,2.9-.68.84-1.67,1.25-2.98,1.25h-35.07v-14.83h32.01ZM199.54,69.23c0,2.3-.8,3.84-2.39,4.63-1.6.79-3.83,1.18-6.71,1.18h-30.13v-15.62h35.07c1.36,0,2.39.34,3.1,1.02s1.06,1.54,1.06,2.59v6.2h0Z"/>
      </g>
    </g>
  </g>
</svg>