<?xml version="1.0" encoding="UTF-8"?>
<svg id="Ebene_2" data-name="Ebene 2" xmlns="http://www.w3.org/2000/svg" viewBox="0 0 217.45 44.16">
  <defs>
    <style>
      .cls-1 {
        fill: #4a4a4a;
      }
    </style>
  </defs>
  <g id="Ebene_2-2" data-name="Ebene 2">
    <g id="Ebene_1-2" data-name="Ebene 1-2">
      <g>
        <path class="cls-1" d="M217.17,35.89c-.44-.13-1.2-.38-2.26-.38-.64,0-1.37.08-2.01.32-.25.09-1.06.42-1.72,1.21-.43.55-.88,1.45-.88,2.78s.48,2.26.98,2.84c.44.51.87.79,1.1.9.54.31,1.31.57,2.54.57.83,0,1.57-.16,2.41-.38v-4.24h-2.97v.97h1.79v2.46c-.26.07-.56.18-1.1.18-.21,0-.7,0-1.29-.2-.08-.02-.57-.17-.97-.48-.17-.12-.44-.37-.69-.79-.36-.63-.52-1.35-.52-1.98,0-.18,0-.64.2-1.16.1-.24.21-.46.26-.55.04-.05.17-.25.32-.42.48-.53,1.37-1.06,2.59-1.06.21,0,.89.02,1.6.3.25.11.45.21.55.26l.08-1.17v.02ZM204.15,40.37c.05-.19.07-.32.14-.54.3-.78.89-1.2,1.59-1.22.61,0,.95.26,1.14.52.31.42.37.81.42,1.23h-3.29ZM208.6,41.24c0-.19,0-.32-.02-.51-.04-.62-.14-1.49-.64-2.12-.36-.43-1.01-.84-1.98-.84-.43,0-.76.08-.92.13-.12.04-.31.08-.58.25-.76.43-1.46,1.38-1.44,2.85.02.79.24,1.33.43,1.66.06.12.29.5.7.82.82.64,1.97.63,2.11.63.89,0,1.44-.23,1.85-.39v-1.07c-.19.11-.32.19-.52.29-.2.08-.74.3-1.34.28-1.01-.04-1.58-.6-1.85-1.1-.19-.37-.21-.74-.24-.86h4.45v-.02ZM193.26,37.85h-1.07v6.16h1.14v-2.93c0-.48.04-1.05.31-1.51.48-.81,1.24-.86,1.43-.86.81,0,1.12.6,1.23.93.12.32.12.63.12.95v3.42h1.12v-3.35c0-.2,0-.35-.02-.54,0-.14,0-.23-.02-.36-.06-.49-.2-1.09-.73-1.55-.31-.27-.71-.46-1.41-.46-.83,0-1.37.27-1.72.57-.13.12-.19.18-.38.41v-.88h0ZM185.8,40.37c.05-.19.07-.32.14-.54.3-.78.89-1.2,1.59-1.22.61,0,.95.26,1.14.52.31.42.37.81.42,1.23h-3.29ZM190.25,41.24c0-.19,0-.32-.02-.51-.04-.62-.14-1.49-.64-2.12-.36-.43-1.01-.84-1.98-.84-.43,0-.76.08-.92.13-.12.04-.31.08-.58.25-.76.43-1.46,1.38-1.44,2.85.02.79.24,1.33.43,1.66.06.12.29.5.7.82.82.64,1.97.63,2.11.63.89,0,1.44-.23,1.85-.39v-1.07c-.19.11-.32.19-.52.29-.2.08-.74.3-1.33.28-1.01-.04-1.59-.6-1.85-1.1-.19-.37-.21-.74-.24-.86h4.44v-.02ZM182.91,37.98c-.56-.15-1.01-.26-1.59-.25-.46,0-.79.11-.98.19-.7.31-1.06.99-1.04,1.58,0,.36.14.7.37.98.18.21.42.37.67.52.31.19.62.36.95.53.14.08.3.17.42.29.12.13.18.32.18.5,0,.38-.32.81-1.04.82-.65.02-1.3-.35-1.5-.44l-.08,1.02c.36.16.89.38,1.73.37.11,0,.55,0,.93-.17.78-.31,1.23-1,1.23-1.69,0-.51-.24-.92-.43-1.12-.33-.35-.68-.47-1.41-.85-.06-.03-.11-.06-.15-.08-.33-.19-.46-.32-.56-.5-.02-.06-.07-.14-.08-.27,0-.18.08-.33.12-.39.06-.07.13-.14.17-.18.13-.11.37-.2.71-.2.32,0,.64.07,1.3.3l.08-.95h0ZM172,34.99v9.02h1.14v-3.1c.02-.51.05-1.11.49-1.62.2-.24.64-.6,1.24-.6.08,0,.42,0,.73.23.25.18.37.41.45.62.05.12.08.26.12.53.05.44.06,1.17.06,2.24,0,.57,0,1.13,0,1.7h1.12v-3.46c0-.58,0-1.38-.44-1.98-.31-.43-.92-.86-1.85-.82-.48.02-1.04.17-1.51.54-.1.08-.23.19-.42.44v-3.74s-1.12,0-1.12,0ZM170.06,37.95c-.2-.05-.68-.2-1.23-.21-1.27-.04-2.07.53-2.54,1.13-.54.67-.68,1.49-.66,2.17.05,1.65,1.01,2.53,1.86,2.86.23.1.63.2,1.22.21.76,0,1.18-.17,1.54-.32l-.08-.99c-.23.1-.73.33-1.34.33-.08,0-.48,0-.81-.17-.96-.46-1.2-1.41-1.2-2.11,0-1.04.54-1.63,1.08-1.92.49-.26.93-.25,1.11-.25.45.02.81.18.99.26l.06-1h0ZM162.69,41.24c0,.41-.04.64-.1.83-.02.08-.1.29-.29.52-.37.49-.86.66-1.31.66-.52,0-1.23-.26-1.23-.99s.66-1.03,1.23-1.16c.17-.04.44-.07.84-.07.29,0,.57,0,.86.04v.17ZM159.35,39.22c.26-.14.99-.58,1.79-.58s1.25.43,1.41.83c.1.25.11.56.12.81-.3,0-.61-.02-.92-.02-.63,0-1.38.02-2.01.32-.49.23-1.15.67-1.15,1.66,0,.11,0,.23.04.35.07.43.29.82.61,1.08.36.28.83.4,1.32.43.73.02,1.23-.19,1.54-.4.27-.2.44-.39.68-.65v.98h.98v-4.3c-.1-.54-.15-.81-.32-1.06-.33-.54-1.06-.92-2.06-.92-.19,0-.92,0-1.6.31-.14.07-.25.14-.4.21v.96h-.03ZM156.85,37.98c-.56-.15-1.01-.26-1.58-.25-.47,0-.79.11-.98.19-.7.31-1.06.99-1.04,1.58,0,.36.14.7.37.98.18.21.42.37.67.52.31.19.62.36.95.53.14.08.3.17.42.29.12.13.18.32.18.5,0,.38-.32.81-1.04.82-.65.02-1.3-.35-1.5-.44l-.08,1.02c.36.16.89.38,1.73.37.11,0,.55,0,.93-.17.79-.31,1.23-1,1.23-1.69,0-.51-.24-.92-.43-1.12-.33-.35-.68-.47-1.41-.85-.06-.03-.11-.06-.15-.08-.33-.19-.47-.32-.56-.5-.02-.06-.07-.14-.08-.27,0-.18.08-.33.12-.39.06-.07.13-.14.17-.18.13-.11.37-.2.72-.2.32,0,.64.07,1.3.3l.08-.95h-.02ZM149.29,37.85h-1.07c.04.77.06,1.31.06,2.07,0,.89,0,1.53,0,2.41v1.68h1.15v-3.01c.04-.58.07-1.36.69-1.88.42-.35.82-.35.96-.35.31,0,.47.05.78.14v-1.08c-.06,0-.4-.05-.69-.05-.46,0-1.05.11-1.5.63-.07.08-.18.25-.31.46l-.06-1.02ZM141.88,40.37c.05-.19.07-.32.14-.54.3-.78.89-1.2,1.59-1.22.61,0,.95.26,1.14.52.31.42.37.81.42,1.23h-3.29ZM146.32,41.24c0-.19,0-.32-.02-.51-.04-.62-.14-1.49-.64-2.12-.36-.43-1.01-.84-1.98-.84-.43,0-.76.08-.92.13-.12.04-.31.08-.58.25-.76.43-1.46,1.38-1.44,2.85.02.79.24,1.33.43,1.66.06.12.29.5.7.82.82.64,1.97.63,2.11.63.89,0,1.44-.23,1.85-.39v-1.07c-.19.11-.32.19-.52.29-.2.08-.74.3-1.33.28-1.01-.04-1.59-.6-1.85-1.1-.19-.37-.21-.74-.24-.86h4.44v-.02ZM134.04,40.92c0-.15,0-.51.17-.95.42-1.14,1.36-1.25,1.67-1.25.73,0,1.39.47,1.68,1.32.05.18.14.51.13.95,0,.11,0,.48-.13.86-.3.87-.98,1.35-1.73,1.35-.61,0-1.22-.32-1.55-1.01-.19-.39-.26-.84-.24-1.26M137.67,38.69c-.18-.21-.23-.27-.36-.39-.31-.26-.82-.56-1.57-.56-.21,0-1.23,0-2.01.84-.95.99-.87,2.32-.87,2.53,0,.43.07.91.25,1.35.31.76,1.04,1.7,2.54,1.7.17,0,1.04,0,1.71-.63.12-.1.2-.2.39-.45l.05.94h1.07c-.02-.49-.04-.82-.05-1.31-.04-1.19-.04-2.04-.04-3.23,0-1.5.02-2.99.04-4.48h-1.14v3.69h-.01ZM126.82,40.37c.05-.19.07-.32.14-.54.3-.78.89-1.2,1.59-1.22.61,0,.95.26,1.14.52.31.42.37.81.42,1.23h-3.29ZM131.26,41.24c0-.19,0-.32-.02-.51-.04-.62-.14-1.49-.64-2.12-.36-.43-1.01-.84-1.98-.84-.43,0-.76.08-.92.13-.12.04-.31.08-.58.25-.76.43-1.46,1.38-1.44,2.85.02.79.24,1.33.43,1.66.06.12.29.5.7.82.82.64,1.97.63,2.11.63.89,0,1.44-.23,1.85-.39v-1.07c-.19.11-.32.19-.52.29-.2.08-.74.3-1.34.28-1.01-.04-1.59-.6-1.85-1.1-.19-.37-.22-.74-.24-.86h4.44v-.02ZM122.64,44.01h1.12v-6.16h-1.12v6.16ZM122.57,36.39h1.23v-1.21h-1.23v1.21ZM116.1,37.85h-1.07v6.16h1.14v-2.93c.01-.48.04-1.05.31-1.51.48-.81,1.24-.86,1.43-.86.81,0,1.12.6,1.23.93.12.32.12.63.12.95v3.42h1.12v-3.35c-.01-.2-.01-.35-.02-.54,0-.14-.01-.23-.02-.36-.06-.49-.2-1.09-.73-1.55-.31-.27-.71-.46-1.41-.46-.83,0-1.37.27-1.72.57-.13.12-.19.18-.38.41,0,0,0-.88,0-.88ZM107.98,40.92c0-.15.01-.51.17-.95.42-1.14,1.36-1.25,1.67-1.25.73,0,1.39.47,1.68,1.32.05.18.14.51.13.95,0,.11-.01.48-.13.86-.3.87-.98,1.35-1.73,1.35-.61,0-1.22-.32-1.55-1.01-.19-.39-.26-.84-.24-1.26M111.61,38.69c-.18-.21-.23-.27-.36-.39-.31-.26-.82-.56-1.57-.56-.22,0-1.23,0-2.01.84-.95.99-.87,2.32-.87,2.53.01.43.07.91.25,1.35.31.76,1.04,1.7,2.54,1.7.17,0,1.04,0,1.7-.63.12-.1.2-.2.39-.45l.05.94h1.07c-.02-.49-.03-.82-.05-1.31-.04-1.19-.04-2.04-.04-3.23,0-1.5.02-2.99.04-4.48h-1.14s0,3.69,0,3.69ZM99.51,37.85v3.76c.01.48.03,1.07.31,1.55.11.18.18.26.25.34.58.62,1.44.6,1.57.6.83,0,1.35-.25,1.72-.56.11-.1.24-.23.44-.48l.04.94h1.02v-6.16h-1.13v2.92c-.02.61-.05,1.47-.74,2.03-.19.15-.55.37-1.03.37-.08,0-.48,0-.81-.29-.02-.02-.05-.04-.07-.05-.35-.36-.4-.8-.43-1.58v-3.4h-1.14ZM102.83,36.88h1.05v-1.12h-1.05v1.12ZM100.53,36.88h1.08v-1.09h-1.08v1.09ZM95.23,40.42c.24.12.4.21.5.3.24.19.52.54.51,1.07-.01.57-.4,1.35-1.61,1.35-.53,0-1.12-.19-1.26-.24-.21-.08-.36-.15-.57-.25l-.17,1.11c.17.07.3.12.46.17.27.08.89.22,1.62.22.11,0,.18,0,.29,0,.63-.04,1.08-.21,1.35-.37.06-.04.21-.11.39-.29.76-.69.76-1.69.76-1.82,0-.11,0-.35-.08-.64-.2-.66-.62-1.01-.89-1.22-.25-.18-.46-.29-.71-.42l-.75-.43c-.11-.06-.18-.11-.29-.18-.13-.08-.68-.44-.79-.97-.01-.04-.02-.08-.02-.18,0-.32.14-.55.26-.68.21-.24.66-.44,1.23-.44.21,0,.67.02,1.23.24.15.05.26.1.4.17l.18-1.05s-.29-.13-.46-.18c-.4-.12-1.16-.19-1.56-.18-.88,0-1.43.29-1.82.63-.56.5-.71,1.14-.69,1.67.02.47.18.93.46,1.28.27.35.67.6,1.06.83l.98.51h-.01ZM82.86,37.85h-1.07v6.16h1.14v-2.93c.01-.48.04-1.05.31-1.51.48-.81,1.24-.86,1.43-.86.81,0,1.12.6,1.23.93.12.32.12.63.12.95v3.42h1.12v-3.35c-.01-.2-.01-.35-.02-.54,0-.14-.01-.23-.02-.36-.06-.49-.2-1.09-.73-1.55-.31-.27-.72-.46-1.41-.46-.83,0-1.37.27-1.72.57-.13.12-.19.18-.38.41,0,0,0-.88,0-.88ZM78.38,44.01h1.12v-6.16h-1.12v6.16ZM78.31,36.39h1.23v-1.21h-1.23v1.21Z"/>
        <path class="cls-1" d="M204.08,0h-5.18v29.34h5.18v-9.98c.88,1.46,1.5,2.5,2.5,3.88l4.42,6.11h6.45l-8.45-11.25,7.49-8.87h-6.03l-4.53,5.65c-.69.88-1.19,1.54-1.84,2.5V0h-.01ZM194.89,29.34v-10.29c-.08-3.69-.12-5.8-1.31-7.45-.69-1.04-1.34-1.42-1.73-1.69-.81-.5-2.04-1-3.96-1-1.5,0-2.73.19-4.26,1.04-.27.15-1.15.61-1.92,1.46-.31.35-.5.58-.77.92v-3.11h-5.03c.08,1.81.15,3.07.15,4.84v15.28h5.26v-9.41c.04-2.34.19-4.49,2.04-5.91,1.11-.88,2.27-.92,2.61-.88.73,0,1.27.19,1.54.31.73.35,1.15.77,1.5,1.42.58,1.11.65,2.38.69,4.76v9.72h5.19ZM167.53,20.24s-.04.96-.12,1.54c-.58,3.72-3.57,4.42-4.76,4.42-2.42,0-3.15-1.65-3.15-2.76,0-.42.08-.88.31-1.31.88-1.54,2.96-1.96,5.72-1.96.69,0,1.34.04,2,.08M172.3,29.34c-.08-2.42-.15-4.15-.15-6.57v-4.76c0-1.31,0-3.46-.5-4.76-.42-1.27-1.23-2.07-1.73-2.53-1.96-1.69-4.45-1.92-6.45-1.88-3.42.04-5.26.73-6.87,1.34l.15,4.53c.96-.77,1.65-1.04,2.04-1.23.81-.35,2.19-.88,4.11-.92h.5c1.73.08,2.69.65,3.3,1.5.65.92.65,2.03.73,2.96-1-.08-1.73-.11-2.73-.11h-.23c-3.99.04-6.72.73-8.37,2.23-1,.88-1.88,2.23-1.92,4.38-.04,2.46,1.27,6.18,6.8,6.18,1.46,0,2.99-.19,4.49-1.08,1.34-.81,1.88-1.65,2.19-2.23v2.96h4.65-.01ZM139.03,17.2h2.57c1.08,0,2.11.04,3.19.5,2.19.96,2.23,3.03,2.23,3.5,0,.81-.23,1.5-.42,1.8-.23.38-.5.96-1.5,1.46-1.27.69-2.88.73-4.19.73h-.31c-.54,0-1.04-.04-1.57-.04,0,0,0-7.95,0-7.95ZM139.03,6.37c.85,0,1.42-.04,2.23-.04,2.27,0,3.72.46,4.49,1.81.15.27.38.84.38,1.61,0,.61-.19,1.5-.73,2.11-1,1.15-2.46,1.34-4.8,1.34-.54,0-1.04-.04-1.57-.04v-6.8h0ZM133.69,2.23v27.11h8.64c2.61-.04,6.34-.04,8.75-3.07.69-.88,1.5-2.38,1.5-4.53,0-.38,0-2.65-1.65-4.42-.5-.54-1.15-.96-1.27-1.04-1.38-.88-2.38-1-3.76-1.11.54-.08.73-.08,1.31-.27.61-.15,1.27-.5,1.5-.62.42-.27.65-.38,1.08-.77,1.5-1.34,1.81-3.07,1.81-4.45,0-2.15-.81-3.53-1.65-4.45-1-1.11-2.23-1.58-2.53-1.69-1.73-.69-3.73-.69-5.49-.69h-8.24ZM119.59,21.08h10.14v-4.3h-10.14v4.3ZM103.72,6.45h2.61c.35,0,.58.04.96.04,1.69.08,2.73.54,3.38,1.46.27.38.58,1.08.58,2,.04.96-.35,1.73-.58,2.11-1.19,1.77-3.07,1.77-4.46,1.77-.85,0-1.65,0-2.5-.04v-7.34h.01ZM114.59,19.2c-.46-1.04-1.19-2.77-2.57-3.26-.42-.12-.88-.15-1-.19.88-.08,1.69-.19,2.57-.61.42-.19.61-.35.84-.5,1.34-.96,2.5-2.65,2.5-5.22,0-.42,0-2.07-.84-3.57-.23-.42-.54-.88-.88-1.23-2.26-2.38-6.18-2.34-8.56-2.38h-8.33v27.11h5.49v-11.29c1.34,0,2.42,0,2.92.12.38.11.73.19,1.11.5,1,.77,1.42,1.92,2.23,3.88l2.61,6.8h6.07l-4.15-10.14v-.02ZM77.06,2.23h-5.8l9.37,27.11h6.68l9.25-27.11h-5.38l-4.84,15.09c-.81,2.65-1.38,4.49-2.19,7.14-.38-1.34-.65-2.3-1.08-3.65-.42-1.38-.73-2.34-1.19-3.76l-4.84-14.82h.02Z"/>
        <path class="cls-1" d="M61.71,44.04v-7.36h-23.52c-.64,3.38-1.18,6.25-1.39,7.36h24.92-.01Z"/>
        <polygon class="cls-1" points="0 36.68 0 44.04 24.74 44.04 23.09 36.68 0 36.68"/>
        <path class="cls-1" d="M12.16,19.35l-1.8-7.61h15.36l5.08,22.32,3.24-14.46c1.58-6.35,2.18-7.85,11.08-7.85h6.4s-1.29,5.86-2.9,12.22c-.61,2.42-5.96,2.14-5.69-.13.03-.24.28-1.94.48-3.15.29-1.75-1.74-1.96-2.1-.24-.26,1.24-1.43,7.38-2.53,13.15h22.93V2.22H0v31.37h22.4l-3.19-14.23h-7.05,0Z"/>
      </g>
    </g>
  </g>
</svg>