<?xml version="1.0" encoding="UTF-8"?>
<svg id="Ebene_2" data-name="Ebene 2" xmlns="http://www.w3.org/2000/svg" viewBox="0 0 674.27 175.97">
  <defs>
    <style>
      .cls-1 {
        fill-rule: evenodd;
      }

      .cls-1, .cls-2 {
        fill: #fff;
      }
    </style>
  </defs>
  <g id="Ebene_1-2" data-name="Ebene 1">
    <path class="cls-1" d="M107.42,19.43v10.88h-3.89c-.33-1.17-.7-2.23-1.12-3.16l-.06-.14c-.37-.81-.78-1.52-1.22-2.14-.97-1.35-2.09-2.32-3.38-2.9-1.29-.58-2.83-.86-4.65-.86-2.7,0-5.1.9-7.21,2.7-2.11,1.78-3.77,4.49-4.98,8.09-1.21,3.61-1.81,7.95-1.81,13.06,0,1.45.04,2.83.12,4.16v.14c.21,3.33.67,6.28,1.39,8.84.99,3.63,2.46,6.37,4.41,8.22,1.93,1.84,4.32,2.76,7.16,2.76,2.15,0,3.91-.31,5.28-.93,1.36-.62,2.51-1.58,3.44-2.92.93-1.34,1.81-3.3,2.66-5.9h3.89v11.24c-2.47.66-5,1.15-7.57,1.48-2.59.34-5.43.5-8.51.5-6.67,0-11.71-2.25-15.11-6.76-1.92-2.54-3.3-5.78-4.14-9.73l-.02-.11c-.63-3.03-.95-6.46-.95-10.31,0-5.61.89-10.51,2.65-14.74,1.77-4.21,4.38-7.47,7.82-9.78,3.44-2.31,7.53-3.46,12.31-3.46,2.39,0,4.59.12,6.61.38,2.03.24,4.32.71,6.93,1.39h0ZM65.43,171.01l-.17.07.15-.08h0c4.3-2.18,8.38-4.36,12.23-6.56,22.3-12.76,36.92-25.98,43.86-39.66,1.29-2.55,2.31-5.11,3.07-7.68.12-.42.24-.84.35-1.25.02-.09.05-.17.07-.26V5.37l-17.57,16.79-5.08,4.85-23.14,22.11-7.15,6.83L8.31,116.85l-1.65,1.58-.05.05h0s.06-.05.06-.05c.81,2.53,1.87,5.03,3.2,7.53,6.8,12.79,20.43,25.16,40.89,37.12,4.54,2.65,9.41,5.28,14.61,7.89l.04.02h.02ZM.35,117.1l-.35.15c5.31,20.53,26.95,40.09,64.91,58.7l.05.02c37.69-18.58,59.26-38.11,64.72-58.6.02-.08.05-.17.07-.25l.04-117.12H.14l-.04,117.1h.25ZM22.34,18.29h42.57v13.67h-3.85c-.58-2.24-1.14-4.02-1.71-5.34-.56-1.31-1.17-2.31-1.8-2.99-.62-.67-1.3-1.17-2.01-1.45-.73-.28-1.81-.43-3.25-.43h-5v40.23c0,1.54.08,2.78.26,3.69.17.93.43,1.65.78,2.19.36.54.83.95,1.44,1.26.6.29,1.56.59,2.83.87v1.93h-17.98v-1.93c.79-.17,1.49-.38,2.1-.59.6-.2,1.09-.46,1.48-.76.38-.29.68-.68.94-1.15.24-.47.44-1.11.59-1.93.15-.8.21-2,.21-3.57V21.75h-4.96c-1.24,0-2.26.12-3.05.35-.81.24-1.54.72-2.23,1.48-.68.75-1.3,1.81-1.87,3.18-.56,1.38-1.09,3.11-1.6,5.2h-3.89v-13.67h0ZM83.9,129.52c0,1.52.04,2.66.12,3.41.08.76.2,1.38.39,1.84.19.46.4.83.67,1.11.25.3.63.55,1.11.79.48.23,1.25.48,2.27.74v1.93h-16.49v-1.93c1.45-.36,2.46-.76,3.04-1.21.58-.46.98-1.13,1.2-2.05.23-.91.34-2.45.34-4.63v-16.47h-21.88v16.47c0,1.74.07,3.03.17,3.85.12.8.32,1.45.59,1.92.28.47.69.87,1.22,1.18.54.32,1.41.63,2.62.94v1.93h-16.56v-1.93c1.63-.42,2.71-.87,3.26-1.39.55-.51.91-1.23,1.07-2.17.17-.94.26-2.39.26-4.32v-34c0-1.8-.07-3.12-.19-3.94-.13-.83-.35-1.46-.66-1.93-.3-.46-.7-.82-1.2-1.1-.5-.27-1.36-.58-2.55-.91v-1.93h16.56v1.93c-1.16.28-1.99.56-2.5.86-.51.28-.91.64-1.22,1.09-.3.43-.52,1.07-.67,1.94-.15.86-.22,2.2-.22,4v13.91h21.88v-13.91c0-2.28-.11-3.84-.34-4.67-.21-.84-.59-1.49-1.11-1.93-.52-.44-1.57-.87-3.12-1.29v-1.93h16.49v1.93c-1.48.36-2.5.78-3.08,1.23-.58.46-.97,1.14-1.18,2.07-.2.91-.31,2.44-.31,4.59v34h0Z"/>
    <path class="cls-2" d="M178.47,71.92v-2.34c1-.17,1.78-.39,2.37-.67.58-.27,1.02-.66,1.3-1.15.29-.5.46-1.13.53-1.91.07-.76.11-1.72.11-2.85V27.53h-2.88c-1.43,0-2.51.16-3.28.5-.75.33-1.42.85-1.98,1.57-.55.7-1.03,1.66-1.43,2.85-.4,1.2-.74,2.33-1,3.4h-4.88v-12.48h41.87v12.48h-4.88c-.45-1.61-.8-2.79-1.07-3.56-.25-.75-.55-1.4-.86-1.93-.33-.53-.67-.98-1.02-1.34-.35-.35-.73-.64-1.14-.86-.4-.21-.9-.36-1.51-.47-.61-.11-1.4-.16-2.37-.16h-2.56v35.46c0,1.25.04,2.21.11,2.85.07.66.19,1.19.39,1.59.19.4.42.73.69.97.28.25.66.47,1.14.68.49.21,1.14.36,1.98.49v2.34h-19.64Z"/>
    <path class="cls-2" d="M248.22,24.47v10.31h-4.83c-.57-2.67-1.47-4.65-2.71-5.91-1.23-1.27-2.84-1.91-4.83-1.91-3.75,0-6.58,1.8-8.5,5.39-1.93,3.59-2.89,8.92-2.89,15.99,0,6.57.89,11.53,2.63,14.92,1.76,3.37,4.33,5.06,7.72,5.06,1.74,0,3.14-.29,4.24-.87,1.08-.58,1.95-1.44,2.61-2.61.66-1.17,1.21-2.79,1.69-4.9h4.87v10.77c-2.6.62-4.99,1.07-7.14,1.36-2.16.28-4.41.43-6.73.43-4.93,0-8.96-.89-12.08-2.67-3.12-1.77-5.41-4.47-6.9-8.05-1.48-3.59-2.22-8.15-2.22-13.65,0-5.15.87-9.62,2.61-13.43,1.75-3.8,4.31-6.74,7.7-8.8,3.4-2.06,7.45-3.1,12.16-3.1,2.4,0,4.56.13,6.51.39,1.95.27,3.98.69,6.08,1.29h0Z"/>
    <path class="cls-2" d="M312.62,62.99c0,1.82.09,3.07.23,3.75.16.67.47,1.24.95,1.69.47.45,1.34.83,2.6,1.14v2.34h-18.56v-2.34c1.37-.36,2.26-.72,2.66-1.07.41-.36.69-.86.86-1.52.16-.66.24-1.98.24-3.99v-14.27h-16.07v14.27c0,.83.02,1.59.07,2.31s.13,1.3.28,1.75c.15.45.35.83.62,1.13.28.32.66.58,1.13.8.47.23,1.06.43,1.74.59v2.34h-18.67v-2.34c.89-.24,1.58-.5,2.09-.76.51-.28.89-.66,1.13-1.14.25-.49.41-1.1.49-1.85.07-.75.11-1.7.11-2.83v-30.67c0-1.12-.04-2.05-.1-2.8-.05-.76-.21-1.37-.46-1.86-.24-.47-.62-.85-1.13-1.15-.51-.29-1.21-.56-2.12-.8v-2.34h18.67v2.34c-1.25.36-2.11.75-2.57,1.18-.46.42-.79,1-.98,1.69-.18.7-.28,1.97-.28,3.79v11.89h16.07v-11.89c0-1.8-.07-3.05-.23-3.75-.16-.7-.46-1.26-.92-1.71-.46-.44-1.34-.83-2.61-1.19v-2.34h18.56v2.34c-1.04.29-1.81.59-2.28.91-.47.32-.81.73-1.01,1.23-.21.5-.33,1.06-.39,1.68-.06.62-.1,1.57-.1,2.84v30.63h0Z"/>
    <path class="cls-2" d="M340.16,72.49c-3.48,0-6.5-.61-9.02-1.83-2.53-1.23-4.49-3.18-5.92-5.86-1.42-2.7-2.12-6.12-2.12-10.27,0-3.17.44-5.92,1.31-8.24.87-2.33,2.1-4.25,3.67-5.77,1.57-1.52,3.42-2.63,5.6-3.36,2.17-.72,4.53-1.08,7.07-1.08,5.73,0,10.06,1.51,12.98,4.53,2.91,3.02,4.37,7.45,4.37,13.29,0,4.12-.72,7.58-2.16,10.37-1.44,2.78-3.51,4.86-6.19,6.2s-5.86,2.03-9.57,2.03h0ZM333.89,53.74c0,5.03.57,8.79,1.69,11.29,1.13,2.5,2.83,3.75,5.11,3.75,1.25,0,2.31-.32,3.14-.96.84-.64,1.52-1.57,2.03-2.77.51-1.21.87-2.67,1.08-4.36.22-1.7.33-3.61.33-5.72,0-5.09-.57-8.9-1.69-11.42-1.13-2.53-2.79-3.79-5-3.79-1.61,0-2.9.51-3.87,1.53-.97,1.01-1.69,2.54-2.14,4.58-.45,2.04-.68,4.66-.68,7.87h0Z"/>
    <path class="cls-2" d="M377.68,61.63c0,2.26.07,3.81.21,4.66.15.85.44,1.54.87,2.05.44.51,1.26.91,2.48,1.23v2.34h-17.43v-2.34c.72-.17,1.27-.36,1.68-.59.4-.22.72-.49.93-.78.23-.3.43-.68.6-1.14.16-.46.27-1.1.32-1.92.05-.81.07-1.99.07-3.51v-27.74c0-2.04-.01-3.53-.05-4.49-.04-.97-.11-1.77-.22-2.43-.11-.64-.28-1.17-.53-1.57-.24-.39-.6-.7-1.04-.93-.45-.24-1.18-.45-2.17-.64v-2.34l9.85-.5h4.46v40.65h0Z"/>
    <path class="cls-2" d="M398.1,68.14h7.5c1.07,0,1.97-.22,2.72-.67.75-.45,1.42-1.24,2.03-2.36.61-1.1,1.15-2.66,1.65-4.65h4.35v11.45h-30.24v-2.34l18.21-29.17h-7.08c-1.13,0-2.05.19-2.73.57-.69.38-1.31,1.02-1.87,1.92-.56.91-1.2,2.43-1.94,4.55h-4.33v-10.81h29.95v2.34l-18.21,29.16h0Z"/>
    <path class="cls-2" d="M434.95,41.47l.43.11c2.16-2.02,4.1-3.44,5.83-4.27,1.74-.83,3.51-1.24,5.31-1.24s3.22.22,4.37.68c1.17.45,2.15,1.1,2.95,1.97.81.86,1.47,2,1.97,3.4,2.39-2.23,4.47-3.8,6.24-4.7,1.76-.9,3.61-1.35,5.52-1.35s3.47.24,4.72.74c1.24.5,2.27,1.27,3.07,2.32.8,1.04,1.4,2.34,1.76,3.91.36,1.57.55,3.44.55,5.62v12.98c0,1.04.02,2.03.06,2.94.04.91.12,1.64.27,2.19.13.55.34,1,.58,1.34.25.34.59.63,1.04.87.46.23,1.01.44,1.64.61v2.34h-17.14v-2.34c1.07-.27,1.81-.64,2.21-1.14.4-.5.68-1.19.84-2.06.15-.87.23-2.44.23-4.7v-9.53c0-2.14-.07-3.87-.22-5.21-.15-1.34-.41-2.39-.81-3.14-.4-.76-.89-1.31-1.44-1.64-.56-.34-1.29-.5-2.19-.5-.62,0-1.19.1-1.71.28-.52.19-1.04.49-1.58.87-.53.39-1,.79-1.37,1.19-.38.4-.68.85-.91,1.35-.22.5-.38,1.06-.46,1.68-.07.62-.12,1.63-.12,3.02v11.59c0,1.61.04,2.85.08,3.7.06.85.19,1.54.38,2.06.19.52.5.96.91,1.3.41.34,1.06.63,1.94.87v2.34h-16.94v-2.34c1.09-.27,1.85-.64,2.26-1.14.41-.5.69-1.18.84-2.05.15-.86.21-2.43.21-4.71v-9.53c0-1.57-.02-2.89-.08-3.97-.06-1.07-.16-1.94-.3-2.61-.13-.67-.34-1.24-.58-1.74-.25-.5-.53-.91-.85-1.21-.33-.3-.7-.55-1.14-.72-.44-.16-1-.24-1.65-.24-.89,0-1.8.27-2.76.81-.97.55-1.77,1.31-2.43,2.28-.64.97-.97,2.02-.97,3.13v13.76c0,2.23.06,3.79.19,4.69.13.89.41,1.58.84,2.09.42.51,1.17.9,2.23,1.17v2.34h-17.03v-2.34c1.14-.32,1.93-.72,2.37-1.21.44-.5.73-1.18.89-2.03.16-.85.23-2.4.23-4.66v-14.62c0-1.75-.02-3.05-.08-3.9-.06-.84-.21-1.52-.42-2.03-.23-.51-.57-.92-1.03-1.24-.46-.33-1.26-.61-2.4-.84v-2.42l9.75-.29h4.48l-.53,5.12h0Z"/>
    <path class="cls-2" d="M500.04,22.44v8.72h-9.74v-8.72h9.74ZM486.52,69.57c1.17-.32,1.97-.72,2.4-1.21.44-.5.73-1.18.89-2.03.16-.85.23-2.4.23-4.66v-16.54c0-1.17-.05-2.1-.16-2.82-.11-.7-.3-1.27-.61-1.7-.29-.43-.69-.75-1.2-.98-.51-.22-1.18-.41-1.98-.58v-2.42l9.79-.29h4.44v25.29c0,1.34.01,2.36.05,3.08.04.72.09,1.27.16,1.66.07.4.18.74.3,1.06.13.3.3.59.52.85.21.27.52.5.92.72.4.21.93.4,1.6.57v2.34h-17.36v-2.34h0Z"/>
    <path class="cls-2" d="M548.14,71.92h-17.25v-2.34c1.09-.27,1.85-.66,2.27-1.17.42-.51.72-1.19.87-2.05.16-.87.23-2.43.23-4.69v-9.49c0-1.69-.04-3.06-.11-4.14-.07-1.08-.18-1.97-.34-2.66-.15-.68-.36-1.26-.63-1.72-.28-.46-.58-.84-.91-1.13-.33-.3-.72-.52-1.14-.67-.42-.13-.97-.21-1.64-.21-.9,0-1.83.28-2.8.84-.97.56-1.8,1.32-2.45,2.31-.67.98-1,2.04-1,3.14v13.69c0,2.26.07,3.82.21,4.7.15.87.44,1.57.87,2.08.44.51,1.21.9,2.33,1.17v2.34h-17.18v-2.34c1.14-.32,1.93-.72,2.37-1.21.44-.5.73-1.18.89-2.03.16-.85.23-2.4.23-4.66v-14.62c0-1.75-.02-3.05-.08-3.9-.06-.84-.21-1.52-.42-2.03-.23-.51-.57-.92-1.03-1.24-.46-.33-1.26-.61-2.4-.84v-2.42l9.75-.29h4.48l-.53,5.12.43.11c1.47-1.3,2.77-2.33,3.87-3.07,1.12-.75,2.28-1.35,3.51-1.78,1.21-.44,2.5-.66,3.86-.66,1.94,0,3.56.28,4.83.84,1.29.56,2.32,1.37,3.12,2.43.79,1.07,1.36,2.38,1.7,3.92.34,1.54.52,3.33.52,5.37v13.01c0,1.04.01,2.03.05,2.94.04.91.12,1.64.27,2.19.15.55.34,1,.58,1.34.26.34.61.63,1.06.87.45.23,1,.44,1.64.61v2.34h0Z"/>
    <path class="cls-2" d="M587.79,61.54c0,1.8.02,3.11.08,3.95.06.83.19,1.49.41,1.99.22.5.56.9,1.03,1.23.47.32,1.27.59,2.38.84v2.38l-9.68.32h-4.3l.32-5.12-.53-.02c-1.7,1.72-3.5,3.06-5.38,3.99-1.89.93-3.7,1.41-5.43,1.41-4.32,0-7.55-1.48-9.7-4.44-2.14-2.97-3.22-7.43-3.22-13.38,0-4.03.66-7.43,1.95-10.19,1.31-2.77,3.25-4.86,5.82-6.28,2.57-1.43,5.68-2.14,9.31-2.14,1.03,0,2.06.06,3.07.19s2.2.39,3.57.76v-3.24c0-2.54-.04-4.33-.1-5.38-.07-1.06-.23-1.87-.45-2.43-.23-.56-.56-.98-1.02-1.3-.45-.3-1.26-.57-2.45-.81v-2.38l9.86-.5h4.44v40.55h0ZM577.51,48.3c0-2.9-.49-5.04-1.46-6.45-.97-1.4-2.46-2.09-4.48-2.09-1.47,0-2.73.52-3.79,1.58-1.06,1.06-1.85,2.57-2.38,4.56-.53,1.99-.8,4.36-.8,7.08,0,4.67.51,8.16,1.53,10.47,1.02,2.29,2.61,3.45,4.76,3.45,1.02,0,2.04-.25,3.05-.76,1.01-.51,1.86-1.3,2.54-2.34.69-1.06,1.03-2.27,1.03-3.65v-11.84h0Z"/>
    <path class="cls-2" d="M629.12,65.45c-2.42,2.56-4.81,4.37-7.18,5.44-2.38,1.07-5.1,1.6-8.18,1.6-5.52,0-9.69-1.52-12.47-4.54-2.79-3.02-4.18-7.5-4.18-13.46,0-3.84.72-7.15,2.15-9.93,1.43-2.79,3.47-4.9,6.09-6.34,2.63-1.43,5.69-2.15,9.18-2.15,2.16,0,4.05.24,5.67.74,1.63.5,3.02,1.19,4.19,2.09,1.15.89,2.12,1.95,2.88,3.22.9,1.49,1.58,3.21,2.03,5.12.47,1.97.73,4.35.74,7.15h-22.54c.02,4.29.79,7.44,2.29,9.47,1.51,2.03,3.8,3.05,6.88,3.05,1.8,0,3.42-.34,4.87-1.02,1.44-.67,3.01-1.86,4.7-3.57l2.88,3.13h0ZM619.51,50.54c-.1-3.63-.57-6.33-1.42-8.11-.85-1.77-2.22-2.66-4.13-2.66s-3.28.92-4.36,2.77c-1.07,1.85-1.72,4.52-1.93,8h11.84Z"/>
    <path class="cls-2" d="M674.27,71.92h-17.25v-2.34c1.09-.27,1.85-.66,2.27-1.17.42-.51.72-1.19.87-2.05.16-.87.23-2.43.23-4.69v-9.49c0-1.69-.04-3.06-.11-4.14-.07-1.08-.18-1.97-.34-2.66-.15-.68-.36-1.26-.63-1.72-.28-.46-.58-.84-.91-1.13-.33-.3-.72-.52-1.14-.67-.42-.13-.97-.21-1.64-.21-.9,0-1.83.28-2.8.84-.97.56-1.8,1.32-2.45,2.31-.67.98-1,2.04-1,3.14v13.69c0,2.26.07,3.82.21,4.7.15.87.44,1.57.87,2.08.44.51,1.21.9,2.33,1.17v2.34h-17.18v-2.34c1.14-.32,1.93-.72,2.37-1.21.44-.5.73-1.18.89-2.03.16-.85.23-2.4.23-4.66v-14.62c0-1.75-.02-3.05-.08-3.9-.06-.84-.21-1.52-.42-2.03-.23-.51-.57-.92-1.03-1.24-.46-.33-1.26-.61-2.4-.84v-2.42l9.75-.29h4.48l-.53,5.12.43.11c1.47-1.3,2.77-2.33,3.87-3.07,1.12-.75,2.28-1.35,3.51-1.78,1.21-.44,2.5-.66,3.86-.66,1.94,0,3.56.28,4.83.84,1.29.56,2.32,1.37,3.12,2.43.79,1.07,1.36,2.38,1.7,3.92.34,1.54.52,3.33.52,5.37v13.01c0,1.04.01,2.03.05,2.94.04.91.12,1.64.27,2.19.15.55.34,1,.58,1.34.26.34.61.63,1.06.87.45.23,1,.44,1.64.61v2.34h0Z"/>
    <g>
      <path class="cls-2" d="M284.18,118.58v1.49c-.77.14-1.33.34-1.69.61-.36.27-.53.68-.53,1.22,0,.73.21,1.67.63,2.84l3.52,9.9,3.89-8.68c.33-.73.57-1.36.73-1.92.16-.55.24-1.09.24-1.62,0-.63-.19-1.16-.58-1.58-.39-.42-.95-.67-1.66-.78v-1.49h9.5v1.52c-.47.14-.85.3-1.13.5-.28.2-.55.46-.81.77-.25.32-.56.79-.92,1.42-.36.63-.84,1.58-1.46,2.85l-7.62,15.66h-4.62l-6.45-17.24c-.43-1.2-.79-2.01-1.07-2.46-.28-.45-.58-.79-.92-1.02-.33-.23-.75-.39-1.23-.49v-1.49h12.19Z"/>
      <path class="cls-2" d="M310.62,141.42c-2.39,0-4.46-.39-6.2-1.17-1.73-.78-3.09-2.03-4.07-3.74-.98-1.72-1.46-3.9-1.46-6.54,0-2.02.3-3.77.9-5.25.6-1.49,1.44-2.71,2.52-3.67,1.08-.97,2.35-1.68,3.84-2.14,1.49-.46,3.11-.69,4.85-.69,3.94,0,6.91.96,8.91,2.89,2,1.93,3,4.75,3,8.47,0,2.62-.49,4.83-1.48,6.61-.99,1.77-2.41,3.09-4.25,3.95-1.84.86-4.03,1.29-6.57,1.29h0ZM306.31,129.48c0,3.2.39,5.6,1.16,7.19.78,1.59,1.94,2.39,3.51,2.39.86,0,1.58-.2,2.16-.61.58-.41,1.04-1,1.39-1.76.35-.77.6-1.7.74-2.78.15-1.08.23-2.3.23-3.64,0-3.24-.39-5.67-1.16-7.28-.78-1.61-1.92-2.41-3.44-2.41-1.11,0-1.99.32-2.66.97-.67.64-1.16,1.62-1.47,2.92-.31,1.3-.47,2.97-.47,5.01h0Z"/>
      <path class="cls-2" d="M353.81,141.06h-11.85v-1.49c.75-.17,1.27-.42,1.56-.74.29-.32.49-.76.6-1.31.11-.56.16-1.55.16-2.99v-6.05c0-1.08-.02-1.95-.07-2.64-.05-.69-.13-1.25-.23-1.69-.1-.43-.25-.8-.43-1.1-.19-.29-.4-.53-.63-.72-.23-.19-.49-.33-.78-.43-.29-.09-.67-.13-1.13-.13-.62,0-1.26.18-1.93.53-.67.36-1.23.84-1.68,1.47-.46.63-.68,1.3-.68,2v8.73c0,1.44.05,2.44.14,2.99.1.56.3,1,.6,1.32.3.32.83.57,1.6.74v1.49h-11.8v-1.49c.78-.2,1.33-.46,1.63-.77.3-.32.5-.75.61-1.29.11-.54.16-1.53.16-2.97v-9.31c0-1.11-.02-1.94-.06-2.48-.04-.53-.14-.97-.29-1.29-.16-.32-.39-.59-.71-.79-.32-.21-.87-.39-1.65-.53v-1.54l6.7-.19h3.08l-.37,3.26.29.07c1.01-.83,1.9-1.49,2.66-1.96.77-.48,1.57-.86,2.41-1.14.83-.28,1.72-.42,2.65-.42,1.33,0,2.44.18,3.32.53.88.36,1.59.87,2.14,1.55.54.68.93,1.52,1.17,2.5.23.98.36,2.12.36,3.42v8.29c0,.67,0,1.29.03,1.87.02.58.08,1.04.18,1.39.1.35.23.63.4.85.18.22.42.4.73.56.31.15.68.28,1.13.39v1.49h0Z"/>
      <path class="cls-2" d="M385.96,134.74c0,.87.05,1.53.16,1.98.1.45.29.8.56,1.09.27.28.66.5,1.16.66.51.15,1.14.28,1.91.36.77.09,1.78.14,3.03.17v2.07h-21.08v-2.07c1.8-.07,3.09-.18,3.87-.3.78-.13,1.37-.32,1.77-.58.41-.26.71-.62.89-1.08.19-.47.28-1.24.28-2.29v-16.39c0-.62-.13-1.06-.38-1.33-.26-.28-.6-.41-1.04-.41-.41,0-.98.17-1.72.52-.74.35-1.96,1.06-3.65,2.13l-1.49-2.41,12.75-7.09h3.13c-.09,1.45-.14,3.46-.14,6.03v18.95h0Z"/>
      <path class="cls-2" d="M403.96,140.08v-1.63c1.06-.02,1.98-.11,2.79-.27.94-.19,1.83-.47,2.68-.87.83-.4,1.58-.9,2.21-1.49.78-.71,1.43-1.52,1.95-2.44.53-.91.93-1.91,1.23-3,.3-1.09.53-2.22.68-3.4l-.24-.09c-1.26.8-2.49,1.38-3.7,1.75-1.22.36-2.67.54-4.36.54-1.93,0-3.55-.38-4.9-1.14-1.34-.77-2.34-1.83-3.01-3.19-.68-1.37-1.01-2.97-1.01-4.8,0-2.01.51-3.81,1.53-5.38,1.02-1.58,2.48-2.78,4.38-3.64,1.91-.84,4.16-1.27,6.77-1.27s4.84.5,6.63,1.51c1.8,1.01,3.14,2.47,4.04,4.39.88,1.92,1.33,4.24,1.33,6.95,0,3.79-.69,7.05-2.08,9.77-1.38,2.72-3.39,4.84-6.05,6.37-2.64,1.52-5.84,2.42-9.59,2.68l-1.27-1.34h0ZM410.02,126.07c.6,0,1.16-.05,1.68-.15.52-.11,1.01-.27,1.48-.49.47-.22.89-.49,1.29-.8.4-.31.67-.56.8-.76.13-.19.23-.48.33-.86.09-.38.13-.89.13-1.54,0-2.96-.43-5.24-1.28-6.81-.85-1.58-2.1-2.37-3.74-2.37-.97,0-1.78.18-2.43.53-.66.35-1.19.84-1.61,1.47-.42.63-.72,1.39-.89,2.27-.18.89-.27,1.86-.27,2.92,0,4.39,1.5,6.59,4.52,6.59h0Z"/>
      <path class="cls-2" d="M444.05,135.5c1.06,0,1.85-.07,2.37-.22.53-.14.93-.39,1.23-.74.3-.36.55-.89.74-1.6h2.81l-.56,8.11h-22.38v-1.49c.68-1.45,1.68-3.03,2.97-4.74,1.3-1.7,2.88-3.57,4.73-5.59,1.76-1.92,3.1-3.5,4.02-4.74.93-1.24,1.61-2.41,2.07-3.51.45-1.1.68-2.24.68-3.42,0-1.66-.4-2.96-1.2-3.91-.79-.95-1.88-1.42-3.27-1.42-1.31,0-2.38.43-3.24,1.28-.85.85-1.48,2.2-1.87,4.05h-4.39v-5.34c1.98-.74,3.54-1.26,4.67-1.55,1.12-.29,2.23-.52,3.33-.67,1.1-.15,2.29-.22,3.59-.22,2.39,0,4.34.3,5.86.9,1.51.6,2.61,1.4,3.29,2.42.68,1.02,1.01,2.21,1.01,3.57,0,1.19-.23,2.3-.72,3.33-.48,1.03-1.31,2.2-2.49,3.51-1.18,1.31-3.17,3.2-5.97,5.65-1.26,1.13-2.43,2.27-3.52,3.43-1.09,1.15-1.9,2.06-2.42,2.71v.22h8.67Z"/>
      <path class="cls-2" d="M476.79,124.72l.05.29c1.89.68,3.32,1.66,4.29,2.95s1.45,2.82,1.45,4.59-.51,3.35-1.53,4.68c-1.03,1.34-2.5,2.37-4.44,3.11-1.93.73-4.19,1.1-6.78,1.1-2.46,0-4.6-.34-6.44-1.01-1.83-.67-3.25-1.65-4.26-2.94-1.01-1.29-1.52-2.82-1.52-4.57,0-1.28.26-2.41.78-3.39.51-.97,1.18-1.79,2.03-2.44.83-.65,1.85-1.22,3.04-1.72l-.04-.29c-3.6-1.45-5.4-3.86-5.4-7.23,0-1.54.52-2.92,1.55-4.16,1.03-1.23,2.5-2.19,4.41-2.89,1.9-.7,4.03-1.04,6.38-1.04,3.95,0,6.95.67,8.96,2.02,2.02,1.35,3.03,3.25,3.03,5.71,0,1.63-.46,3.06-1.38,4.29-.93,1.22-2.31,2.2-4.17,2.95h0ZM465.33,117.67c0,1.97.42,3.49,1.26,4.54.84,1.05,2.07,1.58,3.68,1.58s2.76-.5,3.55-1.49c.79-.99,1.18-2.4,1.18-4.23s-.41-3.3-1.23-4.29c-.82-.99-2-1.49-3.55-1.49s-2.83.46-3.65,1.36c-.83.91-1.23,2.24-1.23,4.01h0ZM465.04,132.38c0,2.16.43,3.78,1.28,4.87.85,1.08,2.13,1.63,3.82,1.63,1.06,0,1.96-.23,2.7-.68.74-.46,1.31-1.15,1.71-2.09.4-.94.6-2.05.6-3.35s-.21-2.48-.61-3.46c-.41-.97-1-1.72-1.76-2.26-.77-.53-1.67-.79-2.69-.79-1.22,0-2.2.27-2.95.8-.75.53-1.28,1.25-1.62,2.17-.33.91-.48,1.96-.48,3.15h0Z"/>
      <path class="cls-2" d="M520.12,136.93c-1.66,1.63-3.3,2.78-4.93,3.47-1.63.68-3.5,1.02-5.62,1.02-3.79,0-6.65-.97-8.56-2.89-1.92-1.93-2.87-4.78-2.87-8.58,0-2.44.49-4.56,1.48-6.33.98-1.78,2.38-3.13,4.19-4.04,1.81-.91,3.91-1.37,6.3-1.37,1.48,0,2.79.15,3.89.47,1.12.32,2.08.76,2.88,1.33.79.56,1.46,1.25,1.98,2.05.62.95,1.08,2.04,1.39,3.26.33,1.25.5,2.77.51,4.56h-15.48c.02,2.73.54,4.74,1.58,6.03,1.03,1.29,2.61,1.94,4.73,1.94,1.23,0,2.35-.22,3.34-.65.99-.43,2.07-1.18,3.23-2.27l1.98,2h0ZM513.53,127.43c-.07-2.31-.39-4.03-.98-5.17-.58-1.13-1.53-1.69-2.84-1.69s-2.25.59-2.99,1.76c-.73,1.18-1.18,2.88-1.33,5.1h8.13Z"/>
      <polygon class="cls-2" points="531.07 134.21 531.07 141.06 524.5 141.06 524.5 134.21 531.07 134.21 531.07 134.21"/>
      <path class="cls-2" d="M557.76,117.56c.25-.63.44-1.23.58-1.79.14-.56.21-1.14.21-1.76,0-.74-.21-1.31-.63-1.7-.41-.39-1.05-.62-1.92-.68v-1.49h10.53v1.49c-.62.09-1.14.28-1.58.56-.43.28-.82.68-1.17,1.2-.35.53-.77,1.38-1.23,2.55l-10.24,25.29h-5.65l-8.06-25.39c-.35-1.13-.66-1.93-.9-2.41-.24-.47-.56-.86-.95-1.15-.39-.29-.93-.51-1.63-.65v-1.49h13.51v1.49c-.85.09-1.48.31-1.88.66-.41.35-.61.84-.61,1.48,0,.5.05.98.14,1.46.1.47.31,1.23.62,2.27l4.84,16.28,6.03-16.21h0Z"/>
      <polygon class="cls-2" points="569.61 134.21 569.61 141.06 563.04 141.06 563.04 134.21 569.61 134.21 569.61 134.21"/>
    </g>
    <polygon class="cls-1" points="167.46 124.05 245.87 124.05 245.87 127.15 167.46 127.15 167.46 124.05 167.46 124.05"/>
    <polygon class="cls-1" points="595.73 124.05 674.14 124.05 674.14 127.15 595.73 127.15 595.73 124.05 595.73 124.05"/>
  </g>
</svg>