<svg width="307" height="77" viewBox="0 0 307 77" fill="none" xmlns="http://www.w3.org/2000/svg">
<g clip-path="url(#clip0_8_154)">
<path d="M33.1268 0.0724577C43.3088 0.0724577 53.4909 0.108706 63.6729 0.0362096C65.3028 0.0271476 65.9683 0.425877 65.9638 2.15219C65.9185 15.0565 66.1177 27.9699 65.8868 40.8697C65.7374 49.1977 61.7035 56.0259 56.2118 62.0159C50.4123 68.3457 43.3314 72.8767 35.5353 76.343C33.5704 77.2175 31.6825 77.2446 29.6724 76.275C20.6493 71.9434 12.5408 66.4608 6.54204 58.2506C2.27726 52.4147 -0.00906341 45.9671 0.0497924 38.645C0.144867 26.4158 0.0860114 14.1866 -8.67162e-06 1.96189C-0.0135908 0.235574 0.647405 -0.00910052 2.12786 -3.84999e-05C12.4593 0.0498026 22.7953 0.0271476 33.1268 0.0271476C33.1268 0.0407406 33.1268 0.0543336 33.1268 0.0724577ZM19.4813 59.8954C20.3324 58.5723 21.7631 57.3671 21.8174 56.0984C22.0528 50.6748 21.9442 45.233 21.8174 39.8004C21.7721 37.8067 20.7806 37.4352 19.1915 38.6948C14.8769 42.1202 10.6212 45.6136 6.30209 49.03C4.97557 50.0812 4.70393 50.9602 5.61846 52.6141C11.16 62.6593 20.1015 68.7535 29.8037 74.082C32.0809 75.3325 34.0141 75.2193 36.1103 73.8826C40.2347 71.2501 44.6308 68.9891 48.4972 66.0259C57.0675 59.4514 63.193 51.2185 63.4103 39.8683C63.6322 28.2463 63.5688 16.6152 63.6186 4.9886C63.6186 4.43129 63.5009 3.87398 63.3786 2.80919C60.051 5.69997 56.6374 7.80236 54.0251 10.7928C54.1881 10.9877 54.3511 11.178 54.5141 11.3728C55.2067 11.0013 55.8994 10.6297 57.0132 10.0316C56.8864 12.3787 56.7777 14.3451 56.6691 16.3071C56.4427 16.3297 56.2209 16.3569 55.9945 16.3796C55.2248 15.4009 54.4009 14.4584 53.7037 13.4299C52.7937 12.0887 51.8746 12.1521 50.7156 13.1172C49.2125 14.3723 47.7502 15.7452 46.0615 16.7013C42.2494 18.8535 41.8374 21.9935 42.6161 25.8947C43.1639 28.6405 44.1147 30.8154 46.9715 31.6083C50.041 32.4601 52.6035 31.5313 54.6906 29.1661C55.1388 28.6586 55.6459 28.2055 56.4699 27.3854V32.7546C54.5276 32.9721 52.9702 33.1216 51.4219 33.3301C47.8362 33.8104 44.2052 33.9418 41.2262 31.5902C39.1074 29.9137 37.4051 27.7026 35.2637 25.4642C31.2026 28.8489 26.8337 32.4964 22.4603 36.1393L22.7229 36.8915H29.6316C26.8065 39.9725 27.875 43.1714 27.8614 46.1755C27.8614 46.5153 28.9344 47.1179 29.5366 47.1542C31.7912 47.2856 34.0594 47.1995 36.3231 47.2584C37.7583 47.2992 38.1386 46.547 38.1023 45.2784C38.0163 42.3468 38.6411 39.2385 35.1731 36.9639H46.5776C43.5171 38.7764 44.1781 41.6807 44.1464 44.3314C44.1147 47.2765 44.1962 50.2217 44.1418 53.1668C44.092 55.8764 44.2822 58.4455 47.1661 60.1627H35.6938C39.293 57.4396 37.8443 53.8148 38.0706 50.3304C34.9151 50.3304 32.0538 50.2806 29.2015 50.3803C28.7216 50.3984 27.8569 51.0826 27.866 51.4405C27.9474 54.4219 26.4081 57.8791 30.6095 59.909H19.4722L19.4813 59.8954ZM8.53861 15.3102C8.71971 15.4099 8.9008 15.5051 9.07737 15.6048C10.9291 13.1444 12.9935 11.1191 16.5792 11.7398C16.5792 16.0851 16.6426 20.3669 16.5566 24.6487C16.4977 27.4941 17.4168 30.5571 14.2793 33.2666H23.5966C21.2515 31.0736 21.7676 28.3958 21.7631 25.8766C21.754 22.1793 21.8491 18.482 21.8355 14.7847C21.8264 11.3773 22.8813 10.6524 25.978 12.2337C27.0148 12.7638 27.8207 13.7516 28.7307 14.5309C29.0793 14.83 29.4279 15.1426 30.03 15.6727V10.743C29.858 10.6025 29.7991 10.5164 29.7403 10.5164C23.0488 10.4258 16.3529 10.3307 9.6614 10.2989C9.28563 10.2989 8.61558 10.82 8.58841 11.1462C8.46617 12.5237 8.53861 13.9192 8.53861 15.3102ZM36.1827 24.3088C38.795 22.2155 41.7288 21.0828 41.8646 17.4217C41.9008 16.3977 42.2766 15.342 42.7021 14.3905C43.9472 11.5903 45.3235 10.82 48.3568 10.9695C49.3936 11.0194 50.4349 10.9786 51.4717 10.9786L51.3811 10.3397C47.2159 9.93194 43.1232 10.0951 39.7367 13.1399C36.6174 15.9446 35.2501 19.438 36.1827 24.3134V24.3088Z" fill="#19416B"/>
</g>
<path d="M99.1128 30.3615H90.1282V29.369C90.4765 29.2297 90.8682 29.0904 91.3035 28.9511C91.7562 28.7944 92.2089 28.6812 92.6617 28.6116V13.7766H89.632L87.9604 18.2428H86.8896C86.8199 17.8945 86.7503 17.4505 86.6807 16.9108C86.611 16.371 86.5501 15.8138 86.4978 15.2392C86.4456 14.6646 86.4021 14.0987 86.3672 13.5416C86.3324 12.967 86.315 12.4794 86.315 12.0789H102.926C102.926 12.4968 102.909 12.9844 102.874 13.5416C102.839 14.0987 102.795 14.6646 102.743 15.2392C102.691 15.8138 102.63 16.371 102.56 16.9108C102.491 17.4331 102.421 17.8771 102.351 18.2428H101.281L99.609 13.7766H96.5793V28.6116C97.0321 28.6987 97.4761 28.8031 97.9114 28.925C98.3641 29.0469 98.7645 29.1949 99.1128 29.369V30.3615Z" fill="#19416B"/>
<path d="M117.422 24.8767H118.493C118.562 25.1553 118.623 25.4949 118.676 25.8953C118.745 26.2784 118.797 26.6963 118.832 27.149C118.884 27.5843 118.919 28.0196 118.937 28.4549C118.954 28.8902 118.963 29.282 118.963 29.6302C118.353 30.0133 117.587 30.2831 116.664 30.4398C115.759 30.5966 114.827 30.6749 113.87 30.6749C112.425 30.6749 111.11 30.5008 109.926 30.1525C108.759 29.7869 107.758 29.221 106.922 28.4549C106.104 27.6713 105.469 26.6876 105.016 25.5036C104.563 24.3021 104.337 22.8656 104.337 21.1941C104.337 19.54 104.581 18.1209 105.068 16.9369C105.573 15.7355 106.243 14.7517 107.079 13.9856C107.915 13.2194 108.881 12.6622 109.978 12.314C111.093 11.9484 112.259 11.7655 113.478 11.7655C114.627 11.7655 115.663 11.8526 116.586 12.0267C117.526 12.1834 118.292 12.4011 118.884 12.6797C118.884 12.9583 118.867 13.3152 118.832 13.7505C118.815 14.1858 118.771 14.6472 118.702 15.1347C118.649 15.6049 118.58 16.075 118.493 16.5451C118.423 16.9978 118.353 17.3809 118.284 17.6943H117.187L115.75 13.7505C115.594 13.6634 115.341 13.5938 114.993 13.5416C114.645 13.4893 114.288 13.4632 113.922 13.4632C113.208 13.4632 112.538 13.6112 111.911 13.9072C111.284 14.1858 110.727 14.6385 110.239 15.2653C109.752 15.8922 109.369 16.7018 109.09 17.6943C108.812 18.6694 108.672 19.8447 108.672 21.2202C108.672 23.7101 109.169 25.6254 110.161 26.9662C111.154 28.3069 112.503 28.9772 114.209 28.9772C114.697 28.9772 115.106 28.9424 115.437 28.8728C115.785 28.7857 116.02 28.6725 116.142 28.5332L117.422 24.8767Z" fill="#19416B"/>
<path d="M135.832 30.3615H127.918V29.369C128.214 29.2123 128.554 29.0643 128.937 28.925C129.337 28.7857 129.711 28.6812 130.06 28.6116V13.8288C129.642 13.7592 129.241 13.6547 128.858 13.5154C128.475 13.3761 128.162 13.2281 127.918 13.0714V12.0789H135.832V13.0714C135.571 13.2455 135.275 13.4023 134.944 13.5416C134.63 13.6808 134.308 13.7766 133.977 13.8288V20.1494H140.899V13.8288C140.516 13.7592 140.167 13.6547 139.854 13.5154C139.558 13.3761 139.288 13.2281 139.044 13.0714V12.0789H146.958V13.0714C146.662 13.263 146.322 13.4197 145.939 13.5416C145.556 13.6634 145.182 13.7592 144.816 13.8288V28.6116C145.217 28.6812 145.6 28.7857 145.965 28.925C146.349 29.0643 146.679 29.2123 146.958 29.369V30.3615H139.044V29.369C139.305 29.2123 139.593 29.0643 139.906 28.925C140.22 28.7857 140.55 28.6812 140.899 28.6116V21.847H133.977V28.6116C134.326 28.6812 134.648 28.777 134.944 28.8989C135.24 29.0208 135.536 29.1775 135.832 29.369V30.3615Z" fill="#19416B"/>
<path d="M148.487 21.2202C148.487 19.8621 148.679 18.6084 149.062 17.4592C149.445 16.2926 150.011 15.2915 150.76 14.4557C151.508 13.6025 152.431 12.9408 153.528 12.4707C154.625 12.0006 155.887 11.7655 157.315 11.7655C158.743 11.7655 160.005 12.0006 161.102 12.4707C162.199 12.9408 163.113 13.6025 163.845 14.4557C164.593 15.2915 165.159 16.2926 165.542 17.4592C165.925 18.6084 166.117 19.8621 166.117 21.2202C166.117 22.5784 165.925 23.8407 165.542 25.0073C165.159 26.1565 164.593 27.1577 163.845 28.0109C163.113 28.8467 162.199 29.4996 161.102 29.9697C160.005 30.4398 158.743 30.6749 157.315 30.6749C155.887 30.6749 154.625 30.4398 153.528 29.9697C152.431 29.4996 151.508 28.8467 150.76 28.0109C150.011 27.1577 149.445 26.1565 149.062 25.0073C148.679 23.8407 148.487 22.5784 148.487 21.2202ZM152.927 21.2202C152.927 22.3346 153.014 23.3706 153.189 24.3283C153.363 25.2685 153.633 26.0869 153.998 26.7833C154.381 27.4624 154.86 28.0022 155.435 28.4026C156.027 28.7857 156.732 28.9772 157.55 28.9772C158.299 28.9772 158.934 28.7857 159.457 28.4026C159.979 28.0022 160.406 27.4624 160.737 26.7833C161.067 26.0869 161.302 25.2685 161.442 24.3283C161.598 23.3706 161.677 22.3346 161.677 21.2202C161.677 20.1059 161.59 19.0785 161.416 18.1383C161.259 17.1806 160.998 16.3623 160.632 15.6832C160.284 14.9867 159.814 14.447 159.222 14.0639C158.647 13.6634 157.942 13.4632 157.106 13.4632C156.305 13.4632 155.635 13.6634 155.095 14.0639C154.555 14.447 154.12 14.9867 153.789 15.6832C153.476 16.3623 153.249 17.1806 153.11 18.1383C152.988 19.0785 152.927 20.1059 152.927 21.2202Z" fill="#19416B"/>
<path d="M167.682 12.0789H176.248V13.0714C175.883 13.263 175.473 13.4284 175.021 13.5677C174.585 13.6896 174.159 13.7766 173.741 13.8288V28.6638H178.782L180.532 23.9887H181.602C181.672 24.3892 181.733 24.8593 181.785 25.3991C181.855 25.9389 181.907 26.5047 181.942 27.0968C181.977 27.6888 182.003 28.2721 182.02 28.8467C182.038 29.4212 182.038 29.9262 182.02 30.3615H167.682V29.369C168.082 29.1601 168.456 28.9947 168.805 28.8728C169.17 28.7509 169.51 28.6638 169.823 28.6116V13.8288C168.97 13.6896 168.256 13.4371 167.682 13.0714V12.0789Z" fill="#19416B"/>
<path d="M196.411 24.8506H197.508C197.578 25.2163 197.639 25.6341 197.691 26.1043C197.761 26.557 197.822 27.0358 197.874 27.5408C197.926 28.0283 197.961 28.5158 197.979 29.0034C198.013 29.4909 198.031 29.9436 198.031 30.3615H183.3V28.6638L193.434 13.7766H186.957L185.416 17.5115H184.319C184.232 17.1284 184.153 16.6931 184.084 16.2056C184.014 15.718 183.953 15.2305 183.901 14.743C183.849 14.238 183.814 13.7592 183.796 13.3065C183.779 12.8364 183.77 12.4272 183.77 12.0789H197.717V13.7766L187.636 28.6638H194.792L196.411 24.8506Z" fill="#19416B"/>
<path d="M222.681 30.3615H214.871V29.369C215.22 29.1949 215.559 29.0469 215.89 28.925C216.221 28.8031 216.578 28.6987 216.961 28.6116V17.6943L217.091 14.6385H216.882L216.02 17.4331L210.98 30.3615H209.778L204.764 17.5376L203.823 14.4818H203.588L203.614 17.7988V28.5071C203.945 28.5768 204.311 28.6899 204.711 28.8467C205.112 29.0034 205.486 29.1775 205.834 29.369V30.3615H199.462V29.369C199.74 29.2297 200.08 29.0643 200.48 28.8728C200.898 28.6812 201.29 28.5506 201.656 28.481V13.8288C201.307 13.7592 200.933 13.6634 200.533 13.5416C200.149 13.4197 199.81 13.263 199.514 13.0714V12.0789H206.592L210.588 22.7089L211.345 25.2163H211.371L212.155 22.6567L216.229 12.0789H222.707V13.0714C222.411 13.2455 222.089 13.4023 221.74 13.5416C221.409 13.6634 221.07 13.7592 220.722 13.8288V28.6377C221.087 28.7074 221.436 28.8118 221.766 28.9511C222.115 29.0904 222.419 29.2297 222.681 29.369V30.3615Z" fill="#19416B"/>
<path d="M232.153 30.3615H224.004V29.369C224.701 28.9859 225.406 28.7335 226.12 28.6116V13.8288C225.772 13.7766 225.406 13.6808 225.023 13.5416C224.64 13.4023 224.3 13.2455 224.004 13.0714V12.0789H232.153V13.0714C231.84 13.263 231.492 13.4284 231.108 13.5677C230.743 13.6896 230.386 13.7766 230.038 13.8288V28.6116C230.386 28.6812 230.743 28.777 231.108 28.8989C231.492 29.0208 231.84 29.1775 232.153 29.369V30.3615Z" fill="#19416B"/>
<path d="M245.736 12.0789H252.214V13.0714C251.883 13.3326 251.517 13.5677 251.117 13.7766C250.716 13.9681 250.342 14.1161 249.994 14.2206V30.6749H247.774L238.554 17.3548L237.509 15.3437H237.431L237.666 17.4331V28.3243C238.014 28.4114 238.397 28.5594 238.815 28.7683C239.25 28.9598 239.616 29.1601 239.912 29.369V30.3615H233.461V29.369C233.774 29.1601 234.114 28.9685 234.48 28.7944C234.863 28.6029 235.254 28.4462 235.655 28.3243V14.0639C235.307 13.9246 234.958 13.7679 234.61 13.5938C234.262 13.4197 233.948 13.2368 233.67 13.0453V12.0789H239.311L246.807 22.944L248.009 25.1901H248.113L247.982 22.944V14.2206C247.565 14.0813 247.155 13.9159 246.755 13.7244C246.372 13.5154 246.032 13.2978 245.736 13.0714V12.0789Z" fill="#19416B"/>
<path d="M253.253 30.3615V29.369C253.549 29.1949 253.88 29.0469 254.246 28.925C254.612 28.7857 254.995 28.6812 255.395 28.6116V13.8288C254.995 13.7418 254.603 13.6373 254.22 13.5154C253.854 13.3761 253.532 13.2281 253.253 13.0714V12.0789H256.283C256.579 12.0789 256.945 12.0702 257.38 12.0528C257.815 12.0354 258.268 12.018 258.738 12.0006C259.208 11.9658 259.661 11.9397 260.096 11.9222C260.549 11.8874 260.932 11.87 261.245 11.87C262.76 11.87 264.11 12.0702 265.294 12.4707C266.495 12.8712 267.505 13.4545 268.323 14.2206C269.159 14.9867 269.795 15.9357 270.23 17.0675C270.683 18.1992 270.909 19.5051 270.909 20.9852C270.909 22.4303 270.7 23.745 270.282 24.929C269.864 26.113 269.238 27.1229 268.402 27.9586C267.566 28.7944 266.504 29.4474 265.215 29.9175C263.944 30.3702 262.447 30.5966 260.723 30.5966C260.497 30.5966 260.192 30.5791 259.809 30.5443C259.426 30.5269 259.017 30.5008 258.581 30.466C258.146 30.4486 257.711 30.4224 257.276 30.3876C256.84 30.3702 256.457 30.3615 256.126 30.3615H253.253ZM260.906 13.5677C260.593 13.5677 260.279 13.5764 259.966 13.5938C259.652 13.6112 259.382 13.6373 259.156 13.6721V28.7944C259.226 28.8118 259.348 28.8292 259.522 28.8467C259.696 28.8467 259.87 28.8554 260.044 28.8728C260.236 28.8728 260.418 28.8815 260.593 28.8989C260.767 28.8989 260.897 28.8989 260.984 28.8989C261.994 28.8989 262.847 28.6899 263.544 28.2721C264.258 27.8542 264.841 27.2883 265.294 26.5744C265.746 25.8605 266.077 25.0247 266.286 24.0671C266.495 23.1094 266.6 22.0908 266.6 21.0113C266.6 20.0536 266.486 19.1308 266.26 18.2428C266.051 17.3548 265.72 16.5625 265.268 15.866C264.815 15.1696 264.223 14.6124 263.492 14.1945C262.778 13.7766 261.916 13.5677 260.906 13.5677Z" fill="#19416B"/>
<path d="M286.223 12.0789C286.188 12.8625 286.127 13.6721 286.04 14.5079C285.953 15.3437 285.84 16.1272 285.7 16.8585H284.63L283.428 13.7766H278.544V20.1755H281.731L282.88 18.1644H283.715C283.803 19.0176 283.846 19.9666 283.846 21.0113C283.846 22.056 283.803 23.0311 283.715 23.9365H282.88L281.731 21.8732H278.544V28.6638H283.637L285.021 25.3469H286.092C286.162 25.6777 286.232 26.052 286.301 26.4699C286.371 26.8878 286.423 27.3231 286.458 27.7758C286.51 28.2111 286.545 28.6551 286.562 29.1078C286.597 29.5605 286.615 29.9784 286.615 30.3615H272.485V29.369C272.781 29.2123 273.112 29.0643 273.477 28.925C273.843 28.7857 274.226 28.6812 274.626 28.6116V13.8288C274.278 13.7592 273.904 13.6634 273.503 13.5416C273.12 13.4023 272.781 13.2455 272.485 13.0714V12.0789H286.223Z" fill="#19416B"/>
<path d="M300.523 12.0789H307V13.0714C306.669 13.3326 306.304 13.5677 305.903 13.7766C305.503 13.9681 305.128 14.1161 304.78 14.2206V30.6749H302.56L293.34 17.3548L292.296 15.3437H292.217L292.452 17.4331V28.3243C292.801 28.4114 293.184 28.5594 293.602 28.7683C294.037 28.9598 294.402 29.1601 294.698 29.369V30.3615H288.247V29.369C288.561 29.1601 288.9 28.9685 289.266 28.7944C289.649 28.6029 290.041 28.4462 290.441 28.3243V14.0639C290.093 13.9246 289.745 13.7679 289.397 13.5938C289.048 13.4197 288.735 13.2368 288.456 13.0453V12.0789H294.098L301.594 22.944L302.795 25.1901H302.899L302.769 22.944V14.2206C302.351 14.0813 301.942 13.9159 301.541 13.7244C301.158 13.5154 300.819 13.2978 300.523 13.0714V12.0789Z" fill="#19416B"/>
<path d="M145.383 59.4745L141.502 50.281C141.117 50.1483 140.766 49.9891 140.448 49.8034V49.286H144.606V49.7835C144.434 49.8763 144.255 49.9692 144.069 50.0621C143.897 50.1417 143.698 50.2146 143.472 50.281L145.781 56.2707L146.179 57.5044H146.218L146.517 56.2508L148.646 50.281C148.434 50.2279 148.235 50.1616 148.049 50.082C147.877 50.0024 147.711 49.9095 147.552 49.8034V49.286H150.934V49.8034C150.802 49.8962 150.636 49.9825 150.437 50.0621C150.251 50.1417 150.039 50.2146 149.8 50.281L146.278 59.2357L145.383 59.4745Z" fill="#19416B"/>
<path d="M151.349 54.2608C151.349 53.4251 151.455 52.6888 151.667 52.052C151.893 51.402 152.211 50.858 152.623 50.4203C153.034 49.9692 153.525 49.6309 154.095 49.4054C154.679 49.1666 155.322 49.0472 156.025 49.0472C156.848 49.0472 157.558 49.1732 158.155 49.4253C158.752 49.6773 159.236 50.0355 159.607 50.4998C159.992 50.9509 160.271 51.4948 160.443 52.1316C160.629 52.7684 160.722 53.4781 160.722 54.2608C160.722 55.9324 160.297 57.2192 159.448 58.1213C158.599 59.0234 157.458 59.4745 156.025 59.4745C155.229 59.4745 154.54 59.3551 153.956 59.1163C153.372 58.8642 152.888 58.5127 152.503 58.0616C152.119 57.5973 151.827 57.0467 151.628 56.41C151.442 55.7599 151.349 55.0435 151.349 54.2608ZM153.259 54.2608C153.259 54.8578 153.313 55.4216 153.419 55.9523C153.538 56.4829 153.717 56.9472 153.956 57.3452C154.208 57.73 154.533 58.0351 154.931 58.2606C155.329 58.4861 155.807 58.5989 156.364 58.5989C157.08 58.5989 157.664 58.2473 158.115 57.5442C158.579 56.8411 158.811 55.7466 158.811 54.2608C158.811 53.6506 158.752 53.0868 158.632 52.5694C158.526 52.0387 158.354 51.581 158.115 51.1963C157.876 50.7983 157.571 50.4866 157.2 50.2611C156.828 50.0355 156.384 49.9228 155.866 49.9228C155.084 49.9228 154.453 50.2743 153.976 50.9774C153.498 51.6805 153.259 52.775 153.259 54.2608Z" fill="#19416B"/>
<path d="M172.815 59.2357H168.537V58.7382C168.895 58.5525 169.286 58.3933 169.711 58.2606V53.5445C169.711 52.5362 169.565 51.7402 169.273 51.1565C168.981 50.5728 168.451 50.281 167.681 50.281C167.35 50.281 167.038 50.3407 166.746 50.4601C166.467 50.5794 166.215 50.7453 165.99 50.9575C165.777 51.1565 165.592 51.3887 165.433 51.654C165.273 51.9061 165.147 52.1714 165.054 52.45V58.2606C165.466 58.3402 165.864 58.4994 166.248 58.7382V59.2357H161.95V58.7382C162.282 58.5657 162.72 58.4065 163.264 58.2606V50.4402L161.95 50.281V49.7636C162.295 49.6176 162.693 49.485 163.144 49.3656C163.595 49.2462 164.066 49.1401 164.557 49.0472H165.054V51.2759H165.074C165.353 50.6657 165.751 50.1417 166.268 49.7039C166.799 49.2661 167.436 49.0472 168.179 49.0472C168.709 49.0472 169.18 49.1135 169.592 49.2462C170.016 49.3656 170.368 49.5845 170.646 49.9029C170.925 50.2213 171.137 50.6524 171.283 51.1963C171.429 51.727 171.502 52.4036 171.502 53.2261V58.2606C172.033 58.3535 172.47 58.5127 172.815 58.7382V59.2357Z" fill="#19416B"/>
<path d="M186.047 59.2357H180.236V58.6586C180.568 58.5127 180.899 58.3866 181.231 58.2805C181.576 58.1611 181.921 58.0616 182.266 57.982V48.2114L182.345 47.0374C181.974 47.1833 181.589 47.2894 181.191 47.3557C180.793 47.4088 180.382 47.4287 179.957 47.4154L179.858 46.9379C180.468 46.7389 181.098 46.4934 181.748 46.2016C182.398 45.8965 183.002 45.5184 183.559 45.0673H184.057V57.982C184.388 58.0616 184.72 58.1611 185.052 58.2805C185.383 58.3866 185.715 58.5127 186.047 58.6586V59.2357Z" fill="#19416B"/>
<path d="M188.936 49.5447C188.936 48.8946 189.029 48.2977 189.215 47.7537C189.414 47.2098 189.699 46.7389 190.07 46.3409C190.455 45.9429 190.919 45.6311 191.463 45.4056C192.02 45.1801 192.657 45.0673 193.374 45.0673C194.143 45.0673 194.806 45.2 195.364 45.4653C195.934 45.7174 196.405 46.0756 196.776 46.5399C197.148 47.0042 197.42 47.5746 197.592 48.2512C197.765 48.9145 197.851 49.6508 197.851 50.4601C197.851 51.6938 197.672 52.8347 197.314 53.8827C196.955 54.9308 196.465 55.8528 195.841 56.6488C195.231 57.4315 194.501 58.0682 193.652 58.5591C192.816 59.0499 191.914 59.3551 190.946 59.4745L190.588 58.8974C191.37 58.6851 192.06 58.3734 192.657 57.9621C193.267 57.5509 193.785 57.0666 194.209 56.5095C194.647 55.939 194.999 55.3155 195.264 54.6389C195.529 53.9491 195.715 53.2261 195.821 52.4699C195.516 52.7883 195.151 53.0602 194.727 53.2858C194.316 53.498 193.752 53.6041 193.035 53.6041C192.438 53.6041 191.888 53.5179 191.384 53.3455C190.88 53.1597 190.448 52.8944 190.09 52.5495C189.732 52.2046 189.447 51.78 189.235 51.2759C189.036 50.7718 188.936 50.1947 188.936 49.5447ZM190.846 49.5248C190.846 49.9095 190.906 50.2876 191.025 50.659C191.145 51.0172 191.317 51.3423 191.543 51.6341C191.768 51.9127 192.04 52.1382 192.359 52.3107C192.677 52.4832 193.035 52.5694 193.433 52.5694C194.07 52.5694 194.594 52.4633 195.005 52.251C195.43 52.0255 195.742 51.7469 195.941 51.4152C195.967 51.2428 195.98 51.0305 195.98 50.7784C195.98 50.5131 195.98 50.3075 195.98 50.1616C195.98 49.684 195.927 49.1998 195.821 48.7089C195.728 48.2048 195.576 47.7537 195.364 47.3557C195.151 46.9578 194.873 46.6327 194.528 46.3807C194.183 46.1286 193.772 46.0026 193.294 46.0026C192.498 46.0026 191.888 46.321 191.463 46.9578C191.052 47.5813 190.846 48.4369 190.846 49.5248Z" fill="#19416B"/>
<path d="M201.059 49.1865H200.561C200.415 48.8018 200.263 48.3507 200.104 47.8333C199.958 47.3159 199.832 46.8251 199.726 46.3608C200.19 45.9628 200.747 45.651 201.397 45.4255C202.047 45.1867 202.75 45.0673 203.506 45.0673C204.17 45.0673 204.74 45.1602 205.218 45.3459C205.695 45.5316 206.087 45.7837 206.392 46.1021C206.71 46.4205 206.942 46.7919 207.088 47.2165C207.234 47.6277 207.307 48.0589 207.307 48.5099C207.307 49.2528 207.135 50.0156 206.79 50.7983C206.445 51.581 206.014 52.3439 205.496 53.0868C204.992 53.8164 204.442 54.5063 203.845 55.1563C203.248 55.8063 202.697 56.3768 202.193 56.8676L201.357 57.6437V57.7233L202.472 57.6039H205.894L206.869 55.3752H207.367C207.393 55.6671 207.42 55.9854 207.447 56.3304C207.473 56.6753 207.493 57.0268 207.506 57.385C207.533 57.73 207.553 58.0682 207.566 58.3999C207.579 58.7183 207.586 58.9969 207.586 59.2357H199.367V58.5989C199.659 58.2938 200.011 57.9223 200.422 57.4845C200.847 57.0467 201.284 56.5625 201.735 56.0319C202.186 55.5012 202.631 54.9374 203.069 54.3404C203.52 53.7434 203.918 53.1398 204.263 52.5296C204.608 51.9061 204.886 51.2892 205.098 50.6789C205.324 50.0687 205.437 49.485 205.437 48.9278C205.437 48.5431 205.384 48.1783 205.277 47.8333C205.185 47.4884 205.039 47.1899 204.84 46.9379C204.641 46.6725 204.395 46.4669 204.103 46.321C203.825 46.1751 203.5 46.1021 203.128 46.1021C202.85 46.1021 202.604 46.122 202.392 46.1618C202.18 46.2016 201.948 46.2613 201.696 46.3409L201.059 49.1865Z" fill="#19416B"/>
<path d="M209.799 56.1115C209.799 55.6604 209.878 55.2359 210.037 54.8379C210.197 54.4267 210.416 54.0618 210.694 53.7434C210.986 53.4118 211.324 53.1199 211.709 52.8679C212.107 52.6158 212.538 52.4102 213.002 52.251C212.631 52.052 212.279 51.8331 211.948 51.5943C211.629 51.3555 211.351 51.0836 211.112 50.7784C210.873 50.4733 210.681 50.1417 210.535 49.7835C210.402 49.412 210.336 49.0008 210.336 48.5497C210.336 48.0323 210.429 47.5614 210.615 47.1369C210.8 46.7123 211.059 46.3475 211.391 46.0424C211.736 45.7373 212.147 45.4985 212.624 45.326C213.115 45.1536 213.659 45.0673 214.256 45.0673C215.424 45.0673 216.332 45.3658 216.982 45.9628C217.632 46.5465 217.957 47.3027 217.957 48.2313C217.957 49.0008 217.705 49.6773 217.201 50.2611C216.697 50.8315 216.04 51.3025 215.231 51.6739C215.696 51.9127 216.127 52.178 216.525 52.4699C216.923 52.7617 217.261 53.0801 217.54 53.4251C217.831 53.77 218.057 54.1481 218.216 54.5593C218.389 54.9573 218.475 55.3885 218.475 55.8528C218.475 56.3436 218.375 56.8079 218.176 57.2457C217.991 57.6835 217.705 58.0682 217.321 58.3999C216.949 58.7316 216.485 58.9969 215.928 59.1959C215.384 59.3816 214.754 59.4745 214.037 59.4745C213.308 59.4745 212.677 59.3816 212.147 59.1959C211.616 59.0101 211.172 58.7647 210.814 58.4596C210.469 58.1412 210.21 57.783 210.037 57.385C209.878 56.9738 209.799 56.5493 209.799 56.1115ZM216.724 56.1911C216.724 55.74 216.631 55.3354 216.445 54.9772C216.273 54.6058 216.034 54.2807 215.729 54.0021C215.437 53.7103 215.092 53.445 214.694 53.2062C214.309 52.9674 213.911 52.7485 213.5 52.5495C213.115 52.775 212.797 53.0271 212.545 53.3057C212.293 53.5843 212.087 53.8761 211.928 54.1812C211.782 54.4731 211.676 54.7649 211.61 55.0568C211.543 55.3487 211.51 55.6206 211.51 55.8727C211.51 56.1911 211.556 56.5161 211.649 56.8477C211.755 57.1661 211.915 57.4514 212.127 57.7034C212.339 57.9555 212.611 58.1611 212.943 58.3203C213.288 58.4795 213.706 58.5591 214.196 58.5591C214.608 58.5591 214.973 58.4928 215.291 58.3601C215.609 58.2142 215.875 58.0284 216.087 57.8029C216.299 57.5774 216.458 57.3253 216.564 57.0467C216.671 56.7549 216.724 56.4697 216.724 56.1911ZM212.047 48.291C212.047 48.7023 212.12 49.0605 212.266 49.3656C212.425 49.6707 212.631 49.9493 212.883 50.2014C213.135 50.4402 213.42 50.659 213.739 50.858C214.07 51.057 214.409 51.2428 214.754 51.4152C215.311 50.9642 215.702 50.5131 215.928 50.0621C216.153 49.611 216.266 49.1135 216.266 48.5696C216.266 47.7471 216.08 47.117 215.709 46.6792C215.351 46.2281 214.853 46.0026 214.216 46.0026C213.858 46.0026 213.546 46.0689 213.281 46.2016C213.016 46.3342 212.79 46.5067 212.604 46.719C212.419 46.9312 212.279 47.1767 212.187 47.4552C212.094 47.7206 212.047 47.9992 212.047 48.291Z" fill="#19416B"/>
<path d="M232.75 57.8427C232.644 58.0682 232.478 58.2805 232.252 58.4795C232.027 58.6785 231.768 58.8509 231.476 58.9969C231.185 59.1428 230.866 59.2556 230.521 59.3352C230.176 59.428 229.825 59.4745 229.467 59.4745C228.684 59.4745 227.994 59.3551 227.397 59.1163C226.8 58.8642 226.303 58.5127 225.905 58.0616C225.507 57.5973 225.201 57.0467 224.989 56.41C224.79 55.7732 224.691 55.0568 224.691 54.2608C224.691 52.5627 225.082 51.2693 225.865 50.3805C226.647 49.4916 227.755 49.0472 229.188 49.0472C229.652 49.0472 230.11 49.1135 230.561 49.2462C231.012 49.3656 231.41 49.5712 231.755 49.8631C232.113 50.1549 232.398 50.5463 232.611 51.0371C232.836 51.5147 232.949 52.1117 232.949 52.8281C232.949 53.0536 232.936 53.2858 232.909 53.5246C232.896 53.7501 232.863 53.9955 232.81 54.2608H226.601C226.601 54.818 226.667 55.342 226.8 55.8329C226.946 56.3105 227.158 56.7284 227.437 57.0865C227.715 57.4447 228.067 57.73 228.491 57.9422C228.916 58.1412 229.413 58.2407 229.984 58.2407C230.448 58.2407 230.919 58.1744 231.397 58.0417C231.874 57.909 232.233 57.7366 232.471 57.5243L232.75 57.8427ZM229.108 49.9228C228.352 49.9228 227.775 50.1815 227.377 50.6988C226.979 51.203 226.74 52.0984 226.661 53.3853H231.039C231.052 53.2659 231.058 53.1531 231.058 53.047C231.072 52.9276 231.078 52.8148 231.078 52.7087C231.078 51.8596 230.919 51.1831 230.601 50.6789C230.282 50.1748 229.785 49.9228 229.108 49.9228Z" fill="#19416B"/>
<path d="M235.097 58.1014C235.097 57.7034 235.223 57.385 235.475 57.1462C235.727 56.9074 236.052 56.788 236.45 56.788C236.861 56.788 237.193 56.9074 237.445 57.1462C237.697 57.385 237.823 57.7034 237.823 58.1014C237.823 58.4861 237.697 58.7979 237.445 59.0367C237.193 59.2755 236.861 59.3949 236.45 59.3949C236.052 59.3949 235.727 59.2755 235.475 59.0367C235.223 58.7979 235.097 58.4861 235.097 58.1014Z" fill="#19416B"/>
<path d="M248.294 46.3807C247.976 46.3143 247.677 46.2414 247.399 46.1618C247.12 46.0689 246.848 45.9761 246.583 45.8832V45.3061H251.06V45.8832C250.676 46.0955 250.198 46.2613 249.628 46.3807L245.13 59.2357L244.036 59.4745L238.962 46.3807C238.696 46.3143 238.437 46.2414 238.185 46.1618C237.933 46.0689 237.688 45.9761 237.449 45.8832V45.3061H242.722V45.8832C242.497 45.9761 242.245 46.0689 241.966 46.1618C241.688 46.2414 241.396 46.3143 241.091 46.3807L244.494 55.4747L244.911 57.0666H244.951L245.349 55.4349L248.294 46.3807Z" fill="#19416B"/>
<path d="M250.673 58.1014C250.673 57.7034 250.799 57.385 251.051 57.1462C251.303 56.9074 251.628 56.788 252.026 56.788C252.437 56.788 252.769 56.9074 253.021 57.1462C253.273 57.385 253.399 57.7034 253.399 58.1014C253.399 58.4861 253.273 58.7979 253.021 59.0367C252.769 59.2755 252.437 59.3949 252.026 59.3949C251.628 59.3949 251.303 59.2755 251.051 59.0367C250.799 58.7979 250.673 58.4861 250.673 58.1014Z" fill="#19416B"/>
<path d="M95.8729 54.2609L130.697 54.2609" stroke="#19416B" stroke-linecap="round"/>
<path d="M265.018 54.2609H299.841" stroke="#19416B" stroke-linecap="round"/>
<defs>
<clipPath id="clip0_8_154">
<rect width="66" height="77" fill="white"/>
</clipPath>
</defs>
</svg>
