<?xml version="1.0" encoding="UTF-8"?>
<svg id="Ebene_2" data-name="Ebene 2" xmlns="http://www.w3.org/2000/svg" viewBox="0 0 129.79 175.97">
  <defs>
    <style>
      .cls-1 {
        fill: #18416b;
        fill-rule: evenodd;
      }
    </style>
  </defs>
  <g id="Ebene_2-2" data-name="Ebene 2">
    <g id="Ebene_1-2" data-name="Ebene 1-2">
      <path class="cls-1" d="M107.42,19.43v10.88h-3.89c-.33-1.17-.7-2.23-1.12-3.16l-.06-.14c-.37-.81-.78-1.52-1.22-2.14-.97-1.35-2.09-2.32-3.38-2.9s-2.83-.86-4.65-.86c-2.7,0-5.1.9-7.21,2.7-2.11,1.78-3.77,4.49-4.98,8.09-1.21,3.61-1.81,7.95-1.81,13.06,0,1.45.04,2.83.12,4.16v.14c.21,3.33.67,6.28,1.39,8.84.99,3.63,2.46,6.37,4.41,8.22,1.93,1.84,4.32,2.76,7.16,2.76,2.15,0,3.91-.31,5.28-.93,1.36-.62,2.51-1.58,3.44-2.92.93-1.34,1.81-3.3,2.66-5.9h3.89v11.24c-2.47.66-5,1.15-7.57,1.48-2.59.34-5.43.5-8.51.5-6.67,0-11.71-2.25-15.11-6.76-1.92-2.54-3.3-5.78-4.14-9.73l-.02-.11c-.63-3.03-.95-6.46-.95-10.31,0-5.61.89-10.51,2.65-14.74,1.77-4.21,4.38-7.47,7.82-9.78,3.44-2.31,7.53-3.46,12.31-3.46,2.39,0,4.59.12,6.61.38,2.03.24,4.32.71,6.93,1.39h-.05ZM65.43,171.01l-.17.07.15-.08h0c4.3-2.18,8.38-4.36,12.23-6.56,22.3-12.76,36.92-25.98,43.86-39.66,1.29-2.55,2.31-5.11,3.07-7.68.12-.42.24-.84.35-1.25.02-.09.05-.17.07-.26V5.37l-17.57,16.79-5.08,4.85-23.14,22.11-7.15,6.83L8.31,116.85l-1.65,1.58-.05.05h0l.06-.05c.81,2.53,1.87,5.03,3.2,7.53,6.8,12.79,20.43,25.16,40.89,37.12,4.54,2.65,9.41,5.28,14.61,7.89l.04.02h.02v.02ZM.35,117.1l-.35.15c5.31,20.53,26.95,40.09,64.91,58.7l.05.02c37.69-18.58,59.26-38.11,64.72-58.6.02-.08.05-.17.07-.25l.04-117.12H.14l-.04,117.1h.25ZM22.34,18.29h42.57v13.67h-3.85c-.58-2.24-1.14-4.02-1.71-5.34-.56-1.31-1.17-2.31-1.8-2.99-.62-.67-1.3-1.17-2.01-1.45-.73-.28-1.81-.43-3.25-.43h-5v40.23c0,1.54.08,2.78.26,3.69.17.93.43,1.65.78,2.19.36.54.83.95,1.44,1.26.6.29,1.56.59,2.83.87v1.93h-17.98v-1.93c.79-.17,1.49-.38,2.1-.59.6-.2,1.09-.46,1.48-.76.38-.29.68-.68.94-1.15.24-.47.44-1.11.59-1.93.15-.8.21-2,.21-3.57V21.75h-4.96c-1.24,0-2.26.12-3.05.35-.81.24-1.54.72-2.23,1.48-.68.75-1.3,1.81-1.87,3.18-.56,1.38-1.09,3.11-1.6,5.2h-3.89v-13.67h0ZM83.9,129.52c0,1.52.04,2.66.12,3.41.08.76.2,1.38.39,1.84.19.46.4.83.67,1.11.25.3.63.55,1.11.79.48.23,1.25.48,2.27.74v1.93h-16.49v-1.93c1.45-.36,2.46-.76,3.04-1.21.58-.46.98-1.13,1.2-2.05.23-.91.34-2.45.34-4.63v-16.47h-21.88v16.47c0,1.74.07,3.03.17,3.85.12.8.32,1.45.59,1.92.28.47.69.87,1.22,1.18.54.32,1.41.63,2.62.94v1.93h-16.56v-1.93c1.63-.42,2.71-.87,3.26-1.39.55-.51.91-1.23,1.07-2.17.17-.94.26-2.39.26-4.32v-34c0-1.8-.07-3.12-.19-3.94-.13-.83-.35-1.46-.66-1.93-.3-.46-.7-.82-1.2-1.1-.5-.27-1.36-.58-2.55-.91v-1.93h16.56v1.93c-1.16.28-1.99.56-2.5.86-.51.28-.91.64-1.22,1.09-.3.43-.52,1.07-.67,1.94-.15.86-.22,2.2-.22,4v13.91h21.88v-13.91c0-2.28-.11-3.84-.34-4.67-.21-.84-.59-1.49-1.11-1.93-.52-.44-1.57-.87-3.12-1.29v-1.93h16.49v1.93c-1.48.36-2.5.78-3.08,1.23-.58.46-.97,1.14-1.18,2.07-.2.91-.31,2.44-.31,4.59v34h0l.02-.02Z"/>
    </g>
  </g>
</svg>