<?xml version="1.0" encoding="UTF-8"?><svg id="Ebene_2" xmlns="http://www.w3.org/2000/svg" xmlns:xlink="http://www.w3.org/1999/xlink" viewBox="0 0 66 77"><defs><style>.cls-1{fill:none;}.cls-2{fill:#19416b;}.cls-3{clip-path:url(#clippath);}</style><clipPath id="clippath"><rect class="cls-1" width="66" height="77"/></clipPath></defs><g id="Ebene_1-2"><g class="cls-3"><path class="cls-2" d="M33.13.07c10.18,0,20.36.04,30.55-.04,1.63,0,2.3.39,2.29,2.12-.05,12.9.15,25.82-.08,38.72-.15,8.33-4.18,15.16-9.68,21.15-5.8,6.33-12.88,10.86-20.68,14.33-1.96.87-3.85.9-5.86-.07-9.02-4.33-17.13-9.81-23.13-18.02C2.28,52.41,0,45.97.05,38.65.14,26.42.09,14.19,0,1.96-.01.24.65,0,2.13,0c10.33.05,20.67.03,31,.03v.05ZM19.48,59.9c.85-1.32,2.28-2.53,2.34-3.8.24-5.42.13-10.87,0-16.3-.05-1.99-1.04-2.37-2.63-1.11-4.31,3.43-8.57,6.92-12.89,10.34-1.33,1.05-1.6,1.93-.68,3.58,5.54,10.05,14.48,16.14,24.19,21.47,2.28,1.25,4.21,1.14,6.31-.2,4.12-2.63,8.52-4.89,12.39-7.86,8.57-6.57,14.7-14.81,14.91-26.16.22-11.62.16-23.25.21-34.88,0-.56-.12-1.11-.24-2.18-3.33,2.89-6.74,4.99-9.35,7.98.16.19.33.39.49.58.69-.37,1.39-.74,2.5-1.34-.13,2.35-.24,4.31-.34,6.28-.23.02-.45.05-.67.07-.77-.98-1.59-1.92-2.29-2.95-.91-1.34-1.83-1.28-2.99-.31-1.5,1.26-2.97,2.63-4.65,3.58-3.81,2.15-4.22,5.29-3.45,9.19.55,2.75,1.5,4.92,4.36,5.71,3.07.85,5.63-.08,7.72-2.44.45-.51.96-.96,1.78-1.78v5.37c-1.94.22-3.5.37-5.05.58-3.59.48-7.22.61-10.2-1.74-2.12-1.68-3.82-3.89-5.96-6.13-4.06,3.38-8.43,7.03-12.8,10.68l.26.75h6.91c-2.83,3.08-1.76,6.28-1.77,9.28,0,.34,1.07.94,1.68.98,2.25.13,4.52.05,6.79.1,1.44.04,1.82-.71,1.78-1.98-.09-2.93.54-6.04-2.93-8.31h11.4c-3.06,1.81-2.4,4.72-2.43,7.37-.03,2.95.05,5.89,0,8.84-.05,2.71.14,5.28,3.02,7h-11.47c3.6-2.72,2.15-6.35,2.38-9.83-3.16,0-6.02-.05-8.87.05-.48.02-1.34.7-1.34,1.06.08,2.98-1.46,6.44,2.74,8.47h-11.14,0ZM8.54,15.31c.18.1.36.19.54.29,1.85-2.46,3.92-4.49,7.5-3.86,0,4.35.06,8.63-.02,12.91-.06,2.85.86,5.91-2.28,8.62h9.32c-2.35-2.19-1.83-4.87-1.83-7.39,0-3.7.09-7.39.07-11.09,0-3.41,1.05-4.13,4.14-2.55,1.04.53,1.84,1.52,2.75,2.3.35.3.7.61,1.3,1.14v-4.93c-.17-.14-.23-.23-.29-.23-6.69-.09-13.39-.19-20.08-.22-.38,0-1.05.52-1.07.85-.12,1.38-.05,2.77-.05,4.16ZM36.18,24.31c2.61-2.09,5.55-3.23,5.68-6.89.04-1.02.41-2.08.84-3.03,1.25-2.8,2.62-3.57,5.65-3.42,1.04.05,2.08,0,3.11,0l-.09-.64c-4.17-.41-8.26-.24-11.64,2.8-3.12,2.8-4.49,6.3-3.55,11.17h0Z"/></g></g></svg>