<svg width="225" height="58" viewBox="0 0 225 58" fill="none" xmlns="http://www.w3.org/2000/svg">
<g clip-path="url(#clip0_3_126)">
<path d="M24.1157 0.927888C31.528 0.927888 38.9404 0.954368 46.3527 0.901408C47.5392 0.894788 48.0237 1.18607 48.0204 2.44717C47.9875 11.874 48.1325 21.3075 47.9644 30.7311C47.8557 36.8148 44.919 41.803 40.9212 46.1788C36.6992 50.8028 31.5445 54.1128 25.869 56.645C24.4386 57.2838 23.0643 57.3037 21.6009 56.5953C15.0323 53.431 9.12943 49.4259 4.76244 43.4282C1.65775 39.1649 -0.00665612 34.4548 0.0361899 29.1058C0.105403 20.1722 0.0625567 11.2385 -6.44219e-05 2.30815C-0.00995197 1.04705 0.471242 0.868308 1.54898 0.874928C9.07011 0.911338 16.5945 0.894788 24.1157 0.894788C24.1157 0.904718 24.1157 0.914648 24.1157 0.927888ZM14.182 44.6297C14.8016 43.6632 15.8431 42.7827 15.8826 41.8559C16.054 37.8939 15.9749 33.9186 15.8826 29.9499C15.8497 28.4935 15.1279 28.2221 13.971 29.1423C10.8301 31.6446 7.732 34.1966 4.58776 36.6924C3.62207 37.4603 3.42432 38.1024 4.09008 39.3106C8.1242 46.6488 14.6335 51.1007 21.6965 54.9933C23.3543 55.9069 24.7616 55.8241 26.2876 54.8477C29.2901 52.9246 32.4904 51.2729 35.3051 49.1081C41.5441 44.3053 46.0034 38.2911 46.1616 29.9995C46.3231 21.5094 46.2769 13.0127 46.3132 4.51923C46.3132 4.1121 46.2275 3.70497 46.1385 2.92712C43.7161 5.0389 41.231 6.57473 39.3293 8.75933C39.4479 8.90166 39.5666 9.04068 39.6852 9.18301C40.1895 8.91159 40.6938 8.64017 41.5045 8.20325C41.4123 9.91783 41.3332 11.3544 41.2541 12.7876C41.0893 12.8041 40.9278 12.824 40.763 12.8406C40.2027 12.1256 39.6028 11.4371 39.0953 10.6857C38.4328 9.70599 37.7638 9.75233 36.92 10.4574C35.8258 11.3742 34.7612 12.3772 33.5319 13.0756C30.7568 14.6478 30.4569 16.9416 31.0238 19.7915C31.4225 21.7974 32.1147 23.3862 34.1944 23.9654C36.4289 24.5877 38.2944 23.9092 39.8138 22.1813C40.1401 21.8106 40.5092 21.4796 41.109 20.8805V24.8029C39.6951 24.9617 38.5614 25.071 37.4342 25.2232C34.8239 25.5741 32.1806 25.6701 30.0119 23.9522C28.4695 22.7275 27.2302 21.1122 25.6713 19.4771C22.7149 21.9496 19.5344 24.6142 16.3506 27.2754L16.5418 27.8249H21.5713C19.5147 30.0757 20.2925 32.4125 20.2826 34.6071C20.2826 34.8553 21.0637 35.2955 21.502 35.322C23.1434 35.418 24.7946 35.3551 26.4425 35.3981C27.4873 35.4279 27.7642 34.8785 27.7378 33.9517C27.6752 31.8101 28.13 29.5395 25.6054 27.8778H33.9076C31.6796 29.2018 32.1608 31.3235 32.1377 33.2599C32.1147 35.4114 32.174 37.5629 32.1345 39.7144C32.0982 41.6937 32.2366 43.5705 34.3361 44.825H25.9844C28.6046 42.8357 27.5499 40.1877 27.7147 37.6423C25.4175 37.6423 23.3345 37.6059 21.2582 37.6787C20.9088 37.692 20.2793 38.1918 20.2859 38.4533C20.3452 40.6312 19.2246 43.1568 22.2832 44.6396H14.1754L14.182 44.6297ZM6.21591 12.0594C6.34774 12.1322 6.47957 12.2017 6.60811 12.2745C7.95611 10.4772 9.45902 8.99765 12.0693 9.45112C12.0693 12.6254 12.1155 15.7533 12.0529 18.8813C12.01 20.96 12.6791 23.1975 10.395 25.1769H17.1779C15.4706 23.5749 15.8464 21.6186 15.8431 19.7783C15.8365 17.0773 15.9057 14.3764 15.8958 11.6754C15.8892 9.18632 16.6572 8.65672 18.9115 9.81191C19.6663 10.1992 20.2529 10.9208 20.9154 11.4901C21.1692 11.7085 21.4229 11.9369 21.8613 12.3242V8.72292C21.7361 8.62031 21.6932 8.55742 21.6504 8.55742C16.7791 8.49122 11.9045 8.42171 7.03328 8.39854C6.75972 8.39854 6.27193 8.77919 6.25216 9.01751C6.16317 10.0237 6.21591 11.0432 6.21591 12.0594ZM26.3404 18.633C28.2421 17.1038 30.3778 16.2763 30.4766 13.6018C30.503 12.8538 30.7766 12.0826 31.0864 11.3875C31.9927 9.34189 32.9947 8.77919 35.2029 8.88842C35.9576 8.92483 36.7157 8.89504 37.4704 8.89504L37.4045 8.42833C34.3723 8.13043 31.3929 8.24959 28.9276 10.4739C26.6568 12.5228 25.6614 15.0748 26.3404 18.6363V18.633Z" fill="white"/>
</g>
<path d="M72.6595 22.9075H66.0756V22.1695C66.3308 22.0659 66.6179 21.9623 66.9369 21.8587C67.2686 21.7421 67.6004 21.658 67.9321 21.6062V10.5737H65.7119L64.487 13.8951H63.7023C63.6513 13.6361 63.6002 13.3059 63.5492 12.9045C63.4982 12.5031 63.4535 12.0887 63.4152 11.6614C63.3769 11.2341 63.345 10.8133 63.3195 10.3989C63.294 9.9716 63.2812 9.60903 63.2812 9.3112H75.4538C75.4538 9.62198 75.4411 9.98455 75.4156 10.3989C75.3901 10.8133 75.3582 11.2341 75.3199 11.6614C75.2816 12.0887 75.2369 12.5031 75.1859 12.9045C75.1349 13.293 75.0838 13.6232 75.0328 13.8951H74.2481L73.0232 10.5737H70.803V21.6062C71.1347 21.6709 71.4601 21.7486 71.7791 21.8393C72.1108 21.9299 72.4043 22.04 72.6595 22.1695V22.9075Z" fill="white"/>
<path d="M86.0765 18.8286H86.8612C86.9122 19.0358 86.9569 19.2883 86.9951 19.5862C87.0462 19.871 87.0845 20.1818 87.11 20.5185C87.1483 20.8422 87.1738 21.1659 87.1865 21.4896C87.1993 21.8134 87.2057 22.1047 87.2057 22.3637C86.7591 22.6486 86.1977 22.8493 85.5214 22.9658C84.8579 23.0824 84.1753 23.1406 83.4735 23.1406C82.4145 23.1406 81.4511 23.0111 80.5835 22.7522C79.7286 22.4802 78.9949 22.0594 78.3825 21.4896C77.7828 20.9069 77.317 20.1753 76.9853 19.2948C76.6535 18.4013 76.4877 17.333 76.4877 16.09C76.4877 14.8598 76.6663 13.8045 77.0236 12.9239C77.3936 12.0305 77.8848 11.2989 78.4973 10.7291C79.1098 10.1594 79.8179 9.74499 80.6218 9.48601C81.4384 9.21409 82.2933 9.07812 83.1864 9.07812C84.0286 9.07812 84.7877 9.14287 85.464 9.27236C86.153 9.3889 86.7144 9.55076 87.1483 9.75794C87.1483 9.96512 87.1355 10.2306 87.11 10.5543C87.0972 10.878 87.0653 11.2212 87.0143 11.5837C86.976 11.9334 86.925 12.283 86.8612 12.6326C86.8101 12.9693 86.7591 13.2541 86.7081 13.4872H85.9042L84.8515 10.5543C84.7367 10.4896 84.5517 10.4378 84.2965 10.3989C84.0413 10.3601 83.7797 10.3406 83.5118 10.3406C82.9887 10.3406 82.4974 10.4507 82.0381 10.6708C81.5787 10.878 81.1704 11.2147 80.8132 11.6809C80.4559 12.147 80.1752 12.7491 79.971 13.4872C79.7669 14.2124 79.6648 15.0864 79.6648 16.1094C79.6648 17.9611 80.0284 19.3854 80.7557 20.3825C81.483 21.3796 82.4719 21.8781 83.7223 21.8781C84.0796 21.8781 84.3794 21.8522 84.6219 21.8004C84.8771 21.7357 85.0493 21.6515 85.1386 21.5479L86.0765 18.8286Z" fill="white"/>
<path d="M99.5673 22.9075H93.7681V22.1695C93.985 22.0529 94.2338 21.9429 94.5145 21.8393C94.808 21.7357 95.0823 21.658 95.3375 21.6062V10.6126C95.0313 10.5608 94.7378 10.4831 94.4571 10.3795C94.1764 10.2759 93.9467 10.1658 93.7681 10.0493V9.3112H99.5673V10.0493C99.3759 10.1788 99.159 10.2953 98.9165 10.3989C98.6869 10.5025 98.4508 10.5737 98.2084 10.6126V15.313H103.28V10.6126C103 10.5608 102.744 10.4831 102.515 10.3795C102.298 10.2759 102.1 10.1658 101.921 10.0493V9.3112H107.721V10.0493C107.504 10.1917 107.255 10.3083 106.974 10.3989C106.693 10.4896 106.419 10.5608 106.151 10.6126V21.6062C106.445 21.658 106.725 21.7357 106.993 21.8393C107.274 21.9429 107.516 22.0529 107.721 22.1695V22.9075H101.921V22.1695C102.113 22.0529 102.323 21.9429 102.553 21.8393C102.783 21.7357 103.025 21.658 103.28 21.6062V16.5755H98.2084V21.6062C98.4636 21.658 98.6996 21.7292 98.9165 21.8198C99.1335 21.9105 99.3504 22.027 99.5673 22.1695V22.9075Z" fill="white"/>
<path d="M108.841 16.1094C108.841 15.0994 108.982 14.167 109.262 13.3124C109.543 12.4448 109.958 11.7003 110.506 11.0787C111.055 10.4442 111.731 9.95217 112.535 9.60255C113.339 9.25293 114.264 9.07812 115.31 9.07812C116.357 9.07812 117.282 9.25293 118.086 9.60255C118.889 9.95217 119.559 10.4442 120.095 11.0787C120.644 11.7003 121.059 12.4448 121.339 13.3124C121.62 14.167 121.76 15.0994 121.76 16.1094C121.76 17.1194 121.62 18.0582 121.339 18.9258C121.059 19.7804 120.644 20.5249 120.095 21.1594C119.559 21.781 118.889 22.2666 118.086 22.6162C117.282 22.9658 116.357 23.1406 115.31 23.1406C114.264 23.1406 113.339 22.9658 112.535 22.6162C111.731 22.2666 111.055 21.781 110.506 21.1594C109.958 20.5249 109.543 19.7804 109.262 18.9258C108.982 18.0582 108.841 17.1194 108.841 16.1094ZM112.095 16.1094C112.095 16.9381 112.159 17.7086 112.286 18.4208C112.414 19.12 112.612 19.7286 112.88 20.2465C113.16 20.7516 113.511 21.153 113.932 21.4508C114.366 21.7357 114.883 21.8781 115.483 21.8781C116.031 21.8781 116.497 21.7357 116.88 21.4508C117.263 21.153 117.575 20.7516 117.818 20.2465C118.06 19.7286 118.232 19.12 118.334 18.4208C118.449 17.7086 118.507 16.9381 118.507 16.1094C118.507 15.2806 118.443 14.5167 118.315 13.8174C118.2 13.1052 118.009 12.4966 117.741 11.9916C117.486 11.4737 117.141 11.0723 116.708 10.7874C116.287 10.4896 115.77 10.3406 115.157 10.3406C114.57 10.3406 114.079 10.4896 113.684 10.7874C113.288 11.0723 112.969 11.4737 112.727 11.9916C112.497 12.4966 112.331 13.1052 112.229 13.8174C112.14 14.5167 112.095 15.2806 112.095 16.1094Z" fill="white"/>
<path d="M122.907 9.3112H129.185V10.0493C128.917 10.1917 128.617 10.3147 128.285 10.4183C127.966 10.509 127.653 10.5737 127.347 10.6126V21.645H131.041L132.323 18.1682H133.108C133.159 18.4661 133.204 18.8157 133.242 19.2171C133.293 19.6185 133.331 20.0394 133.357 20.4796C133.382 20.9199 133.402 21.3537 133.414 21.781C133.427 22.2083 133.427 22.5838 133.414 22.9075H122.907V22.1695C123.2 22.0141 123.475 21.8911 123.73 21.8004C123.998 21.7098 124.247 21.645 124.476 21.6062V10.6126C123.851 10.509 123.328 10.3212 122.907 10.0493V9.3112Z" fill="white"/>
<path d="M143.96 18.8092H144.764C144.815 19.0811 144.86 19.3919 144.898 19.7415C144.949 20.0782 144.994 20.4343 145.032 20.8098C145.07 21.1724 145.096 21.535 145.109 21.8975C145.134 22.2601 145.147 22.5968 145.147 22.9075H134.352V21.645L141.778 10.5737H137.032L135.903 13.3513H135.099C135.035 13.0664 134.978 12.7427 134.927 12.3801C134.876 12.0175 134.831 11.655 134.793 11.2924C134.754 10.9169 134.729 10.5608 134.716 10.2241C134.703 9.87448 134.697 9.57018 134.697 9.3112H144.917V10.5737L137.529 21.645H142.774L143.96 18.8092Z" fill="white"/>
<path d="M163.21 22.9075H157.488V22.1695C157.743 22.04 157.992 21.9299 158.234 21.8393C158.477 21.7486 158.738 21.6709 159.019 21.6062V13.4872L159.115 11.2147H158.961L158.33 13.293L154.636 22.9075H153.756L150.081 13.3707L149.392 11.0982H149.22L149.239 13.5649V21.5285C149.481 21.5803 149.749 21.6645 150.043 21.781C150.336 21.8975 150.61 22.027 150.866 22.1695V22.9075H146.196V22.1695C146.4 22.0659 146.649 21.9429 146.942 21.8004C147.248 21.658 147.535 21.5609 147.803 21.5091V10.6126C147.548 10.5608 147.274 10.4896 146.98 10.3989C146.7 10.3083 146.451 10.1917 146.234 10.0493V9.3112H151.421L154.349 17.2165L154.904 19.0811H154.923L155.497 17.1777L158.483 9.3112H163.23V10.0493C163.013 10.1788 162.777 10.2953 162.521 10.3989C162.279 10.4896 162.03 10.5608 161.775 10.6126V21.6256C162.043 21.6774 162.298 21.7551 162.541 21.8587C162.796 21.9623 163.019 22.0659 163.21 22.1695V22.9075Z" fill="white"/>
<path d="M170.152 22.9075H164.181V22.1695C164.691 21.8846 165.208 21.6968 165.731 21.6062V10.6126C165.476 10.5737 165.208 10.5025 164.927 10.3989C164.646 10.2953 164.397 10.1788 164.181 10.0493V9.3112H170.152V10.0493C169.922 10.1917 169.667 10.3147 169.386 10.4183C169.118 10.509 168.857 10.5737 168.602 10.6126V21.6062C168.857 21.658 169.118 21.7292 169.386 21.8198C169.667 21.9105 169.922 22.027 170.152 22.1695V22.9075Z" fill="white"/>
<path d="M180.106 9.3112H184.852V10.0493C184.61 10.2435 184.342 10.4183 184.048 10.5737C183.755 10.7162 183.481 10.8262 183.225 10.9039V23.1406H181.599L174.842 13.2347L174.077 11.7391H174.019L174.192 13.293V21.3925C174.447 21.4573 174.728 21.5673 175.034 21.7227C175.353 21.8652 175.621 22.0141 175.838 22.1695V22.9075H171.11V22.1695C171.34 22.0141 171.589 21.8716 171.857 21.7421C172.137 21.5997 172.425 21.4832 172.718 21.3925V10.7874C172.463 10.6838 172.208 10.5672 171.952 10.4378C171.697 10.3083 171.468 10.1723 171.263 10.0299V9.3112H175.398L180.89 17.3913L181.771 19.0617H181.847L181.752 17.3913V10.9039C181.446 10.8003 181.146 10.6773 180.852 10.5349C180.572 10.3795 180.323 10.2176 180.106 10.0493V9.3112Z" fill="white"/>
<path d="M185.614 22.9075V22.1695C185.831 22.04 186.074 21.9299 186.342 21.8393C186.61 21.7357 186.89 21.658 187.184 21.6062V10.6126C186.89 10.5478 186.603 10.4701 186.322 10.3795C186.055 10.2759 185.818 10.1658 185.614 10.0493V9.3112H187.834C188.051 9.3112 188.319 9.30473 188.638 9.29178C188.957 9.27883 189.289 9.26588 189.634 9.25294C189.978 9.22704 190.31 9.20761 190.629 9.19466C190.961 9.16877 191.241 9.15582 191.471 9.15582C192.581 9.15582 193.57 9.30473 194.438 9.60255C195.318 9.90038 196.058 10.3342 196.658 10.9039C197.27 11.4737 197.736 12.1794 198.055 13.0211C198.387 13.8627 198.552 14.8339 198.552 15.9346C198.552 17.0093 198.399 17.987 198.093 18.8675C197.787 19.748 197.328 20.4991 196.715 21.1206C196.103 21.7421 195.324 22.2277 194.38 22.5773C193.449 22.914 192.351 23.0824 191.088 23.0824C190.922 23.0824 190.699 23.0694 190.418 23.0435C190.138 23.0306 189.838 23.0111 189.519 22.9852C189.2 22.9723 188.881 22.9529 188.562 22.927C188.243 22.914 187.962 22.9075 187.72 22.9075H185.614ZM191.222 10.4183C190.992 10.4183 190.763 10.4248 190.533 10.4378C190.303 10.4507 190.106 10.4701 189.94 10.496V21.7421C189.991 21.7551 190.08 21.768 190.208 21.781C190.335 21.781 190.463 21.7875 190.591 21.8004C190.731 21.8004 190.865 21.8069 190.992 21.8198C191.12 21.8198 191.216 21.8198 191.28 21.8198C192.02 21.8198 192.645 21.6645 193.155 21.3537C193.678 21.0429 194.106 20.6221 194.438 20.0912C194.769 19.5603 195.012 18.9387 195.165 18.2265C195.318 17.5143 195.394 16.7568 195.394 15.954C195.394 15.2418 195.312 14.5555 195.146 13.8951C194.993 13.2347 194.75 12.6455 194.418 12.1276C194.087 11.6096 193.653 11.1953 193.117 10.8845C192.594 10.5737 191.962 10.4183 191.222 10.4183Z" fill="white"/>
<path d="M209.774 9.3112C209.749 9.8939 209.704 10.496 209.64 11.1176C209.577 11.7391 209.494 12.3218 209.392 12.8657H208.607L207.726 10.5737H204.147V15.3324H206.482L207.325 13.8368H207.937C208.001 14.4713 208.033 15.1771 208.033 15.954C208.033 16.7309 208.001 17.4561 207.937 18.1294H207.325L206.482 16.595H204.147V21.645H207.88L208.894 19.1783H209.679C209.73 19.4243 209.781 19.7027 209.832 20.0135C209.883 20.3242 209.921 20.648 209.947 20.9846C209.985 21.3084 210.01 21.6386 210.023 21.9752C210.049 22.3119 210.061 22.6227 210.061 22.9075H199.707V22.1695C199.924 22.0529 200.166 21.9429 200.434 21.8393C200.702 21.7357 200.983 21.658 201.277 21.6062V10.6126C201.021 10.5608 200.747 10.4896 200.454 10.3989C200.173 10.2953 199.924 10.1788 199.707 10.0493V9.3112H209.774Z" fill="white"/>
<path d="M220.253 9.3112H225V10.0493C224.758 10.2435 224.49 10.4183 224.196 10.5737C223.903 10.7162 223.628 10.8262 223.373 10.9039V23.1406H221.746L214.99 13.2347L214.225 11.7391H214.167L214.339 13.293V21.3925C214.595 21.4573 214.875 21.5673 215.182 21.7227C215.501 21.8652 215.768 22.0141 215.985 22.1695V22.9075H211.258V22.1695C211.488 22.0141 211.736 21.8716 212.004 21.7421C212.285 21.5997 212.572 21.4832 212.866 21.3925V10.7874C212.61 10.6838 212.355 10.5672 212.1 10.4378C211.845 10.3083 211.615 10.1723 211.411 10.0299V9.3112H215.545L221.038 17.3913L221.919 19.0617H221.995L221.899 17.3913V10.9039C221.593 10.8003 221.293 10.6773 221 10.5349C220.719 10.3795 220.47 10.2176 220.253 10.0493V9.3112Z" fill="white"/>
<path d="M106.709 44.2344L103.891 37.5042C103.612 37.4071 103.356 37.2905 103.125 37.1546V36.7758H106.145V37.14C106.02 37.208 105.89 37.276 105.755 37.3439C105.63 37.4022 105.485 37.4556 105.322 37.5042L106.998 41.889L107.287 42.7922H107.316L107.533 41.8744L109.079 37.5042C108.925 37.4653 108.781 37.4168 108.646 37.3585C108.52 37.3002 108.4 37.2323 108.284 37.1546V36.7758H110.741V37.1546C110.645 37.2225 110.524 37.2857 110.38 37.3439C110.245 37.4022 110.091 37.4556 109.917 37.5042L107.359 44.0596L106.709 44.2344Z" fill="white"/>
<path d="M111.042 40.4177C111.042 39.8059 111.119 39.2669 111.274 38.8007C111.437 38.3248 111.669 37.9266 111.967 37.6062C112.266 37.276 112.622 37.0283 113.037 36.8632C113.461 36.6884 113.928 36.601 114.439 36.601C115.036 36.601 115.551 36.6933 115.985 36.8778C116.418 37.0623 116.77 37.3245 117.04 37.6644C117.319 37.9946 117.522 38.3928 117.647 38.859C117.782 39.3251 117.849 39.8447 117.849 40.4177C117.849 41.6414 117.541 42.5834 116.924 43.2438C116.308 43.9042 115.479 44.2344 114.439 44.2344C113.86 44.2344 113.359 44.147 112.936 43.9722C112.512 43.7876 112.16 43.5303 111.881 43.2001C111.601 42.8602 111.389 42.4571 111.245 41.991C111.11 41.5151 111.042 40.9907 111.042 40.4177ZM112.43 40.4177C112.43 40.8547 112.468 41.2675 112.545 41.6559C112.632 42.0444 112.762 42.3843 112.936 42.6757C113.119 42.9573 113.355 43.1807 113.644 43.3458C113.933 43.5109 114.28 43.5934 114.684 43.5934C115.204 43.5934 115.628 43.336 115.956 42.8213C116.293 42.3066 116.462 41.5054 116.462 40.4177C116.462 39.971 116.418 39.5582 116.332 39.1794C116.255 38.791 116.129 38.4559 115.956 38.1743C115.783 37.8829 115.561 37.6547 115.291 37.4896C115.021 37.3245 114.699 37.242 114.323 37.242C113.754 37.242 113.297 37.4993 112.95 38.014C112.603 38.5288 112.43 39.33 112.43 40.4177Z" fill="white"/>
<path d="M126.632 44.0596H123.525V43.6954C123.785 43.5594 124.069 43.4429 124.378 43.3458V39.8933C124.378 39.1552 124.272 38.5725 124.06 38.1452C123.848 37.7178 123.462 37.5042 122.904 37.5042C122.663 37.5042 122.436 37.5479 122.224 37.6353C122.022 37.7227 121.839 37.8441 121.675 37.9995C121.521 38.1452 121.386 38.3151 121.27 38.5093C121.155 38.6939 121.063 38.8881 120.996 39.092V43.3458C121.295 43.404 121.584 43.5206 121.863 43.6954V44.0596H118.741V43.6954C118.982 43.5691 119.3 43.4526 119.695 43.3458V37.6207L118.741 37.5042V37.1254C118.992 37.0186 119.281 36.9215 119.608 36.8341C119.936 36.7467 120.278 36.669 120.635 36.601H120.996V38.2326H121.01C121.213 37.7858 121.502 37.4022 121.877 37.0817C122.263 36.7612 122.725 36.601 123.265 36.601C123.65 36.601 123.992 36.6496 124.291 36.7467C124.599 36.8341 124.855 36.9943 125.057 37.2274C125.259 37.4605 125.413 37.7761 125.519 38.1743C125.625 38.5628 125.678 39.0581 125.678 39.6602V43.3458C126.064 43.4137 126.382 43.5303 126.632 43.6954V44.0596Z" fill="white"/>
<path d="M136.241 44.0596H132.022V43.6371C132.262 43.5303 132.503 43.438 132.744 43.3603C132.995 43.2729 133.245 43.2001 133.496 43.1418V35.9892L133.553 35.1297C133.284 35.2365 133.004 35.3142 132.715 35.3628C132.426 35.4016 132.127 35.4162 131.819 35.4065L131.747 35.0568C132.19 34.9112 132.648 34.7315 133.12 34.5178C133.592 34.2945 134.03 34.0177 134.435 33.6875H134.796V43.1418C135.037 43.2001 135.278 43.2729 135.519 43.3603C135.76 43.438 136.001 43.5303 136.241 43.6371V44.0596Z" fill="white"/>
<path d="M138.34 36.9652C138.34 36.4893 138.407 36.0523 138.542 35.6541C138.687 35.2559 138.894 34.9112 139.164 34.6198C139.443 34.3285 139.78 34.1002 140.175 33.9351C140.58 33.77 141.042 33.6875 141.563 33.6875C142.122 33.6875 142.603 33.7846 143.008 33.9788C143.422 34.1634 143.764 34.4256 144.034 34.7655C144.304 35.1054 144.501 35.523 144.627 36.0183C144.752 36.5039 144.814 37.0429 144.814 37.6353C144.814 38.5385 144.684 39.3737 144.424 40.1409C144.164 40.9081 143.808 41.5831 143.355 42.1658C142.912 42.7388 142.382 43.2049 141.765 43.5643C141.158 43.9236 140.503 44.147 139.8 44.2344L139.539 43.8119C140.108 43.6565 140.609 43.4283 141.042 43.1272C141.486 42.8262 141.861 42.4717 142.17 42.0638C142.488 41.6462 142.743 41.1898 142.936 40.6945C143.128 40.1895 143.263 39.6602 143.34 39.1066C143.119 39.3397 142.854 39.5388 142.545 39.7039C142.247 39.8593 141.837 39.937 141.317 39.937C140.884 39.937 140.484 39.8738 140.118 39.7476C139.751 39.6116 139.438 39.4174 139.178 39.1649C138.918 38.9124 138.711 38.6016 138.557 38.2326C138.412 37.8635 138.34 37.4411 138.34 36.9652ZM139.727 36.9506C139.727 37.2323 139.771 37.509 139.857 37.781C139.944 38.0432 140.069 38.2811 140.233 38.4948C140.397 38.6987 140.594 38.8638 140.826 38.9901C141.057 39.1163 141.317 39.1794 141.606 39.1794C142.069 39.1794 142.449 39.1018 142.748 38.9464C143.056 38.7813 143.283 38.5773 143.427 38.3345C143.446 38.2083 143.456 38.0529 143.456 37.8684C143.456 37.6741 143.456 37.5236 143.456 37.4168C143.456 37.0672 143.417 36.7127 143.34 36.3534C143.273 35.9843 143.162 35.6541 143.008 35.3628C142.854 35.0714 142.651 34.8335 142.401 34.649C142.15 34.4644 141.852 34.3722 141.505 34.3722C140.927 34.3722 140.484 34.6053 140.175 35.0714C139.877 35.5279 139.727 36.1543 139.727 36.9506Z" fill="white"/>
<path d="M147.144 36.703H146.783C146.677 36.4213 146.566 36.0911 146.45 35.7124C146.344 35.3336 146.253 34.9743 146.176 34.6344C146.513 34.343 146.918 34.1148 147.39 33.9497C147.862 33.7749 148.373 33.6875 148.922 33.6875C149.403 33.6875 149.818 33.7555 150.165 33.8914C150.511 34.0274 150.796 34.2119 151.017 34.445C151.249 34.6781 151.417 34.95 151.523 35.2608C151.629 35.5619 151.682 35.8775 151.682 36.2077C151.682 36.7515 151.557 37.31 151.306 37.8829C151.056 38.4559 150.743 39.0144 150.367 39.5582C150.001 40.0923 149.601 40.5974 149.167 41.0732C148.734 41.5491 148.334 41.9667 147.968 42.326L147.361 42.8942V42.9524L148.17 42.865H150.656L151.364 41.2335H151.725C151.745 41.4471 151.764 41.6802 151.783 41.9327C151.803 42.1852 151.817 42.4426 151.827 42.7048C151.846 42.9573 151.86 43.2049 151.87 43.4477C151.88 43.6808 151.884 43.8848 151.884 44.0596H145.916V43.5934C146.128 43.37 146.383 43.0981 146.682 42.7776C146.99 42.4571 147.308 42.1027 147.636 41.7142C147.963 41.3257 148.286 40.913 148.604 40.476C148.931 40.0389 149.22 39.5971 149.471 39.1503C149.721 38.6939 149.924 38.2423 150.078 37.7955C150.242 37.3488 150.324 36.9215 150.324 36.5136C150.324 36.232 150.285 35.9649 150.208 35.7124C150.141 35.4599 150.035 35.2414 149.89 35.0568C149.746 34.8626 149.567 34.7121 149.355 34.6053C149.153 34.4984 148.917 34.445 148.647 34.445C148.445 34.445 148.267 34.4596 148.112 34.4887C147.958 34.5178 147.79 34.5616 147.607 34.6198L147.144 36.703Z" fill="white"/>
<path d="M153.492 41.7725C153.492 41.4423 153.549 41.1315 153.665 40.8401C153.781 40.5391 153.94 40.272 154.142 40.0389C154.354 39.7961 154.599 39.5825 154.879 39.398C155.168 39.2134 155.481 39.0629 155.818 38.9464C155.549 38.8007 155.293 38.6405 155.052 38.4656C154.821 38.2908 154.619 38.0917 154.445 37.8684C154.272 37.645 154.132 37.4022 154.026 37.14C153.93 36.8681 153.882 36.567 153.882 36.2368C153.882 35.8581 153.949 35.5133 154.084 35.2025C154.219 34.8917 154.407 34.6247 154.648 34.4013C154.898 34.1779 155.197 34.0031 155.544 33.8769C155.9 33.7506 156.295 33.6875 156.729 33.6875C157.577 33.6875 158.237 33.906 158.709 34.343C159.181 34.7704 159.417 35.3239 159.417 36.0037C159.417 36.567 159.234 37.0623 158.868 37.4896C158.502 37.9072 158.025 38.252 157.437 38.5239C157.774 38.6987 158.087 38.893 158.376 39.1066C158.665 39.3203 158.911 39.5533 159.113 39.8059C159.325 40.0584 159.489 40.3351 159.605 40.6362C159.73 40.9276 159.793 41.2432 159.793 41.5831C159.793 41.9424 159.72 42.2823 159.576 42.6028C159.441 42.9233 159.234 43.2049 158.954 43.4477C158.685 43.6905 158.347 43.8848 157.943 44.0304C157.548 44.1664 157.09 44.2344 156.57 44.2344C156.04 44.2344 155.582 44.1664 155.197 44.0304C154.811 43.8945 154.489 43.7148 154.229 43.4914C153.978 43.2584 153.79 42.9961 153.665 42.7048C153.549 42.4037 153.492 42.093 153.492 41.7725ZM158.521 41.8307C158.521 41.5005 158.453 41.2043 158.318 40.9421C158.193 40.6702 158.02 40.4323 157.798 40.2283C157.586 40.0147 157.336 39.8204 157.047 39.6456C156.767 39.4708 156.478 39.3106 156.18 39.1649C155.9 39.33 155.669 39.5145 155.486 39.7184C155.303 39.9224 155.153 40.136 155.038 40.3594C154.932 40.5731 154.855 40.7867 154.807 41.0004C154.758 41.214 154.734 41.4131 154.734 41.5977C154.734 41.8307 154.768 42.0687 154.836 42.3115C154.913 42.5445 155.028 42.7533 155.182 42.9379C155.337 43.1224 155.534 43.2729 155.775 43.3895C156.025 43.506 156.329 43.5643 156.685 43.5643C156.984 43.5643 157.249 43.5157 157.48 43.4186C157.711 43.3118 157.904 43.1758 158.058 43.0107C158.212 42.8456 158.328 42.6611 158.405 42.4571C158.482 42.2435 158.521 42.0347 158.521 41.8307ZM155.125 36.0474C155.125 36.3485 155.178 36.6107 155.284 36.8341C155.399 37.0574 155.549 37.2614 155.732 37.4459C155.915 37.6207 156.122 37.781 156.353 37.9266C156.594 38.0723 156.84 38.2083 157.09 38.3345C157.495 38.0043 157.779 37.6741 157.943 37.3439C158.107 37.0137 158.188 36.6496 158.188 36.2514C158.188 35.6493 158.054 35.188 157.784 34.8675C157.524 34.5373 157.162 34.3722 156.7 34.3722C156.44 34.3722 156.213 34.4207 156.021 34.5178C155.828 34.615 155.664 34.7412 155.529 34.8966C155.394 35.052 155.293 35.2317 155.226 35.4356C155.158 35.6298 155.125 35.8338 155.125 36.0474Z" fill="white"/>
<path d="M170.16 43.0398C170.083 43.2049 169.962 43.3603 169.799 43.506C169.635 43.6517 169.447 43.7779 169.235 43.8848C169.023 43.9916 168.792 44.0741 168.541 44.1324C168.291 44.2004 168.036 44.2344 167.775 44.2344C167.207 44.2344 166.706 44.147 166.272 43.9722C165.839 43.7876 165.478 43.5303 165.188 43.2001C164.899 42.8602 164.678 42.4571 164.524 41.991C164.379 41.5248 164.307 41.0004 164.307 40.4177C164.307 39.1746 164.591 38.2277 165.16 37.577C165.728 36.9263 166.532 36.601 167.573 36.601C167.91 36.601 168.243 36.6496 168.57 36.7467C168.898 36.8341 169.187 36.9846 169.437 37.1983C169.697 37.4119 169.905 37.6984 170.059 38.0578C170.223 38.4074 170.304 38.8444 170.304 39.3688C170.304 39.5339 170.295 39.7039 170.276 39.8787C170.266 40.0438 170.242 40.2235 170.203 40.4177H165.694C165.694 40.8256 165.742 41.2092 165.839 41.5685C165.945 41.9181 166.099 42.2241 166.301 42.4863C166.504 42.7485 166.759 42.9573 167.067 43.1127C167.376 43.2584 167.737 43.3312 168.151 43.3312C168.488 43.3312 168.83 43.2826 169.177 43.1855C169.524 43.0884 169.784 42.9621 169.958 42.8068L170.16 43.0398ZM167.515 37.242C166.966 37.242 166.547 37.4313 166.258 37.8101C165.969 38.1791 165.795 38.8347 165.738 39.7767H168.917C168.927 39.6893 168.932 39.6068 168.932 39.5291C168.941 39.4417 168.946 39.3591 168.946 39.2814C168.946 38.6599 168.83 38.1646 168.599 37.7955C168.368 37.4265 168.007 37.242 167.515 37.242Z" fill="white"/>
<path d="M171.864 43.2292C171.864 42.9379 171.956 42.7048 172.139 42.53C172.322 42.3552 172.558 42.2678 172.847 42.2678C173.146 42.2678 173.387 42.3552 173.57 42.53C173.753 42.7048 173.844 42.9379 173.844 43.2292C173.844 43.5109 173.753 43.7391 173.57 43.9139C173.387 44.0887 173.146 44.1761 172.847 44.1761C172.558 44.1761 172.322 44.0887 172.139 43.9139C171.956 43.7391 171.864 43.5109 171.864 43.2292Z" fill="white"/>
<path d="M181.449 34.649C181.218 34.6004 181.001 34.547 180.799 34.4887C180.596 34.4207 180.399 34.3527 180.206 34.2848V33.8623H183.458V34.2848C183.179 34.4402 182.832 34.5616 182.417 34.649L179.151 44.0596L178.356 44.2344L174.671 34.649C174.478 34.6004 174.291 34.547 174.107 34.4887C173.924 34.4207 173.746 34.3527 173.573 34.2848V33.8623H177.403V34.2848C177.239 34.3527 177.056 34.4207 176.853 34.4887C176.651 34.547 176.439 34.6004 176.217 34.649L178.689 41.3063L178.992 42.4717H179.021L179.31 41.2772L181.449 34.649Z" fill="white"/>
<path d="M183.176 43.2292C183.176 42.9379 183.268 42.7048 183.451 42.53C183.634 42.3552 183.87 42.2678 184.159 42.2678C184.458 42.2678 184.699 42.3552 184.882 42.53C185.065 42.7048 185.156 42.9379 185.156 43.2292C185.156 43.5109 185.065 43.7391 184.882 43.9139C184.699 44.0887 184.458 44.1761 184.159 44.1761C183.87 44.1761 183.634 44.0887 183.451 43.9139C183.268 43.7391 183.176 43.5109 183.176 43.2292Z" fill="white"/>
<path d="M70.3125 40.7188L96.0938 40.7188" stroke="white" stroke-linecap="round"/>
<path d="M194.531 40.7188H219.141" stroke="white" stroke-linecap="round"/>
<defs>
<clipPath id="clip0_3_126">
<rect width="48.0469" height="56.25" fill="white" transform="translate(0 0.875)"/>
</clipPath>
</defs>
</svg>
