<?xml version="1.0" encoding="UTF-8"?>
<svg id="Ebene_2" data-name="Ebene 2" xmlns="http://www.w3.org/2000/svg" viewBox="0 0 800 800">
  <defs>
    <style>
      .cls-1 {
        fill: #f0d1bd;
      }

      .cls-2 {
        fill: #edeef0;
      }

      .cls-3 {
        fill: #dadada;
      }

      .cls-4 {
        fill: #fff;
      }

      .cls-5 {
        fill: #a3d165;
      }

      .cls-6 {
        fill: #ecc5ad;
      }

      .cls-7 {
        fill: #f1d5c3;
      }

      .cls-8 {
        fill: #383838;
      }

      .cls-9 {
        fill: #f2f2f2;
      }
    </style>
  </defs>
  <g id="background">
    <rect id="background-2" data-name="background" class="cls-4" width="800" height="800"/>
  </g>
  <g id="illustration">
    <g id="neck">
      <rect class="cls-6" x="422.3" y="372.32" width="109.63" height="112.05"/>
      <rect class="cls-1" x="422.3" y="372.32" width="27.41" height="112.05"/>
      <path class="cls-8" d="M531.93,492.37h-109.63c-4.42,0-8-3.58-8-8v-112.05c0-4.42,3.58-8,8-8h109.63c4.42,0,8,3.58,8,8v112.05c0,4.42-3.58,8-8,8ZM430.3,476.37h93.63v-96.05h-93.63v96.05Z"/>
    </g>
    <g>
      <path class="cls-3" d="M549.62,395.81l-72.51,70.01-72.51-70.01c-41.68,0-75.47,33.79-75.47,75.47v171.94h295.96v-171.94c0-41.68-33.79-75.47-75.47-75.47Z"/>
      <path class="cls-9" d="M449.71,439.36l-45.1-43.54c-41.68,0-75.47,33.79-75.47,75.47v171.94h120.57v-203.87Z"/>
      <path class="cls-8" d="M625.09,651.22h-295.96c-4.42,0-8-3.58-8-8v-171.94c0-46.03,37.45-83.47,83.47-83.47,2.07,0,4.07.8,5.56,2.24l66.95,64.64,66.95-64.64c1.49-1.44,3.48-2.24,5.56-2.24,46.03,0,83.47,37.45,83.47,83.47v171.94c0,4.42-3.58,8-8,8ZM337.13,635.22h279.96v-163.94c0-36.15-28.57-65.75-64.32-67.4l-70.11,67.69c-3.1,3-8.01,2.99-11.11,0l-70.11-67.69c-35.75,1.65-64.32,31.25-64.32,67.4v163.94Z"/>
    </g>
    <g id="right_sleeve" data-name="right sleeve">
      <g>
        <path class="cls-6" d="M437.91,642.68l124.24.36,63.8.18v-171.93c0-37.48-27.31-68.58-63.12-74.47l-.49,189.22-123.43.44-1,56.2Z"/>
        <path class="cls-8" d="M625.95,651.22h-.02l-188.04-.54c-2.14,0-4.19-.87-5.69-2.4-1.5-1.53-2.32-3.6-2.28-5.74l1-56.2c.08-4.35,3.62-7.84,7.97-7.86l115.48-.42.47-181.27c0-2.35,1.04-4.57,2.83-6.08,1.79-1.52,4.15-2.17,6.47-1.79,19.3,3.17,36.97,13.15,49.76,28.08,12.93,15.1,20.06,34.38,20.06,54.29v171.93c0,2.13-.85,4.16-2.35,5.67-1.5,1.5-3.53,2.33-5.65,2.33ZM446.05,634.7l171.9.49v-163.91c0-29.97-19.34-55.7-47.15-64.38l-.46,179.15c-.01,4.4-3.57,7.96-7.97,7.98l-115.6.42-.72,40.25Z"/>
      </g>
    </g>
    <g id="arm">
      <path class="cls-1" d="M392.93,643.22h-63.8v-171.93c0-37.48,27.31-68.58,63.12-74.47l.68,246.4Z"/>
      <path class="cls-8" d="M392.93,651.22h-63.8c-4.42,0-8-3.58-8-8v-171.93c0-19.91,7.12-39.19,20.06-54.29,12.79-14.93,30.46-24.9,49.77-28.08,2.31-.38,4.68.27,6.47,1.79,1.79,1.52,2.82,3.74,2.83,6.08l.68,246.4c0,2.13-.83,4.17-2.34,5.67-1.5,1.5-3.54,2.35-5.66,2.35ZM337.13,635.22h47.78l-.63-228.31c-27.81,8.68-47.15,34.41-47.15,64.38v163.93Z"/>
    </g>
    <g id="head">
      <circle class="cls-6" cx="477.11" cy="270.45" r="115.95" transform="translate(-51.49 416.58) rotate(-45)"/>
      <path class="cls-7" d="M361.16,270.45c0-54.6,37.73-100.38,88.55-112.7,0,106.05,0,130,0,225.39-50.81-12.31-88.55-58.1-88.55-112.7Z"/>
      <path class="cls-8" d="M477.11,394.41c-68.35,0-123.95-55.61-123.95-123.95s55.61-123.96,123.95-123.96,123.96,55.61,123.96,123.96-55.61,123.95-123.96,123.95ZM477.11,162.5c-59.53,0-107.95,48.43-107.95,107.96s48.43,107.95,107.95,107.95,107.96-48.43,107.96-107.95-48.43-107.96-107.96-107.96Z"/>
    </g>
    <g id="t-shirt_neck" data-name="t-shirt neck">
      <g>
        <polygon class="cls-4" points="405.43 403.89 423.44 476.49 465.37 456.57 405.43 403.89"/>
        <path class="cls-8" d="M423.44,484.49c-1.17,0-2.34-.26-3.42-.77-2.17-1.03-3.76-2.97-4.34-5.3l-18.01-72.61c-.84-3.4.62-6.94,3.61-8.76,2.99-1.82,6.81-1.48,9.44.83l59.94,52.68c2.02,1.78,3.01,4.45,2.64,7.12-.37,2.67-2.06,4.96-4.49,6.12l-41.93,19.92c-1.09.52-2.26.77-3.43.77ZM419.35,426.77l9.5,38.3,22.12-10.51-31.61-27.79Z"/>
      </g>
      <g>
        <polygon class="cls-3" points="550.87 400 532.86 472.61 490.93 452.68 550.87 400"/>
        <path class="cls-8" d="M532.86,480.61c-1.17,0-2.35-.26-3.43-.77l-41.93-19.92c-2.43-1.15-4.12-3.45-4.49-6.12-.37-2.66.62-5.34,2.64-7.12l59.94-52.68c2.63-2.31,6.45-2.65,9.44-.83,2.99,1.82,4.45,5.37,3.61,8.76l-18.01,72.61c-.58,2.33-2.17,4.28-4.34,5.3-1.08.51-2.25.77-3.42.77ZM505.34,450.67l22.12,10.51,9.5-38.29-31.61,27.79Z"/>
      </g>
      <path class="cls-8" d="M477.11,522.99c-4.42,0-8-3.58-8-8v-49.17c0-4.42,3.58-8,8-8s8,3.58,8,8v49.17c0,4.42-3.58,8-8,8Z"/>
    </g>
    <g id="sleeve">
      <path class="cls-4" d="M392.49,482.97h-63.36v-11.68c0-37.48,27.31-68.58,63.12-74.47l.24,86.15Z"/>
      <path class="cls-8" d="M392.49,490.97h-63.36c-4.42,0-8-3.58-8-8v-11.68c0-19.91,7.12-39.19,20.06-54.29,12.79-14.93,30.46-24.9,49.77-28.08,2.31-.38,4.68.27,6.47,1.79,1.79,1.52,2.82,3.74,2.83,6.08l.24,86.15c0,2.13-.83,4.17-2.34,5.67-1.5,1.5-3.54,2.35-5.66,2.35ZM337.13,474.97h47.34l-.19-68.06c-27.81,8.68-47.15,34.41-47.15,64.38v3.68Z"/>
    </g>
    <g id="sleeve-2" data-name="sleeve">
      <path class="cls-3" d="M562.28,482.97h62.81v-11.68c0-37.48-27.31-68.58-63.12-74.47l.31,86.15Z"/>
      <path class="cls-8" d="M625.09,490.97h-62.81c-4.41,0-7.98-3.56-8-7.97l-.31-86.15c0-2.35,1.02-4.59,2.81-6.12,1.79-1.53,4.16-2.19,6.49-1.8,19.3,3.17,36.98,13.15,49.77,28.08,12.93,15.1,20.06,34.38,20.06,54.29v11.68c0,4.42-3.58,8-8,8ZM570.26,474.97h46.84v-3.68c0-29.95-19.31-55.66-47.08-64.36l.25,68.04Z"/>
    </g>
    <g id="cap">
      <g>
        <path class="cls-3" d="M600.23,244.85s-54.65-10.53-122.95-10.97-123.29,10.97-123.29,10.97c0,0,15.33-116.72,123.29-116.72s122.95,116.72,122.95,116.72Z"/>
        <path class="cls-2" d="M449.71,234.32c-54.94,2.07-95.71,10.54-95.71,10.54,0,0,12.59-95.86,95.3-113.84,0,31.48.4,59.3.4,103.3Z"/>
        <path class="cls-8" d="M354,252.85c-2,0-3.95-.75-5.44-2.14-1.9-1.76-2.83-4.34-2.49-6.9.16-1.26,4.25-31.16,22.21-61.4,24.19-40.74,61.89-62.28,109.01-62.28s84.77,21.54,108.85,62.29c17.87,30.25,21.88,60.15,22.04,61.41.33,2.55-.59,5.09-2.46,6.85-1.87,1.76-4.47,2.51-6.99,2.03-.54-.1-54.79-10.4-121.49-10.83-66.66-.42-121.07,10.7-121.61,10.81-.54.11-1.09.17-1.63.17ZM473.34,225.87c1.33,0,2.66,0,4,.01,50.47.33,93.08,6.01,112.78,9.13-2.59-10.72-7.91-27.91-18.02-44.88-21.35-35.83-53.25-54-94.81-54s-73.53,18.17-94.99,54.01c-10.11,16.88-15.47,33.98-18.11,44.72,19.35-3.25,60.44-8.99,109.16-8.99Z"/>
      </g>
      <g>
        <path class="cls-3" d="M354,244.85s-.44,23.7,46.94,36.56c17.66,4.8,40.67-14.24,74.11-14.24,43.97,0,74.42,23.52,94.96,15.01,18.11-7.5,30.22-23.78,30.22-37.34-46.26-11.86-71.26-25.16-123.12-25.16s-123.12,25.16-123.12,25.16Z"/>
        <path class="cls-2" d="M354,244.85s-.44,23.7,46.94,36.56c12.93,3.51,28.73-5.76,49.4-10.97,0-18.58-.63-25.59-.63-48.86-46.43,5.86-95.71,23.26-95.71,23.26Z"/>
        <path class="cls-8" d="M559.91,292.04c-9.74,0-20.34-3.26-32.04-6.86-15.26-4.69-32.55-10.01-52.83-10.01-15.62,0-29.04,4.6-40.88,8.66-13.01,4.46-24.25,8.31-35.33,5.3-51.9-14.09-52.9-41.37-52.84-44.43.06-3.34,2.19-6.28,5.33-7.39,2.96-1.05,73.15-25.62,125.78-25.62,39.12,0,63.55,7.38,91.83,15.92,10.33,3.12,21.02,6.35,33.28,9.49,3.54.91,6.01,4.1,6.01,7.75,0,17.48-14.79,36.3-35.16,44.73-4.21,1.74-8.59,2.46-13.16,2.46ZM475.05,259.18c22.68,0,42,5.94,57.53,10.71,14.82,4.56,26.53,8.16,34.37,4.91,12.79-5.29,21.42-15.34,24.26-24.05-9.69-2.62-18.41-5.26-26.89-7.82-28.19-8.51-50.45-15.24-87.21-15.24-40.49,0-94.18,16.13-113.32,22.32.73,1.35,1.75,2.91,3.19,4.59,4.73,5.53,14.83,13.33,36.04,19.09,6.34,1.72,15.43-1.39,25.95-5,12.38-4.24,27.78-9.52,46.07-9.52Z"/>
      </g>
    </g>
    <g>
      <polygon id="arm-2" data-name="arm" class="cls-1" points="303.65 549.33 365.16 538.55 392.2 643.22 329.13 643.22 303.65 549.33"/>
      <path class="cls-8" d="M392.2,651.22h-63.06c-3.61,0-6.77-2.42-7.72-5.9l-25.48-93.89c-.59-2.17-.24-4.49.97-6.39,1.21-1.9,3.16-3.2,5.37-3.59l61.5-10.78c4.11-.72,8.08,1.84,9.13,5.88l27.04,104.67c.62,2.4.09,4.94-1.42,6.9-1.52,1.96-3.85,3.1-6.32,3.1ZM335.25,635.22h46.61l-22.61-87.52-45.59,7.99,21.58,79.52Z"/>
    </g>
    <g>
      <g>
        <path class="cls-4" d="M251.05,347.37c47.72,46.75,53.44,118.3,23.11,149.26s-101.98,26.71-149.71-20.04c-47.72-46.75-53.44-118.3-23.11-149.26,30.33-30.96,101.98-26.71,149.71,20.04Z"/>
        <path class="cls-8" d="M218.89,524.49c-4.55,0-9.2-.26-13.94-.78-31.84-3.49-62.42-18.2-86.1-41.4-23.68-23.2-39.01-53.47-43.16-85.23-4.03-30.84,3.24-58.3,19.93-75.34,16.69-17.04,44-24.87,74.92-21.48,31.84,3.49,62.42,18.2,86.1,41.4,23.69,23.2,39.01,53.47,43.16,85.23,4.03,30.84-3.24,58.3-19.93,75.34-14.14,14.43-35.88,22.25-60.98,22.25ZM156.91,315.51c-20.75,0-38.86,6.21-49.85,17.43-13.04,13.31-18.83,36.52-15.5,62.08,3.68,28.22,17.35,55.17,38.49,75.87,21.14,20.71,48.36,33.82,76.65,36.92,25.62,2.81,48.7-3.46,61.74-16.77,13.04-13.31,18.83-36.52,15.5-62.08-3.69-28.22-17.35-55.17-38.49-75.87-21.14-20.71-48.36-33.82-76.65-36.92-4.04-.44-8.01-.66-11.89-.66Z"/>
      </g>
      <path class="cls-8" d="M325.55,554.98c-.76,0-1.52-.11-2.27-.33l-103.26-30.57c-4.24-1.25-6.65-5.71-5.4-9.94,1.25-4.24,5.7-6.66,9.94-5.4l89.27,26.43-29.24-101.55c-1.22-4.25,1.23-8.68,5.47-9.9,4.24-1.22,8.68,1.23,9.9,5.47l33.28,115.58c.81,2.81.02,5.83-2.05,7.89-1.52,1.51-3.56,2.32-5.64,2.32Z"/>
      <g>
        <path class="cls-4" d="M426.5,645.89h0c-4.99,5.09-13.16,5.18-18.25.19l-106.58-104.41,18.07-18.44,106.58,104.41c5.09,4.99,5.18,13.16.19,18.25Z"/>
        <path class="cls-8" d="M417.28,657.75c-5.28,0-10.57-1.98-14.63-5.96l-106.58-104.41c-3.16-3.09-3.21-8.16-.12-11.31l18.07-18.44c1.48-1.52,3.51-2.38,5.63-2.4,2.11,0,4.17.8,5.68,2.29l106.58,104.41c3.99,3.91,6.22,9.14,6.28,14.72.06,5.58-2.06,10.86-5.97,14.85h0c-4.09,4.17-9.51,6.27-14.94,6.27ZM312.98,541.54l100.87,98.82c1.93,1.89,5.05,1.86,6.94-.07h0c.92-.94,1.42-2.17,1.4-3.49-.01-1.31-.54-2.54-1.47-3.46l-100.87-98.82-6.87,7.01Z"/>
      </g>
      <path class="cls-8" d="M191.22,494.7c-.76,0-1.53-.11-2.29-.34-33.2-9.9-59.28-32.53-75.42-65.44-12.06-24.59-14.33-46.15-14.42-47.06-.44-4.4,2.76-8.32,7.16-8.76,4.38-.44,8.31,2.76,8.76,7.15.03.31,2.21,20.09,13.11,42.1,14.33,28.94,36.33,48.01,65.39,56.67,4.23,1.26,6.64,5.72,5.38,9.95-1.04,3.47-4.22,5.72-7.66,5.72Z"/>
      <path class="cls-8" d="M252.73,400.03c-2.75,0-5.43-1.42-6.92-3.97-.18-.3-10.39-17.48-29.31-32.46-24.82-19.66-52.38-26.53-81.91-20.43-4.32.9-8.56-1.89-9.45-6.22-.89-4.33,1.89-8.56,6.22-9.45,34.09-7.04,67.13,1.23,95.54,23.93,21.18,16.92,32.27,35.79,32.74,36.58,2.22,3.82.92,8.72-2.9,10.94-1.26.73-2.65,1.08-4.01,1.08Z"/>
    </g>
    <g>
      <path id="left_hand" data-name="left hand" class="cls-1" d="M462.89,611.76c0,26.56-12.69,36.52-30.69,36.52s-26.76,19.24-47.28-13.06c-34.61-54.47,18.31-46.63,54-48.74,17.97-1.06,23.97-1.29,23.97,25.27Z"/>
      <path class="cls-8" d="M407.41,661.9c-8.96,0-18.22-5.04-29.25-22.39-12.38-19.49-15.5-33.5-9.82-44.08,8.35-15.55,32.01-16.01,54.88-16.44,5.37-.1,10.43-.2,15.21-.48,10.51-.62,18.82-1.11,25.08,4.79,6.11,5.76,7.37,15.55,7.37,28.46,0,28.29-14.1,44.52-38.69,44.52-3.78,0-7.31,1.27-11.04,2.62-4.63,1.67-9.15,3-13.75,3ZM447.3,594.15c-2.43,0-5.33.17-7.92.32-5.1.3-10.56.41-15.85.51-15.69.3-37.17.71-41.09,8.02-1.17,2.19-2.63,9.29,9.22,27.94,6.8,10.71,11.37,13.92,14,14.74,2.58.8,5.36-.12,10.05-1.81,4.41-1.59,9.89-3.57,16.48-3.57,20.11,0,22.69-15.24,22.69-28.52s-1.79-16.3-2.34-16.82c-.63-.6-2.68-.79-5.24-.79Z"/>
    </g>
    <g>
      <path id="right_hand" data-name="right hand" class="cls-1" d="M341.77,597.01c-23.69,18.45-29.62,2.3-40.39-11.54s-22.32-20.11,1.37-38.56c23.69-18.45,51.63-22.19,62.4-8.36,10.77,13.83.3,40.01-23.39,58.46Z"/>
      <path class="cls-8" d="M323.72,613.31c-1.05,0-2.09-.08-3.13-.22-10.22-1.48-16.02-9.58-21.63-17.41-1.26-1.76-2.56-3.58-3.89-5.29-1.36-1.75-2.78-3.41-4.14-5.02-5.34-6.29-10.87-12.79-9.96-21.67.77-7.48,5.97-14.61,16.87-23.09,12.56-9.78,26.73-16.14,39.9-17.9,14.72-1.97,26.7,1.91,33.73,10.94,13.7,17.58,2.81,48.19-24.78,69.68-8.68,6.76-16.06,9.99-22.96,9.99ZM344.88,538.2c-1.59,0-3.27.12-5.02.35-10.25,1.37-21.99,6.72-32.19,14.67-9.36,7.29-10.66,10.89-10.78,12.11-.21,2.09,2.92,5.78,6.23,9.68,1.41,1.65,3,3.53,4.57,5.55,1.53,1.96,2.93,3.91,4.28,5.8,3.83,5.34,7.44,10.39,10.92,10.89,3.02.44,7.98-1.89,13.97-6.55,17.3-13.48,30.59-36.19,21.99-47.23-2.67-3.43-7.63-5.26-13.97-5.26Z"/>
    </g>
    <g>
      <rect id="wristband" class="cls-3" x="446.05" y="579.06" width="52.18" height="73.82"/>
      <path class="cls-8" d="M498.23,660.88h-52.18c-4.42,0-8-3.58-8-8v-73.82c0-4.42,3.58-8,8-8h52.18c4.42,0,8,3.58,8,8v73.82c0,4.42-3.58,8-8,8ZM454.05,644.88h36.18v-57.82h-36.18v57.82Z"/>
    </g>
    <g id="ball">
      <g>
        <circle class="cls-5" cx="288.87" cy="299.48" r="28.93" transform="translate(-100.13 151.78) rotate(-25.24)"/>
        <path class="cls-8" d="M288.87,336.42c-20.37,0-36.93-16.57-36.93-36.93s16.57-36.93,36.93-36.93,36.93,16.57,36.93,36.93-16.57,36.93-36.93,36.93ZM288.87,278.55c-11.54,0-20.93,9.39-20.93,20.93s9.39,20.93,20.93,20.93,20.93-9.39,20.93-20.93-9.39-20.93-20.93-20.93Z"/>
      </g>
    </g>
  </g>
</svg>